<?xml version="1.0" encoding="utf-8"?>
<COLLADA xmlns="http://www.collada.org/2005/11/COLLADASchema" version="1.4.1" xmlns:xsi="http://www.w3.org/2001/XMLSchema-instance">
  <asset>
    <contributor>
      <author>Blender User</author>
      <authoring_tool>Blender 3.0.1</authoring_tool>
    </contributor>
    <created>2025-12-17T21:08:51</created>
    <modified>2025-12-17T21:08:51</modified>
    <unit name="meter" meter="1"/>
    <up_axis>Z_UP</up_axis>
  </asset>
  <library_images/>
  <library_geometries>
    <geometry id="Cylinder_003-mesh" name="Cylinder.003">
      <mesh>
        <source id="Cylinder_003-mesh-positions">
          <float_array id="Cylinder_003-mesh-positions-array" count="1212">-6.886066 0.5193201 -9.874329 -7.292625 1.227586 12.6482 -6.338435 3.757521 -9.874329 -5.153467 4.248351 12.6482 -2.875201 3.304661 -9.874329 -2.309557 1.880576 12.6482 -3.498595 -0.3439545 -9.874329 -4.527732 -0.555324 12.6482 18.0153 19.1984 -38.63634 13.7756 17.88105 -38.63635 14.69093 17.23083 -32.72726 17.1492 18.98006 -32.57297 15.37355 20.98816 -31.92386 18.1827 15.90517 -32.52888 18.35573 13.22809 -28.8476 15.95518 11.23991 -32.52513 14.45323 9.132063 -27.2009 17.03754 10.83788 -27.7279 19.34959 14.85429 -27.17805 18.97502 17.51639 -27.72312 16.8275 20.74912 -28.37806 14.98762 22.35956 -27.15582 11.40228 22.39156 -27.86785 8.663603 21.60143 -27.21534 9.27407 20.70188 -31.96903 6.252418 18.79754 -27.36104 5.920997 14.14409 -27.73805 8.060788 10.88079 -27.996 10.08549 10.38985 -31.84249 8.737716 11.58112 -32.51831 10.12206 9.288637 -27.38753 11.41202 8.43926 -26.83482 7.613817 9.475648 -26.8783 15.05147 8.230044 -26.87841 18.00329 10.7337 -26.82446 20.15353 13.80889 -26.90767 19.80427 17.38929 -26.81314 18.47656 20.19288 -26.78742 10.30803 23.42619 -26.77362 4.816625 15.77593 -26.79282 5.910753 11.55031 -26.74968 11.08746 7.632675 -27.20149 18.47319 10.1624 -27.20162 20.50604 17.14318 -27.20621 18.45199 21.33049 -26.94704 13.62069 23.85244 -26.932 10.68651 25.7516 -31.85446 7.177235 26.88063 -32.46669 9.015312 29.2533 -29.95646 4.927829 27.20483 -30.32242 3.955376 27.89597 -26.32202 2.259003 27.78599 -19.26809 0.7183985 23.99748 -27.97129 -1.177009 23.50706 -19.15805 -2.738451 21.70895 -17.12174 -3.348953 17.46401 -17.8583 -3.047528 13.79247 -19.07777 -3.687218 22.02907 -15.60867 -4.793005 14.87446 -15.63473 -6.066324 17.44564 -15.45456 -9.714673 30.39095 -15.45457 -9.480561 29.75688 -10.00002 -7.055646 28.37676 -10.00002 -6.140319 27.72654 -15.45457 -7.513244 33.94249 -10.00002 -6.140319 31.88556 -10.00002 -7.055645 31.23534 -15.45457 -6.585271 34.27703 -15.45457 -3.528093 31.88556 -15.45457 -2.612764 31.23534 -10.00002 3.829083 29.33784 -11.80141 0.4266515 23.96966 -16.02428 -0.005310058 20.10755 -24.9722 -1.96283 18.2404 -16.05095 -0.7664744 13.81084 -23.9039 -3.182931 18.94278 -11.7878 -2.910147 23.78927 -10.17345 -0.7126363 24.72341 -11.77335 1.743372 29.70687 -10.12109 -3.528092 27.72654 -10.00002 -2.612764 28.37676 -15.45456 -1.210725 26.22876 -15.71843 6.598296 30.69958 -18.0916 4.934908 31.56452 -15.66718 10.94711 31.73173 -18.04782 14.4788 30.11722 -28.36827 12.58155 28.25663 -32.35489 13.01762 27.18245 -32.72346 15.45994 25.41771 -31.80867 14.4775 31.43114 -19.16189 19.22894 30.3641 -17.90133 16.64291 32.5912 -15.7605 12.63544 33.55121 -15.54425 31.60729 34.22592 -15.45452 27.55173 31.23534 -15.45453 20.74169 31.26696 -10.11423 10.90288 33.29197 -10.20204 28.46705 31.88556 -9.999979 19.73173 30.14239 -11.80147 19.19643 28.84236 -16.16633 11.95321 30.53877 -16.12136 15.92322 28.84712 -23.87978 10.49765 29.18454 -23.93824 4.674554 28.21887 -16.1664 6.559996 27.86627 -23.89239 11.82042 31.93075 -11.79975 2.734871 24.65322 -25.39101 0.2157507 14.41303 -26.75224 0.8924211 9.075935 -23.8765 4.497475 4.932206 -23.93247 4.866124 6.015761 -26.77894 2.036278 9.571989 -26.88983 9.015692 2.755985 -23.87975 14.44131 2.418553 -23.93818 13.66567 3.444085 -26.8156 18.37892 3.736806 -23.89237 22.20409 6.949886 -25.39099 24.97415 11.51451 -24.88944 24.68505 17.28087 -26.78007 25.69104 17.80635 -23.95439 24.04656 22.52715 -23.87644 20.44148 26.67089 -23.93252 20.07286 25.58733 -26.77892 11.2733 28.15901 -26.81562 2.040453 21.14938 -27.28034 1.596098 12.20238 -27.28092 4.566977 19.48415 -22.0224 2.084947 14.89427 -26.64138 3.777677 9.968387 -26.68459 7.218412 5.509503 -27.26956 8.109142 6.094084 -26.6867 9.445781 3.932583 -26.88904 17.46602 4.595441 -26.88137 22.96761 10.57261 -27.28503 21.63274 10.63046 -26.62782 22.88452 16.67874 -26.65594 22.90269 22.03114 -26.88979 15.49326 27.6705 -26.88903 7.472965 27.00767 -26.88139 8.990675 26.83614 -27.26956 7.353237 24.96671 -26.70116 3.145891 20.85871 -26.71221 5.412598 18.33304 -21.34262 5.14899 12.03546 -21.46337 3.940822 14.24596 -22.13453 8.010719 18.40099 -27.26469 6.845838 18.54791 -22.68997 8.361732 22.20783 -21.35184 7.0934 22.65975 -22.12057 8.425975 16.15462 -27.27272 8.425971 15.44847 -18.18181 10.46179 12.23374 -18.18181 14.68989 12.26639 -18.1818 14.47718 12.23375 -27.27271 10.24908 12.26639 -27.27271 8.338862 12.59441 -27.27551 7.021412 14.01391 -24.02563 9.443018 10.90826 -24.00476 8.845458 9.824832 -21.61169 7.132348 9.562316 -21.47886 10.26092 7.280088 -22.07583 14.17785 7.66126 -21.47228 13.24662 8.809524 -21.61352 13.67323 10.09886 -24.13981 17.11884 11.87785 -22.93768 13.42602 10.64712 -27.27526 17.4009 14.20802 -27.2749 18.16409 15.7475 -24.043 16.79382 18.43859 -27.27307 17.29274 19.39647 -23.12412 17.52783 21.65805 -21.35934 15.83862 20.98882 -22.81156 13.17308 20.99707 -27.27515 12.07244 21.89849 -22.87541 9.190994 20.88233 -22.87671 10.2477 24.42725 -22.30967 12.88165 23.43319 -21.35745 15.36498 24.09145 -21.99325 10.87989 26.23298 -26.69416 17.72053 26.0936 -27.26956 15.03798 25.94853 -26.66453 18.42857 24.50877 -26.71292 21.45572 21.01011 -26.6586 23.3763 19.32258 -27.26954 19.24242 21.18992 -22.03152 20.4556 17.88663 -21.50898 19.37787 15.3269 -21.61161 17.53154 10.1829 -21.36584 17.42105 8.610471 -22.1201 19.67995 11.80195 -21.46911 21.08635 14.36582 -22.22609 17.6145 6.649717 -26.70338 14.07448 5.386919 -26.68235 15.94827 4.766953 -27.26954 10.46179 19.36935 -27.27272 10.24908 19.33671 -18.18181 14.47718 19.36935 -18.18181 16.51299 16.15462 -18.1818 14.68989 19.33671 -27.27271 16.51299 15.44849 -27.27271 5.83885 13.61771 -21.61259 24.82509 23.62583 -16.12106 28.37761 16.60652 -11.80044 26.99664 16.42573 -16.16602 29.82697 16.29824 -10.12702 27.26958 25.00971 -10.1289 27.55172 28.37676 -9.99998 25.9508 24.43808 -11.79873 22.46305 30.26977 -15.57907 22.72139 27.80736 -19.09298 21.20325 27.4787 -27.43718 28.35426 23.03315 -15.54982 28.46705 27.72654 -15.45452 31.9946 28.37676 -15.45452 30.99164 18.31577 -9.999967 34.51211 29.57136 -9.99997 34.57386 30.52122 -15.45452 31.07928 27.72654 -9.999977 31.9946 31.23534 -9.999979 32.36917 34.02543 -9.999979 31.07928 31.88556 -15.45452 27.84909 7.813815 -10.17341 25.3421 8.882835 -16.12111 26.60042 8.302913 -11.79874 20.26439 3.384216 -16.16637 21.10989 2.265243 -11.80134 13.11852 -0.3276492 -11.79972 12.98574 1.064328 -16.12133 5.742572 2.760728 -16.16638 -1.426357 6.61245 -10.66962 0.7126116 7.173592 -16.05475 5.207212 1.460715 -11.80147 4.19724 0.3361716 -10.11424 -3.445925 7.344997 -10.00135 -1.987785 12.53928 -14.4835 -4.315692 14.64612 -10.47612 -1.488439 8.584325 -12.08562 -6.022194 14.34929 -9.950432 -1.643718 8.576759 -18.43048 -3.415299 8.569962 -15.54985 2.217558 3.795744 -19.09298 5.710023 1.238997 -17.90134 10.46146 0.1719473 -19.16185 10.46018 1.485886 -28.36828 13.99188 -0.1286225 -18.04781 18.34066 0.9035148 -18.09158 17.8449 2.184652 -27.40802 22.67993 3.817092 -19.26805 26.11596 8.096029 -19.15801 27.67743 9.894173 -17.12167 28.26774 14.09315 -17.89256 27.98058 17.77129 -19.14568 25.18091 22.79069 -27.30458 26.58267 23.02636 -18.43046 25.49452 26.86193 -15.93027 29.73197 16.72861 -15.63469 31.00529 14.15743 -15.45451 28.62618 9.573994 -15.60862 34.41952 1.846202 -9.999957 28.46704 3.876553 -9.999963 31.99461 3.226334 -9.999958 14.03605 -1.688869 -10.20201 -6.668355 -2.622812 -10 -3.52809 -0.2824614 -10 -2.61276 0.3677646 -15.45455 2.475852 1.333376 -15.57908 -2.61276 3.226331 -10 -3.528086 3.876555 -15.45455 -7.05565 3.226331 -15.45456 -9.714673 1.212154 -10.00002 -9.480562 1.846215 -15.45456 -6.140326 3.876555 -10.00001 -7.05565 0.3677642 -10.00001 -6.140322 -0.2824612 -15.45455 -7.43022 -2.422327 -15.45455 -0.555557 4.741164 -15.93029 8.296056 -0.9881066 -15.76049 12.30356 -1.948095 -15.54424 31.60732 -2.62281 -15.4545 28.46704 -0.2824586 -15.45451 27.55172 0.3677634 -9.999961 23.19554 1.896195 -10.12105 27.55172 3.226332 -15.45451 26.14967 5.374327 -15.71839 20.00404 0.0385726 -15.66713 34.65363 1.212148 -15.4545 31.07929 3.876553 -15.45451 31.99461 0.367762 -15.4545 32.36917 -2.422331 -9.999958 31.07929 -0.2824587 -9.999958 22.61422 24.33643 -31.10474 17.89823 27.50256 -31.95683 17.52012 25.33901 -32.65758 20.96172 21.34257 -31.87765 18.75671 26.30649 -32.48896 22.98016 21.25681 -32.71368 25.9713 18.60577 -29.91608 25.99056 13.30603 -30.04526 24.94153 16.03731 -32.24565 23.88703 16.56522 -32.7224 22.56433 16.42455 -31.9047 22.83267 8.680846 -32.25542 25.17111 8.958383 -27.63482 22.47587 5.520322 -27.97233 21.84591 9.276196 -32.74015 21.2866 10.84149 -31.9478 18.45944 3.799415 -31.15398 17.76174 4.722475 -32.46666 18.31925 7.476044 -31.93223 14.25243 5.851486 -31.85445 17.35302 5.535992 -32.72364 7.116962 4.04301 -31.93552 11.92135 4.42066 -32.72344 3.735697 4.124412 -27.43719 7.418815 6.264103 -32.65759 9.478998 6.185396 -31.80868 6.182254 5.296612 -32.48897 -0.2419232 8.812374 -27.30458 -1.993661 15.34554 -27.3612 -0.2539058 11.46394 -30.50435 -0.02354615 15.62671 -32.2348 1.958789 10.34632 -32.7137 2.32475 7.26665 -31.10475 3.977262 10.26053 -31.87765 12.39814 3.367022 -32.3673 2.374633 15.17855 -31.90472 1.139452 14.62365 -32.72287 -0.6917802 19.68363 -30.0729 2.106305 22.92228 -32.25545 2.845718 22.1558 -32.72671 7.601162 25.76136 -32.69561 4.904868 22.77555 -32.27479 3.296744 19.77298 -31.90436 5.092718 19.45575 -27.20766 4.411409 14.47276 -27.23133 7.692277 22.11083 -26.83362 7.509407 13.03639 -32.39574 6.594538 15.53805 -31.93502 7.07979 17.41045 -32.59197 8.179844 19.37812 -32.50748 10.67879 21.15481 -32.50725 12.75177 21.46016 -32.53201 11.16337 17.88106 -32.72726 10.24803 17.23082 -38.63635 10.24803 14.37228 -32.72726 11.16337 13.72204 -38.63635 12.5859 10.07182 -32.46208 8.968965 10.05903 -38.63635 6.936041 12.73046 -45.03489 6.140876 14.72598 -38.63636 6.074688 16.36455 -45.11604 6.791784 18.96757 -38.63636 10.51932 22.05621 -38.63635 9.671043 21.37136 -46.49604 14.71245 21.88412 -38.63635 17.81435 17.46677 -47.62966 18.51267 17.79324 -44.85486 17.42642 13.17302 -47.58733 14.97608 10.65661 -47.6291 11.5936 10.20718 -47.58507 11.15261 9.51121 -44.85497 15.18263 9.916669 -45.11581 17.86425 12.48748 -45.03492 18.58366 15.01319 -46.40354 15.58316 9.952253 -38.63634 18.7993 14.38362 -38.63634 13.7756 13.72204 -32.72726 14.69093 14.37227 -38.63634 8.667762 10.7006 -45.18542 7.266081 13.51676 -47.53783 7.12699 17.73764 -47.66573 11.42336 21.39343 -47.64207 12.60806 22.1851 -45.03482 16.14526 21.12501 -45.11529 15.61697 20.57567 -47.62493 7.744863 20.10258 -44.8544 9.197941 11.17587 -47.57941 29.46183 27.45596 -9.8743 27.24366 29.72967 12.64823 27.58332 28.98165 -9.8743 28.11132 31.57439 -9.8743 29.24336 32.08735 12.64823 30.72543 31.94138 -9.8743 31.55557 31.37304 12.64823 32.22673 29.23887 -9.8743 31.95138 28.98163 12.64823 29.84343 27.39269 12.64823 -5.725077 27.44304 12.55727 -5.626041 27.46631 -9.965256 -7.190989 30.35201 -9.965256 -6.883418 31.37937 12.55727 -4.758141 32.22373 -9.965256 -3.385156 31.68679 12.55727 -2.272435 29.46943 -9.965256 -2.571103 28.95058 12.55727 28.96296 -0.3793663 12.6937 27.29664 1.134938 -9.828827 27.37401 1.728588 12.6937 28.83403 3.935291 12.6937 29.39496 4.191117 -9.828827 31.44814 3.568287 12.6937 32.28311 2.217468 -9.828827 31.75014 0.2994791 12.6937 30.41097 -0.4878034 -9.828827</float_array>
          <technique_common>
            <accessor source="#Cylinder_003-mesh-positions-array" count="404" stride="3">
              <param name="X" type="float"/>
              <param name="Y" type="float"/>
              <param name="Z" type="float"/>
            </accessor>
          </technique_common>
        </source>
        <source id="Cylinder_003-mesh-normals">
          <float_array id="Cylinder_003-mesh-normals-array" count="2391">0.5418602 0.8403038 -0.01664376 0.8157191 -0.5776525 -0.03032839 -0.6395034 -0.7681009 -0.03250569 -0.739099 0.6730371 -0.0274558 0 0 1 3.13203e-7 0 -1 0.8158428 0.5746545 -0.06459808 0.8500648 -0.4061478 -0.3353115 -0.02848327 -0.985721 -0.1659603 0.3105694 -0.9105428 -0.2728709 0.5145114 -0.8370162 -0.1862312 0.8037453 -0.5497952 -0.227418 0.9193927 -0.296305 -0.2586901 0.9761857 0.09768927 -0.1936964 0.9180008 0.3049142 -0.2535783 0.8369961 0.5242355 -0.1568913 0.6887761 0.6854081 -0.2362273 0.5761176 0.7967261 -0.182527 0.2277937 0.9405141 -0.2520778 0.04511839 0.9820662 -0.1830586 -0.7347242 0.6430463 -0.2160366 -0.9879803 0.08102959 -0.1316407 -0.963229 0.1794769 -0.1999451 -0.9241296 -0.2927402 -0.2455357 -0.8315425 -0.532854 -0.1568564 -0.5867192 -0.78236 -0.2089819 -0.5631909 -0.8032476 -0.1939312 -0.189102 -0.7209911 -0.6666426 0.01759809 -0.526418 -0.8500438 -0.0315988 -0.3550048 -0.9343304 0.1969826 -0.2116173 -0.9572962 0.3976445 -0.7608586 -0.5128092 0.5219471 -0.5805826 -0.6248962 0.917881 -0.3200307 -0.2346804 0.1543827 -0.1344347 -0.9788224 0.3899888 0.06229752 -0.9187099 0.7362607 -0.0347777 -0.6758038 0.7155253 0.3532183 -0.6027109 0.7096164 0.3417131 -0.6161792 0.5286575 0.8060107 -0.2662101 0.1282429 0.7814533 -0.6106429 -0.3339454 0.4951064 -0.8020912 -0.2365148 0.2521491 -0.9383398 -0.5512214 0.1063052 -0.8275591 -0.7972433 -0.2121965 -0.5651335 -0.5463737 -0.2963437 -0.7833622 -0.4790388 -0.7765719 -0.4092162 -0.2055459 -0.1084365 -0.9726215 0.1124206 0.3733726 -0.9208445 0.01262146 0.4095931 -0.9121811 -0.2842572 0.3543307 -0.8908691 -0.398043 0.2544682 -0.881367 -0.4952746 -0.02538657 -0.8683656 -0.5380797 -0.2474308 -0.8057595 -0.3922743 -0.1361198 -0.909721 0.01852148 -0.1385368 -0.9901841 0.1372435 0.2686143 -0.9534205 -0.05965477 0.09436601 -0.9937487 0.09727847 -0.9076986 -0.4081911 -0.3544402 0.795151 -0.4920439 -0.6761355 0.6806895 -0.281962 -0.7377288 0.6640357 -0.1217077 -0.769812 0.6136511 -0.1755619 -0.8557825 0.2054595 -0.4747871 -0.8072326 0.2116951 -0.5509634 -0.8969672 0.1401588 -0.4192915 -0.04194146 -0.01182121 -0.9990501 -0.9624599 -0.2712479 0.009777784 -0.04412841 -0.07753056 0.9960129 7.5517e-7 0 -1 -0.9015102 0.4237267 0.08794951 -1.77912e-6 5.49427e-7 1 -2.2774e-6 5.21143e-7 1 0.9592612 -0.250239 -0.131143 0 0 -1 -0.1805932 -0.9797479 -0.08648788 0.1805933 -0.9797479 0.08648812 5.99488e-7 2.32049e-6 1 0.01882296 -0.02552241 0.9994971 0.01171523 0.02120786 0.9997065 0.4956941 -0.483496 0.7214701 0.6805937 -0.6680395 0.300858 0.8504459 -0.4966888 0.1733263 0.9159744 -0.3825846 0.120913 0.9768158 -0.0847246 0.196603 0.8734861 -0.3740549 0.3116171 0.8796309 -0.3682659 0.3010477 0.6395602 -0.2751044 0.7178304 0.03726059 -0.03813773 0.9985777 -0.008352398 -0.04531252 0.998938 0.1805937 0.9797479 -0.08648711 -0.1805939 0.9797478 0.08648717 -0.004615545 0.02505153 -0.9996755 -0.1189402 0.04421454 -0.9919165 -0.9592611 0.2502391 -0.1311435 0.02545273 -0.00663948 0.9996541 -0.06242209 0.0814504 -0.9947207 -0.02536404 -0.006618857 -0.9996564 -0.9592611 -0.2502392 0.1311432 -0.6252282 0.7229512 -0.2939921 -0.7038037 0.5537147 -0.4450399 -0.8640236 0.3906482 -0.3175803 -0.7285334 0.4153709 -0.5447074 -0.5320967 0.8388535 -0.1148824 -0.3705836 0.7647535 -0.5270864 -0.002027034 0.06958049 -0.9975743 -0.197204 0.8515056 -0.4858486 -0.2155076 0.8635305 -0.4559293 -0.2262749 0.9603025 -0.1631525 -0.3778903 0.9066657 -0.1875 -0.4154555 0.8740115 -0.2519935 -0.02372199 0.9101926 -0.4135055 -0.1001235 0.977218 -0.1871371 -0.02575993 -0.4879321 -0.8725014 0.120966 0.3657448 -0.9228208 0.1583231 0.8637224 -0.4784532 0.251447 0.958167 -0.1367133 -0.0177806 0.9497225 -0.312588 -0.002794504 0.2086313 -0.9779904 0.02274185 -0.02109897 -0.9995187 0.00133723 0.9993311 0.03654623 1.71227e-4 0.1270919 -0.991891 5.30324e-6 -3.50562e-6 -1 0.03290122 -0.0446152 -0.9984623 5.84177e-4 -0.2814447 0.9595773 -0.002075672 0.998144 0.06086343 -0.01730662 0.03155857 0.9993521 -0.009342789 -0.002034842 0.9999544 -3.78226e-7 0 1 -0.01510274 0.003939509 0.9998783 -0.215538 -0.9283215 0.3029236 -0.2106938 -0.9323469 0.2938323 -0.06298673 -0.9813275 0.1817386 0.30129 -0.9473934 0.1080283 0.3164245 -0.940976 0.1201654 0.5903846 -0.7867982 0.1799852 0.7039411 -0.6996299 0.1224135 0.6790301 -0.6686884 0.3029423 0.2952598 -0.9101775 0.2905146 0.2878374 -0.9089445 0.3016116 -0.1690288 -0.7960489 0.5811501 -0.1735577 -0.7683742 0.6160187 0.2194585 -0.6768218 0.7026736 0.3080398 -0.7745326 0.552459 0.9475142 -0.06130224 0.3137816 0.7149715 0.6176007 0.3276969 0.7212492 0.5854719 0.3701653 0.06223917 0.9453229 0.3201422 -0.7711851 0.4149495 0.4827946 -0.7865846 0.1564159 0.5973433 -0.9438536 0.05923992 0.3250094 -0.7149742 -0.6175976 0.3276969 -0.06223899 -0.9453215 0.3201465 0.5045661 -0.7766161 0.377201 0.4734187 -0.4889082 0.7326961 0.765523 -0.4162638 0.490611 0.3342386 -0.01666122 0.9423412 0.7735945 -0.1615092 0.6127532 -0.4368458 0.08833676 0.8951885 -0.8733652 0.04334425 0.4851336 -0.9284051 0.1690726 0.3308754 0.6316761 0.2163896 0.7444199 0.8686459 0.315815 0.3817268 -0.7126492 -0.5980305 0.3667297 0.1809906 0.1742038 0.9679336 0.2419007 0.2048166 0.9484378 -0.3282551 -0.3674612 0.8701844 0.1001778 0.9217185 0.3746989 -0.2613775 0.8847829 0.3857995 -0.3013522 0.8880728 0.3471509 -0.5045666 0.7766168 0.3771991 -0.4723637 0.4845045 0.7362934 0.9401324 -0.1932699 0.2807095 0.9752026 -0.2022515 -0.08985751 -0.8755745 -0.3111047 0.3695717 -0.8682219 -0.3169512 0.3817497 -0.7212513 -0.5854734 0.3701589 -0.3994756 -0.8383712 0.3708816 -0.3900799 -0.8372929 0.3831169 -0.1001797 -0.921716 0.3747047 0.2613739 -0.8847816 0.3858045 0.3013555 -0.8880727 0.347148 -0.5150581 0.6283916 0.5829574 0.211526 -0.2603102 0.9420697 -0.3509684 0.3571273 0.8656104 -0.4809653 0.003320991 0.8767334 -0.5816076 0.05214577 0.8117964 0.6832117 0.01996719 0.7299474 0.2765705 -0.02999442 0.9605255 0.9681939 -0.03546965 0.2476747 0.9000682 -0.09070056 0.4262053 -0.3523313 0.2702962 0.8959926 -0.3954334 0.340963 0.8528637 0.6369799 -0.483382 0.6004985 -3.35146e-6 -2.58046e-6 1 -0.007718682 -0.9999632 0.003771007 0.007721185 -0.9999632 -0.003771722 -0.002614915 -0.006700634 0.9999742 -0.8447051 -0.5349345 0.01784384 -0.001588523 -7.44841e-4 0.9999985 -0.9049226 -0.4242984 -0.03295814 0.9332019 0.05207496 0.3555595 0.0133062 -0.001109778 0.9999109 0.7874141 0.6143211 0.05087894 0.1904276 0.9694664 0.1545066 0.3362584 0.8784971 0.3393718 0.1821095 0.8778734 0.4429161 0.04579174 0.1967247 0.9793889 -0.104176 -0.3829053 0.9178949 0.04076147 0.1544877 0.9871536 -0.1126409 -0.9483654 0.2965049 0.02761989 -0.9163354 0.399458 -0.07680237 0.06013792 0.995231 -0.2437062 0.6269059 0.7399975 -0.520081 0.7931274 0.3169621 -0.5014428 0.8446878 0.187237 -0.6284771 0.7015069 0.3360128 -0.9546602 0.2836675 0.09031474 -0.9477133 -0.1361216 0.2886357 -0.9464803 -0.2703949 0.1762436 -0.4222699 -0.5299673 0.7354067 -0.6434462 -0.6627742 0.383024 -0.2347428 -0.9621537 0.1384056 0.3204552 -0.9090294 0.2664099 0.4199924 -0.8337222 0.3584883 0.6991751 -0.6863844 0.2000768 0.5297775 -0.476063 0.7019259 -0.433314 0.8145572 0.3856624 -0.6656875 0.6809652 0.3051992 -0.7156336 0.581312 0.3872274 -0.3206353 0.8912199 0.3208118 -0.130149 0.4840381 0.8653141 -0.2704226 0.5659193 0.7788498 0.2348222 -0.6667723 0.7073001 0.201534 -0.7404524 0.641182 -0.168814 -0.6467022 0.7438267 -0.2723359 -0.7134874 0.6455765 0.4302361 0.5656677 0.7035035 0.1393694 0.3637965 0.920993 8.94625e-4 0.6929827 0.7209537 0.06016504 0.9198926 0.3875278 0.03831118 0.9294939 0.3668424 -0.1464864 0.4029906 0.9034049 0.1500691 -0.5425589 0.8265042 -0.02437621 -0.2865865 0.9577443 0.07220131 0.8488624 0.52366 0.04764235 0.763561 0.643976 0.1814447 0.3970541 0.899681 -0.284326 -0.5849019 0.7596372 0.5474669 0.4842869 0.682456 0.6458588 0.5394765 0.5402144 -0.241386 -0.201624 0.9492527 -0.1705439 -0.165995 0.9712675 0.714625 0.6232458 0.3176097 0.5466641 0.7250086 0.4189524 0.3741875 0.8704463 0.3198549 0.41682 0.2893907 0.8616926 -3.45589e-4 -0.03991478 0.999203 -0.8498633 -0.2664584 0.4546784 -0.8721944 -0.3046485 0.3827091 -0.7850785 0.3074758 0.5376901 -0.811551 0.3523463 0.466087 0.296194 -0.4299274 0.852896 0.3594832 -0.4239978 0.8312628 0.0165193 0.04180032 0.9989894 0.5642258 -0.06653225 0.8229355 -0.1568651 0.02646672 0.9872654 0.9085612 0.0792278 0.4101701 0.8892627 0.2935591 0.3507634 0.843191 0.3711923 0.3889028 0.4056579 0.1343705 0.9040942 -0.6171408 -0.2140689 0.7571737 0.8482297 -0.3472117 0.3999382 0.7075839 -0.5824369 0.4001154 0.6643481 -0.6766316 0.3175078 0.3889164 -0.4082557 0.8258761 0.5273458 -0.6360837 0.5632975 -0.2118205 0.2586116 0.9424714 0.3121422 -0.8686272 0.3847782 0.3284345 -0.8680158 0.3723968 0.1493337 -0.4035984 0.9026671 -0.1500686 0.5425595 0.8265039 -0.09814596 -0.8244835 0.5573101 -0.05620044 -0.6607049 0.748539 0.01218587 0.2507872 0.9679656 0.02437394 0.2865893 0.9577435 -0.01219367 -0.2508047 0.967961 -0.8447058 0.5349335 -0.01784402 0.004369795 -0.002766191 0.9999867 -0.9049224 0.4242988 0.03295719 -2.02392e-6 8.07151e-7 1 -7.68041e-7 1.50885e-6 1 0.9049224 0.4242986 -0.03295713 0.844707 0.5349317 0.01784342 -1.13846e-6 2.95664e-7 1 0.8447077 -0.5349304 -0.01784342 0.9049226 -0.4242984 0.03295707 0.001304686 -8.27159e-4 0.9999989 2.12214e-4 9.93791e-5 1 0.002326905 -9.89365e-5 0.9999973 0.001303136 0.002658605 0.9999957 -0.5588889 -0.7907334 0.249768 -0.007718205 0.9999631 -0.003770709 0.007720947 0.9999631 0.003771364 0.007859885 -0.01159214 0.999902 9.85055e-6 0.001475691 0.999999 0.00331825 -0.003800213 0.9999873 -1.24465e-5 -0.001596331 0.9999988 -0.4803758 -0.7688915 0.4219537 0.7072737 0.5607573 0.4304826 0.7075693 0.5546621 0.4378308 0.07619971 0.0606383 0.995247 0.06964665 0.04961383 0.9963372 -0.8585923 -0.3577957 0.3671535 -0.709376 -0.5714733 0.4125579 -0.6248713 -0.6987944 0.3481699 -0.8939794 -0.3100454 0.3235316 -0.3952279 -0.1437752 0.9072617 -0.9147466 0.1009711 0.3912078 0.1983681 0.8590347 0.4719211 -0.331301 0.01380473 0.9434241 0.4408221 -0.02217823 0.8973205 0.2843205 0.5849058 0.7596363 0.3994786 0.8383716 0.3708773 0.3900762 0.8372922 0.3831216 0.8769328 0.3093655 0.3678071 -0.2264317 -0.9693352 0.09548836 -0.6770519 -0.729714 0.09548968 -0.7450485 -0.6459461 0.166302 -0.9137753 -0.2832201 0.2912063 -0.9127245 -0.2771516 0.3002018 -0.9515624 -0.2876671 0.1085211 -0.7558004 -0.2343377 0.6114341 -0.7296122 -0.2140498 0.6494989 -0.0318554 -0.03557485 0.9988592 -0.5315321 -0.5792011 0.6180614 -0.5147392 -0.5385661 0.6670759 -0.6496422 -0.6983606 0.3004291 -0.6470864 -0.7053409 0.2894363 0.0233134 0.006077468 -0.9997098 0.9592617 0.2502369 0.1311432 0.9592615 -0.2502378 -0.1311423 0.5074633 0.5220652 -0.6855137 0.5273917 0.8214797 -0.216862 0.555394 0.8208214 -0.1333785 0.3112987 0.8211977 -0.4782547 0.3436985 0.8269158 -0.4450637 0.7158021 0.5123533 -0.4744696 0.6797887 0.555338 0.479048 0.02903205 0.0195949 -0.9993864 -0.003758549 0.02039098 -0.9997851 -0.1805921 0.9797481 0.08648818 0.1805922 0.9797481 -0.08648782 -0.006946146 -0.03767776 0.9992658 -0.03404712 3.18071e-4 0.9994202 -3.32292e-6 1.03668e-6 1 0.9535973 -0.298261 -0.04114454 -0.9592618 0.2502367 -0.1311427 -2.94671e-6 1.22223e-6 1 0.8978381 0.4319675 0.08538699 -3.49178e-6 4.20397e-7 1 -0.9592618 -0.2502368 0.1311428 0.7777059 0.6227544 -0.08573627 -4.28667e-7 -2.19043e-6 -1 0 2.23352e-7 -1 -0.07235693 -0.02102714 0.9971571 -0.1647262 0.03301179 0.9857868 -0.7582528 0.1624156 0.6314063 -0.7299521 0.1665419 0.662898 -0.9317472 0.2061588 0.2989073 -0.9364338 0.2004809 0.2879221 -0.9712588 0.2136704 0.1048871 -0.9801017 0.08501398 0.1793694 -0.8491134 0.4950478 0.1842125 -0.7308973 0.6740691 0.1068648 -0.5903835 0.786799 0.1799854 -0.2952592 0.9101776 0.2905148 -0.287837 0.9089445 0.3016123 -0.3012896 0.9473935 0.1080277 -0.3164229 0.9409767 0.1201637 0.226431 0.9693353 0.09548842 0.4251607 0.8870658 0.1798689 0.6171191 0.7302154 0.2931716 0.628129 0.7077898 0.3232455 0.524737 0.5291734 0.6668034 0.4232371 0.4488648 0.787014 0.6572526 0.746548 0.1033686 0.7440988 0.6450173 0.1739816 0.8701947 0.331095 0.36488 0.9004706 0.4173923 0.1222152 0.9305557 0.326978 0.1647776 0.9620743 0.06839263 0.2640747 0.9906245 0.03216755 0.1327718 0.8482103 -0.06307631 0.5258904 0.882555 0.3202007 0.3443374 0.875522 0.2997156 0.3789878 0.3456118 0.101831 0.9328361 0.871275 0.3040779 0.3852487 0.2778853 0.09526157 0.9558793 0.3059267 -0.07843786 0.9488184 0.9396585 -0.1545539 0.305213 0.03679841 0.01147603 0.9992569 -0.9691911 -0.2179127 -0.1148161 -0.1016885 0.01933932 -0.9946283 -0.8882645 -0.2838905 -0.3610989 -0.7351526 -0.504047 -0.4533071 -0.7797244 -0.6104133 -0.1393759 -0.7546584 -0.6357169 -0.162342 -0.5553938 -0.8208215 -0.1333789 -0.2514486 -0.9581664 -0.1367143 -0.03966933 -0.9891901 -0.1411715 0.5246137 -0.8391906 -0.1433168 0.7738914 -0.617866 -0.1390454 0.8560972 -0.207271 -0.4734304 0.9488611 0.2737981 -0.157154 0.7797239 0.6104137 -0.1393769 0.7351529 0.5040481 -0.4533054 0.288199 0.07583004 -0.9545633 0.02077364 -0.004530668 -0.999774 0.9640212 -0.2102311 0.1626839 0.888818 0.2852516 -0.3586563 0.8361467 0.1896489 -0.5146767 0.8802845 -0.08998221 -0.4658353 0.8974188 -0.1402271 -0.4183012 0.1016911 -0.01934117 -0.994628 0.967773 0.2014268 -0.1511389 -0.03253364 -0.00677067 0.9994477 0.04412931 0.07753503 0.9960126 0.008351266 0.0453158 0.9989379 -0.03726452 0.03814047 0.9985774 -0.7075842 0.643337 0.2923051 -0.7017361 0.645538 0.3014085 -0.3080381 0.7745309 0.5524622 -0.2194612 0.6768224 0.7026723 0.169029 0.7960488 0.5811504 0.1735568 0.7683759 0.6160168 0.009606361 0.003330469 0.9999483 -0.001218974 0.2371563 0.9714708 0.005131959 -0.9992855 -0.0374459 0.01656121 -0.0222221 0.9996159 -1.48178e-6 1.74494e-6 1 0.1805943 0.9797478 -0.08648818 0 1.00276e-6 -1 -0.1805942 0.9797478 0.08648818 -0.03630143 0.06268006 -0.9973734 -0.9592609 0.25024 -0.1311433 0.01510095 -0.003939449 0.9998782 0.01849961 0.004070103 0.9998207 -0.9592611 -0.2502393 0.1311429 -0.1805933 -0.9797479 -0.08648812 5.9455e-5 3.40005e-4 1 0.1805934 -0.9797479 0.08648818 -6.87142e-4 9.21865e-4 0.9999994 -0.9626393 0.2706078 -0.009860098 0.005386471 -0.005288183 0.9999715 0.9592614 -0.2502386 -0.1311425 -3.96466e-6 1.95445e-6 1 0.959261 0.2502399 0.1311431 -0.7801079 -0.6196805 0.08618491 -2.00116e-6 1.46258e-6 1 2.35306e-6 -1.81748e-6 -1 3.47303e-6 -1.63329e-6 -1 -0.8978538 -0.4312731 -0.08866918 -0.02073955 0.004539251 -0.9997746 -0.9689567 0.2120751 0.1270716 -0.2881867 -0.07582962 -0.9545671 0.01656937 -0.02911019 -0.999439 0.003761887 -0.02039164 -0.9997851 -0.7158007 -0.512353 -0.4744721 -0.5074623 -0.5220641 -0.6855153 -0.5273905 -0.8214803 -0.2168629 -0.3437004 -0.8269172 -0.4450596 -0.3112972 -0.8211988 -0.478254 0.01778191 -0.9497227 -0.3125873 -0.14521 -0.7512236 -0.6438767 0.1972067 -0.8515073 -0.4858445 0.2155077 -0.8635305 -0.4559293 0.002184629 -0.07017451 -0.9975324 1.48178e-6 0 -1 0.0264452 0.03548055 -0.9990204 -7.89597e-4 -0.1540055 -0.9880697 -0.005131959 -0.9992855 0.03744494 -1.13705e-6 0 1 0.1805928 0.979748 -0.08648782 -0.1805931 0.979748 0.08648788 -0.01183593 -0.02043485 0.9997212 -0.01882606 0.02552539 0.9994969 -0.5062505 0.4600588 0.729422 -0.6145591 0.4887616 0.6192167 -0.02545648 0.006641209 0.9996539 0.9592614 -0.2502386 -0.1311421 0.06242388 -0.08145374 -0.9947203 0.02536666 0.00661695 -0.9996564 0.9592614 0.2502385 0.1311426 0.6252285 -0.7229508 -0.2939924 0.7038026 -0.5537154 -0.4450406 0.8640231 -0.3906499 -0.3175797 0.7285274 -0.4153699 -0.5447162 0.8064172 -0.214537 -0.5510582 -0.02965062 -0.03978312 -0.9987683 0.04194408 0.01182001 -0.9990501 0.004616737 -0.0250526 -0.9996755 0.1805927 -0.9797481 0.086488 -0.1805918 -0.9797482 -0.08648753 3.77587e-7 -3.26304e-6 -1 -0.9592615 -0.2502382 0.1311421 0.8978525 -0.4312759 0.0886684 -2.31535e-6 1.21251e-7 1 -0.959261 0.2502402 -0.1311428 0 1.34614e-7 1 0.7801088 -0.6196796 -0.08618342 0 3.32571e-7 -1 0.9624599 0.2712478 0.009777843 0.1189465 -0.04421633 -0.9919157 0.3705844 -0.7647537 -0.5270854 7.70728e-4 -0.2166939 -0.9762393 -0.02162283 0.02389347 -0.9994807 -0.02902913 -0.01959556 -0.9993865 -0.6797853 -0.5553347 0.4790568 -0.02331078 -0.006080925 -0.9997099 0.7546591 0.6357161 -0.162342 0.5589608 0.7236027 -0.4049221 0.3839555 0.8811002 -0.2761173 0.3815081 0.9036813 -0.1944526 0.1304928 0.2847819 -0.9496688 -0.1270323 0.3256555 -0.9369159 -0.2867194 -0.7227643 -0.6288113 -0.421534 -0.8050478 -0.4173815 -0.06283926 -0.943134 -0.3264195 -0.6765195 -0.6501094 -0.345947 -0.3556465 -0.4645422 -0.810997 0.06098413 0.09522026 -0.9935865 0.5266839 0.6312969 -0.56927 0.4956963 0.4477086 -0.7442058 0.7421462 0.6226765 -0.247978 0.7869701 0.356575 -0.5035203 0.8262255 0.4021955 -0.3944492 0.9484347 0.2761883 -0.1555373 0.9831202 0.008028864 -0.1827849 0.9089708 0.01345783 -0.4166425 0.4465921 0.08798164 -0.8904015 0.7667635 0.2345515 -0.5975445 -0.5157271 -0.09810733 -0.8511173 -0.38425 -0.1201796 -0.9153736 -0.8245376 -0.3784345 -0.4206247 -0.8923664 -0.2888842 -0.3467394 -0.5313268 0.1280623 -0.8374319 0.9499062 -0.2680978 -0.1606297 0.8346849 -0.3789061 -0.399664 0.7540488 -0.5569505 -0.3481616 0.3675765 -0.1006804 -0.9245274 -0.6107546 0.1729113 -0.7727099 0.3845115 -0.1090101 -0.9166612 -0.8100231 0.4072759 -0.4218874 -0.9189711 0.2128759 -0.3319275 -0.9109353 0.05975806 -0.4081985 -0.7085908 0.6232421 -0.3308603 -0.3617629 0.3149123 -0.8774724 0.6216247 -0.65414 -0.4309102 0.5444609 -0.7990462 -0.2551226 0.561956 -0.80919 -0.1715142 0.1985132 -0.2031437 -0.9588146 0.4787119 -0.5779942 -0.6608765 0.2586884 -0.3147752 -0.9132343 -0.4330194 0.5168983 -0.7384513 -0.4756037 0.7714857 -0.4226239 -0.3524071 0.8651058 -0.3569333 -0.1975984 0.4530348 -0.8693184 0.2271226 -0.9630828 -0.1445229 0.1172228 -0.9742653 -0.1925258 -0.1498764 -0.8647097 -0.4793894 -0.1223727 -0.3670564 -0.9221142 -0.3815072 -0.9036815 -0.1944531 -0.3839062 -0.8822143 -0.272606 0.3556564 0.4645477 -0.8109895 -0.06098455 -0.09522438 -0.9935861 -0.5273702 -0.6399517 -0.5588762 -0.5575005 -0.7241518 -0.4059526 -0.9485714 -0.2748096 -0.1571373 -0.9515914 -0.2566161 -0.1691804 -0.8777668 0.08456468 -0.4715658 -0.9443498 -0.2550093 -0.2077831 -0.919727 -0.1062036 -0.3779194 -0.7428095 -0.3772355 -0.553107 -0.8147777 -0.4479113 -0.3681208 -0.7421454 -0.6226773 -0.2479781 -0.4956961 -0.4477088 -0.7442057 0.709965 0.6051333 -0.3602269 0.6514948 0.6404155 -0.4067218 0.4005262 0.824873 -0.3989529 0.2296146 0.8474396 -0.4786684 0.2867183 0.7227617 -0.6288149 0.02576422 0.4879265 -0.8725044 0.0572285 -0.2963458 -0.9533647 -0.1371471 0.667775 -0.7316195 0.05640363 -0.2748608 -0.9598282 0.179723 -0.7571972 -0.6279748 0.1400101 -0.9174111 -0.372497 0.1348592 -0.9201927 -0.3675031 -0.1023273 0.9037833 -0.4155778 0.06308794 0.945626 -0.3190791 0.8381216 0.36287 -0.4072808 0.5187528 0.09754782 -0.849341 0.384256 0.1201772 -0.9153715 -0.4489861 -0.08791351 -0.8892035 -0.7427741 -0.2215444 -0.6318265 -0.9904235 -0.03714573 -0.1329721 -0.9675964 0.179154 -0.177936 -0.9403291 0.3059247 -0.1489676 -0.9078266 0.3815382 -0.1740099 -0.8113921 0.4480858 -0.3753161 -0.6853773 0.6222681 -0.3782069 -0.5002084 0.6078969 -0.6166465 -0.151967 0.1424804 -0.9780622 -0.2424124 0.3276013 -0.9131887 0.3099571 -0.4013709 -0.8618748 0.8101767 -0.4761056 -0.341961 -0.4376428 0.1252447 -0.8903834 -0.7432094 0.2151769 -0.633513 0.5844826 -0.1172435 -0.8028911 0.6315019 -0.143442 -0.7619907 -0.3306487 0.07442241 -0.940815 0.903075 -0.1215178 -0.4119335 0.8791531 -0.1180103 -0.4616963 0.5156824 0.1248713 -0.8476313 0.8928132 0.2890387 -0.3454581 0.2678815 -0.1277527 -0.9549444 -0.9057094 0.4104561 -0.1059076 0.6771605 -0.6037424 -0.4206529 0.4309881 -0.8423039 -0.3236871 0.4494017 -0.8244915 -0.3438777 0.2454493 -0.3491117 -0.9043648 -0.1651492 0.370126 -0.9141841 0.9139987 -0.1834124 -0.3618926 0.2820838 -0.2648406 -0.9221108 -0.9270613 0.04560273 -0.3721259 0.1239285 -0.3219758 -0.9386019 -0.1326304 -0.2900881 -0.9477648 0.7511264 -0.2144943 -0.6243408 0.7852836 -0.6010208 -0.1486729 0.9412534 -0.3089531 -0.1363458 0.9826406 0.01368248 -0.1850142 -0.2489352 -0.8113512 -0.528905 -0.8361465 -0.1896505 -0.5146764 0.2155354 0.9283233 0.3029201 0.2106938 0.9323468 0.2938327 0.0629881 0.9813275 0.1817383 -0.03414839 0.04107278 -0.9985725 -0.9342921 -0.3277735 0.1402249 -0.4251587 -0.8870667 0.1798689 -0.180592 -0.9797482 -0.08648717 0.180592 -0.9797482 0.08648759 0.145214 0.7512195 -0.6438806 0.03967291 0.9891901 -0.1411707 0.1829574 -0.7106574 -0.6793325 -0.05252724 0.1809636 -0.9820861 -0.05748343 0.3030536 -0.9512382 -0.1857761 0.7783731 -0.5996856 -0.02637767 -0.03372061 -0.9990832 0.02965521 0.039783 -0.9987683 0.6377522 -0.5066527 0.580151 1.82979e-7 0 -1 -0.7754358 0.6244469 -0.09362471 0.9592614 0.2502385 0.1311429 -0.7558844 -0.6203763 -0.2092182 -0.7164095 0.6705511 -0.1926617 -0.4466468 0.6282956 -0.6369862 -0.37432 0.9011653 -0.2185996 -0.3150196 0.9281395 -0.1982927 -0.1444199 0.9615013 -0.2337911 0.02251535 0.05640238 -0.9981542 0.2804654 0.5107099 -0.8127205 0.1806942 0.9802902 0.0798791 0.009282469 0.05036079 -0.998688 -0.180697 0.9802896 -0.07988083 -0.02133095 0.06389325 -0.9977288 -0.04302656 0.06064742 -0.9972316 -0.9604822 0.2505639 0.12121 -0.03413689 0.008904993 -0.9993776 -0.04057896 0.065499 -0.9970272 -0.09407752 -0.05383867 -0.9941082 -0.6472941 -0.09749215 -0.75598 -0.9604825 -0.2505617 -0.1212108 -0.1140899 -0.01263231 -0.9933902 -0.01213937 -0.06811493 -0.9976037 -0.2566802 -0.6800242 -0.6867915 -0.1796625 -0.9553275 -0.2346715 -0.01260125 -0.06836527 -0.9975808 0.007277965 -0.07481461 -0.9971709 -0.1806982 -0.9802894 0.07988095 -0.4232328 -0.9033872 -0.06903344 -0.7614984 -0.6475439 -0.02841323 -0.8539205 -0.5174611 0.05526131 -1.4814e-6 4.0635e-7 1 -0.971648 -0.2313856 -0.04858738 -9.13487e-7 -1.35603e-6 1 -0.987271 0.1515052 0.04839706 -2.89899e-6 1.30671e-6 1 -0.9094277 0.4108455 -0.06440013 -0.6374486 0.7693077 0.0427196 -2.66935e-6 9.49867e-7 1 -0.5572759 0.8302378 -0.01219731 -0.2393551 0.9691613 -0.05861395 0.04098439 0.9985983 0.03349429 -3.09514e-6 2.10887e-7 1 1.81162e-6 7.98825e-7 1 0.2857147 0.9570639 -0.04894924 0.6301524 0.7749518 0.0485593 -9.69573e-7 6.81261e-7 1 0.7693461 -0.07576245 -0.6343238 -0.3599368 -0.8884959 -0.284641 -0.388229 -0.8837078 -0.2614167 0.08234846 -0.9688211 -0.233676 0.1223649 -0.9493111 -0.2895432 0.6724208 -0.6932415 -0.2593581 0.6867747 -0.6638252 -0.2961024 0.8839694 -0.3908349 -0.256605 0.9509896 0.1686623 -0.2591758 0.6921237 -0.720734 -0.03882598 0.8080591 -0.5864618 0.05570542 0.9529382 -0.2988982 -0.05068314 0.99893 0.03918904 -0.02455663 0.9861053 0.1605702 0.04258817 0.9604832 0.2505599 -0.1212098 -4.74406e-6 2.36565e-6 1 0.05878061 0.005443871 -0.9982561 0.05161798 -0.0134657 -0.9985761 0.05934846 -0.02914136 -0.9978119 -3.14187e-6 -4.67214e-7 1 -2.32308e-6 2.91302e-6 1 0.1806956 -0.9802899 -0.07987993 -0.01608759 -0.9964913 0.08213573 0.1000583 -0.9949813 -7.2098e-4 0 0 1 0.9604836 -0.2505579 0.1212103 -0.741807 -0.607128 -0.2848123 -0.7388336 -0.6089096 -0.288711 -0.9153029 -0.04229915 -0.400539 -0.462603 0.548173 -0.6967818 0.2717739 0.9265667 -0.2600254 0.179995 0.9155133 -0.3597736 0.7958011 0.5447995 -0.2643753 0.7823438 0.553395 -0.2858185 -0.1567055 0.9625844 -0.221076 -0.7068904 0.6101089 -0.3578732 -0.8988782 0.4120609 -0.1490771 -0.9527823 -0.2302495 -0.1979675 0.003475308 0.00397706 -0.9999861 0.004351377 0.001357316 -0.9999897 -0.008805871 -0.01593261 -0.9998343 -0.06051772 -0.03222548 -0.9976468 -0.01074373 -0.01708108 -0.9997964 0.003337502 -0.001473426 -0.9999934 0.02993458 -0.01255828 -0.999473 -0.8380966 0.4797046 -0.2597646 0.668492 0.743662 -0.009237229 0.7624191 -0.6466534 -0.02359336 -0.2951419 -0.9553619 -0.01322954 -0.9864815 -0.1632806 -0.01392507 -0.6019307 0.7985463 0.001761853 6.77466e-7 0 1 3.53125e-7 0 -1 0.9590027 0.2822047 -0.0259689 0.08750104 -0.9957402 -0.02907288 -0.9583024 -0.2851055 -0.01927584 -0.4312008 0.9021304 0.01506441 -3.83402e-7 0 1 -2.69374e-7 0 -1 0.7984082 0.6018292 -0.01860582 0.8339276 -0.5517504 0.01167815 -0.139015 -0.990181 -0.01470929 -0.9952688 -0.09195232 -0.03138232 -0.2365954 0.9714047 -0.01988798 0.2468991 0.968827 0.02037394 0.9857379 -0.166704 0.02303612 -0.1296058 -0.9911583 0.02841907 -0.9850987 0.1683115 0.03538256 -6.27107e-7 0 -1 0.6303606 0.776132 -0.01627022 0.9796635 -0.1995032 0.02139979 0.1390077 -0.9901691 0.01556432 -0.8739963 -0.4855226 0.01996189 -0.541898 0.840365 0.0115422 -6.72067e-7 0 1 -3.75874e-7 0 1 0 0 -1 -7.03196e-7 0 -1 0.8790466 0.4767159 0.004357755 0.609535 -0.7922711 0.02781552 -0.742059 -0.6696952 0.02927047 -0.512792 0.8585119 -0.001367807 2.68338e-7 0 1 0.4619412 0.886546 0.0254305 0.8243133 -0.5659584 0.0141012 -0.5639753 -0.8252966 0.02859014 -0.8219506 0.5688206 0.02898925 3.32781e-7 0 1</float_array>
          <technique_common>
            <accessor source="#Cylinder_003-mesh-normals-array" count="797" stride="3">
              <param name="X" type="float"/>
              <param name="Y" type="float"/>
              <param name="Z" type="float"/>
            </accessor>
          </technique_common>
        </source>
        <source id="Cylinder_003-mesh-map-0">
          <float_array id="Cylinder_003-mesh-map-0-array" count="4824">0.838101 1 0.7888783 0.5 0.9791904 0.5 0.6025056 1 0.5219735 0.5 0.7888783 0.5 0.3540744 1 0.2559688 0.5 0.5219735 0.5 0.09672021 1 0.03945499 0.5 0.2559688 0.5 0.07808095 0.118408 0.3796538 0.07698881 0.4388429 0.3665962 0.7800273 0.03535068 0.5395796 0.2418839 0.7216631 0.4753016 0 0 0 0 0 0 0 0 0 0 0 0 0 0 0 0 0 0 0 0 0 0 0 0 0 0 0 0 0 0 0 0 0 0 0 0 0 0 0 0 0 0 0 0 0 0 0 0 0 0 0 0 0 0 0 0 0 0 0 0 0 0 0 0 0 0 0 0 0 0 0 0 0 0 0 0 0 0 0 0 0 0 0 0 0 0 0 0 0 0 0 0 0 0 0 0 0 0 0 0 0 0 0 0 0 0 0 0 0 0 0 0 0 0 0 0 0 0 0 0 0 0 0 0 0 0 0 0 0 0 0 0 0 0 0 0 0 0 0 0 0 0 0 0 0 0 0 0 0 0 0 0 0 0 0 0 0 0 0 0 0 0 0 0 0 0 0 0 0 0 0 0 0 0 0 0 0 0 0 0 0 0 0 0 0 0 0 0 0 0 0 0 0 0 0 0 0 0 0 0 0 0 0 0 0 0 0 0 0 0 0 0 0 0 0 0 0 0 0 0 0 0 0 0 0 0 0 0 0 0 0 0 0 0 0 0 0 0 0 0 0 0 0 0 0 0 0 0 0 0 0 0 0 0 0 0 0 0 0 0 0 0 0 0 0 0 0 0 0 0 0 0 0 0 0 0 0 0 0 0 0 0 0 0 0 0 0 0 0 0 0 0 0 0 0 0 0 0 0 0 0 0 0 0 0 0 0 0 0 0 0 0 0 0 0 0 0 0 0 0 0 0 0 0 0 0 0 0 0 0 0 0 0 0 0 0 0 0 0 0 0 0 0 0 0 0 0 0 0 0 0 0 0 0 0 0 0 0 0 0 0 0 0 0 0 0 0 0 0 0 0 0 0 0 0 0 0 0 0 0 0 0 0 0 0 0 0 0 0 0 0 0 0 0 0 0 0 0 0 0 0 0 0 0 0 0 0 0 0 0 0 0 0 0 0 0 0 0 0 0 0 0 0 0 0 0 0 0 0 0 0 0 0 0 0 0 0 0 0 0 0 0 0 0 0 0 0 0 0 0 0 0 0 0 0 0 0 0 0 0 0 0 0 0 0 0 0 0 0 0 0 0 0 0 0 0 0 0 0 0 0 0 0 0 0 0 0 0 0 0 0 0 0 0 0 0 0 0 0 0 0 0 0 0 0 0 0 0 0 0 0 0 0 0 0 0 0 0 0 0 0 0 0 0 0 0 0 0 0 0 0 0 0 0 0 0 0 0 0 0 0 0 0 0 0 0 0 0 0 0 0 0 0 0 0 0 0 0 0 0 0 0 0 0 0 0 0 0 0 0 0 0 0 0 0 0 0 0 0 0 0 0 0 0 0 0 0 0 0 0 0 0 0 0 0 0 0 0 0 0 0 0 0 0 0 0 0 0 0 0 0 0 0 0 0 0 0 0 0 0 0 0 0 0 0 0 0 0 0 0 0 0 0 0 0 0 0 0 0 0 0 0 0 0 0 0 0 0 0 0 0 0 0 0 0 0 0 0 0 0 0 0 0 0 0 0 0 0 0 0 0 0 0 0 0 0 0 0 0 0 0 0 0 0 0 0 0 0 0 0 0 0 0 0 0 0 0 0 0 0 0 0 0 0 0 0 0 0 0 0 0 0 0 0 0 0 0 0 0 0 0 0 0 0 0 0 0 0 0 0 0 0 0 0 0 0 0 0 0 0 0 0 0 0 0 0 0 0 0 0 0 0 0 0 0 0 0 0 0 0 0 0 0 0 0 0 0 0 0 0 0 0 0 0 0 0 0 0 0 0 0 0 0 0 0 0 0 0 0 0 0 0 0 0 0 0 0 0 0 0 0 0 0 0 0 0 0 0 0 0 0 0 0 0 0 0 0 0 0 0 0 0 0 0 0 0 0 0 0 0 0 0 0 0 0 0 0 0 0 0 0 0 0 0 0 0 0 0 0 0 0 0 0 0 0 0 0 0 0 0 0 0 0 0 0 0 0 0 0 0 0 0 0 0 0 0 0 0 0 0 0 0 0 0 0 0 0 0 0 0 0 0 0 0 0 0 0 0 0 0 0 0 0 0 0 0 0 0 0 0 0 0 0 0 0 0 0 0 0 0 0 0 0 0 0 0 0 0 0 0 0 0 0 0 0 0 0 0 0 0 0 0 0 0 0 0 0 0 0 0 0 0 0 0 0 0 0 0 0 0 0 0 0 0 0 0 0 0 0 0 0 0 0 0 0 0 0 0 0 0 0 0 0 0 0 0 0 0 0 0 0 0 0 0 0 0 0 0 0 0 0 0 0 0 0 0 0 0 0 0 0 0 0 0 0 0 0 0 0 0 0 0 0 0 0 0 0 0 0 0 0 0 0 0 0 0 0 0 0 0 0 0 0 0 0 0 0 0 0 0 0 0 0 0 0 0 0 0 0 0 0 0 0 0 0 0 0 0 0 0 0 0 0 0 0 0 0 0 0 0 0 0 0 0 0 0 0 0 0 0 0 0 0 0 0 0 0 0 0 0 0 0 0 0 0 0 0 0 0 0 0 0 0 0 0 0 0 0 0 0 0 0 0 0 0 0 0 0 0 0 0 0 0 0 0 0 0 0 0 0 0 0 0 0 0 0 0 0 0 0 0 0 0 0 0 0 0 0 0 0 0 0 0 0 0 0 0 0 0 0 0 0 0 0 0 0 0 0 0 0 0 0 0 0 0 0 0 0 0 0 0 0 0 0 0 0 0 0 0 0 0 0 0 0 0 0 0 0 0 0 0 0 0 0 0 0 0 0 0 0 0 0 0 0 0 0 0 0 0 0 0 0 0 0 0 0 0 0 0 0 0 0 0 0 0 0 0 0 0 0 0 0 0 0 0 0 0 0 0 0 0 0 0 0 0 0 0 0 0 0 0 0 0 0 0 0 0 0 0 0 0 0 0 0 0 0 0 0 0 0 0 0 0 0 0 0 0 0 0 0 0 0 0 0 0 0 0 0 0 0 0 0 0 0 0 0 0 0 0 0 0 0 0 0 0 0 0 0 0 0 0 0 0 0 0 0 0 0 0 0 0 0 0 0 0 0 0 0 0 0 0 0 0 0 0 0 0 0 0 0 0 0 0 0 0 0 0 0 0 0 0 0 0 0 0 0 0 0 0 0 0 0 0 0 0 0 0 0 0 0 0 0 0 0 0 0 0 0 0 0 0 0 0 0 0 0 0 0 0 0 0 0 0 0 0 0 0 0 0 0 0 0 0 0 0 0 0 0 0 0 0 0 0 0 0 0 0 0 0 0 0 0 0 0 0 0 0 0 0 0 0 0 0 0 0 0 0 0 0 0 0 0 0 0 0 0 0 0 0 0 0 0 0 0 0 0 0 0 0 0 0 0 0 0 0 0 0 0 0 0 0 0 0 0 0 0 0 0 0 0 0 0 0 0 0 0 0 0 0 0 0 0 0 0 0 0 0 0 0 0 0 0 0 0 0 0 0 0 0 0 0 0 0 0 0 0 0 0 0 0 0 0 0 0 0 0 0 0 0 0 0 0 0 0 0 0 0 0 0 0 0 0 0 0 0 0 0 0 0 0 0 0 0 0 0 0 0 0 0 0 0 0 0 0 0 0 0 0 0 0 0 0 0 0 0 0 0 0 0 0 0 0 0 0 0 0 0 0 0 0 0 0 0 0 0 0 0 0 0 0 0 0 0 0 0 0 0 0 0 0 0 0 0 0 0 0 0 0 0 0 0 0 0 0 0 0 0 0 0 0 0 0 0 0 0 0 0 0 0 0 0 0 0 0 0 0 0 0 0 0 0 0 0 0 0 0 0 0 0 0 0 0 0 0 0 0 0 0 0 0 0 0 0 0 0 0 0 0 0 0 0 0 0 0 0 0 0 0 0 0 0 0 0 0 0 0 0 0 0 0 0 0 0 0 0 0 0 0 0 0 0 0 0 0 0 0 0 0 0 0 0 0 0 0 0 0 0 0 0 0 0 0 0 0 0 0 0 0 0 0 0 0 0 0 0 0 0 0 0 0 0 0 0 0 0 0 0 0 0 0 0 0 0 0 0 0 0 0 0 0 0 0 0 0 0 0 0 0 0 0 0 0 0 0 0 0 0 0 0 0 0 0 0 0 0 0 0 0 0 0 0 0 0 0 0 0 0 0 0 0 0 0 0 0 0 0 0 0 0 0 0 0 0 0 0 0 0 0 0 0 0 0 0 0 0 0 0 0 0 0 0 0 0 0 0 0 0 0 0 0 0 0 0 0 0 0 0 0 0 0 0 0 0 0 0 0 0 0 0 0 0 0 0 0 0 0 0 0 0 0 0 0 0 0 0 0 0 0 0 0 0 0 0 0 0 0 0 0 0 0 0 0 0 0 0 0 0 0 0 0 0 0 0 0 0 0 0 0 0 0 0 0 0 0 0 0 0 0 0 0 0 0 0 0 0 0 0 0 0 0 0 0 0 0 0 0 0 0 0 0 0 0 0 0 0 0 0 0 0 0 0 0 0 0 0 0 0 0 0 0 0 0 0 0 0 0 0 0 0 0 0 0 0 0 0 0 0 0 0 0 0 0 0 0 0 0 0 0 0 0 0 0 0 0 0 0 0 0 0 0 0 0 0 0 0 0 0 0 0 0 0 0 0 0 0 0 0 0 0 0 0 0 0 0 0 0 0 0 0 0 0 0 0 0 0 0 0 0 0 0 0 0 0 0 0 0 0 0 0 0 0 0 0 0 0 0 0 0 0 0 0 0 0 0 0 0 0 0 0 0 0 0 0 0 0 0 0 0 0 0 0 0 0 0 0 0 0 0 0 0 0 0 0 0 0 0 0 0 0 0 0 0 0 0 0 0 0 0 0 0 0 0 0 0 0 0 0 0 0 0 0 0 0 0 0 0 0 0 0 0 0 0 0 0 0 0 0 0 0 0 0 0 0 0 0 0 0 0 0 0 0 0 0 0 0 0 0 0 0 0 0 0 0 0 0 0 0 0 0 0 0 0 0 0 0 0 0 0 0 0 0 0 0 0 0 0 0 0 0 0 0 0 0 0 0 0 0 0 0 0 0 0 0 0 0 0 0 0 0 0 0 0 0 0 0 0 0 0 0 0 0 0 0 0 0 0 0 0 0 0 0 0 0 0 0 0 0 0 0 0 0 0 0 0 0 0 0 0 0 0 0 0 0 0 0 0 0 0 0 0 0 0 0 0 0 0 0 0 0 0 0 0 0 0 0 0 0 0 0 0 0 0 0 0 0 0 0 0 0 0 0 0 0 0 0 0 0 0 0 0 0 0 0 0 0 0 0 0 0 0 0 0 0 0 0 0 0 0 0 0 0 0 0 0 0 0 0 0 0 0 0 0 0 0 0 0 0 0 0 0 0 0 0 0 0 0 0 0 0 0 0 0 0 0 0 0 0 0 0 0 0 0 0 0 0 0 0 0 0 0 0 0 0 0 0 0 0 0 0 0 0 0 0 0 0 0 0 0 0 0 0 0 0 0 0 0 0 0 0 0 0 0 0 0 0 0 0 0 0 0 0 0 0 0 0 0 0 0 0 0 0 0 0 0 0 0 0 0 0 0 0 0 0 0 0 0 0 0 0 0 0 0 0 0 0 0 0 0 0 0 0 0 0 0 0 0 0 0 0 0 0 0 0 0 0 0 0 0 0 0 0 0 0 0 0 0 0 0 0 0 0 0 0 0 0 0 0 0 0 0 0 0 0 0 0 0 0 0 0 0 0 0 0 0 0 0 0 0 0 0 0 0 0 0 0 0 0 0 0 0 0 0 0 0 0 0 0 0 0 0 0 0 0 0 0 0 0 0 0 0 0 0 0 0 0 0 0 0 0 0 0 0 0 0 0 0 0 0 0 0 0 0 0 0 0 0 0 0 0 0 0 0 0 0 0 0 0 0 0 0 0 0 0 0 0 0 0 0 0 0 0 0 0 0 0 0 0 0 0 0 0 0 0 0 0 0 0 0 0 0 0 0 0 0 0 0 0 0 0 0 0 0 0 0 0 0 0 0 0 0 0 0 0 0 0 0 0 0 0 0 0 0 0 0 0 0 0 0 0 0 0 0 0 0 0 0 0 0 0 0 0 0 0 0 0 0 0 0 0 0 0 0 0 0 0 0 0 0 0 0 0 0 0 0 0 0 0 0 0 0 0 0 0 0 0 0 0 0 0 0 0 0 0 0 0 0 0 0 0 0 0 0 0 0 0 0 0 0 0 0 0 0 0 0 0 0 0 0 0 0 0 0 0 0 0 0 0 0 0 0 0 0 0 0 0 0 0 0 0 0 0 0 0 0 0 0 0 0 0 0 0 0 0 0 0 0 0 0 0 0 0 0 0 0 0 0 0 0 0 0 0 0 0 0 0 0 0 0 0 0 0 0 0 0 0 0 0 0 0 0 0 0 0 0 0 0 0 0 0 0 0 0 0 0 0 0 0 0 0 0 0 0 0 0 0 0 0 0 0 0 0 0 0 0 0 0 0 0 0 0 0 0 0 0 0 0 0 0 0 0 0 0 0 0 0 0 0 0 0 0 0 0 0 0 0 0 0 0 0 0 0 0 0 0 0 0 0 0 0 0 0 0 0 0 0 0 0 0 0 0 0 0 0 0 0 0 0 0 0 0 0 0 0 0 0 0 0 0 0 0 0 0 0 0 0 0 0 0 0 0 0 0 0 0 0 0 0 0 0 0 0 0 0 0 0 0 0 0 0 0 0 0 0 0 0 0 0 0 0 0 0 0 0 0 0 0 0 0 0 0 0 0 0 0 0 0 0 0 0 0 0 0 0 0 0 0 0 0 0 0 0 0 0 0 0 0 0 0 0 0 0 0 0 0 0 0 0 0 0 0 0 0 0 0 0 0 0 0 0 0 0 0 0 0 0 0 0 0 0 0 0 0 0 0 0 0 0 0 0 0 0 0 0 0 0 0 0 0 0 0 0 0 0 0 0 0 0 0 0 0 0 0 0 0 0 0 0 0 0 0 0 0 0 0 0 0 0 0 0 0 0 0 0 0 0 0 0 0 0 0 0 0 0 0 0 0 0 0 0 0 0 0 0 0 0 0 0 0 0 0 0 0 0 0 0 0 0 0 0 0 0 0 0 0 0 0 0 0 0 0 0 0 0 0 0 0 0 0 0 0 0 0 0 0 0 0 0 0 0 0 0 0 0 0 0 0 0 0 0 0 0 0 0 0 0 0 0 0 0 0 0 0 0 0 0 0 0 0 0 0 0 0 0 0 0 0 0 0 0 0 0 0 0 0 0 0 0 0 0 0 0 0 0 0 0 0 0 0 0 0 0 0 0 0 0 0 0 0 0 0 0 0 0 0 0 0 0 0 0 0 0 0 0 0 0 0 0 0 0 0 0 0 0 0 0 0 0 0 0 0 0 0 0 0 0 0 0 0 0 0 0 0 0 0 0 0 0 0 0 0 0 0 0 0 0 0 0 0 0 0 0 0 0 0 0 0 0 0 0 0 0 0 0 0 0 0 0 0 0 0 0 0 0 0 0 0 0 0 0 0 0 0 0 0 0 0 0 0 0 0 0 0 0 0 0 0 0 0 0 0 0 0 0 0 0 0 0 0 0 0 0 0 0 0 0 0 0 0 0 0 0 0 0 0 0 0 0 0 0 0 0 0 0 0 0 0 0 0 0 0 0 0 0 0 0 0 0 0 0 0 0 0 0 0 0 0 0 0 0 0 0 0 0 0 0 0 0 0 0 0 0 0 0 0 0 0 0 0 0 0 0 0 0 0 0 0 0 0 0 0 0 0 0 0 0 0 0 0 0 0 0 0 0 0 0 0 0 0 0 0 0 0 0 0 0 0 0 0 0 0 0 0 0 0 0 0 0 0 0 0 0 0 0 0 0 0 0 0 0 0 0 0 0 0 0 0 0 0 0 0 0 0 0 0 0 0 0 0 0 0 0 0 0 0 0 0 0 0 0 0 0 0 0 0 0 0 0 0 0 0 0 0 0 0 0 0 0 0 0 0 0 0 0 0 0 0 0 0 0 0 0 0 0 0 0 0 0 0 0 0 0 0 0 0 0 0 0 0 0 0 0 0 0 0 0 0 0 0 0 0 0 0 0 0 0 0 0 0 0 0 0 0 0 0 0 0 0 0 0 0 0 0 0 0 0 0 0 0 0 0 0 0 0 0 0 0 0 0 0 0 0 0 0 0 0 0 0 0 0 0 0 0 0 0 0 0 0 0 0 0 0 0 0 0 0 0 0 0 0 0 0 0 0 0 0 0 0 0 0 0 0 0 0 0 0 0 0 0 0 0 0 0 0 0 0 0 0 0 0 0 0 0 0 0 0 0 0 0 0 0 0 0 0 0 0 0 0 0 0 0 0 0 0 0 0 0 0 0 0 0 0 0 0 0 0 0 0 0 0 0 0 0 0 0 0 0 0 0 0 0 0 0 0 0 0 0 0 0 0 0 0 0 0 0 0 0 0 0 0 0 0 0 0 0 0 0 0 0 0 0 0 0 0 0 0 0 0 0 0 0 0 0 0 0 0 0 0 0 0 0 0 0 0 0 0 0 0 0 0 0 0 0 0 0 0 0 0 0 0 0 0 0 0 0 0 0 0 0 0 0 0 0 0 0 0 0 0 0 0 0 0 0 0 0 0 0 0 0 0 0 0 0 0 0 0 0 0 0 0 0 0 0 0 0 0 0 0 0 0 0 0 0 0 0 0 0 0 0 0 0 0 0 0 0 0 0 0 0 0 0 0 0 0 0 0 0 0 0 0 0 0 0 0 0 0 0 0 0 0 0 0 0 0 0 0 0 0 0 0 0 0 0 0 0 0 0 0 0 0 0 0 0 0 0 0 0 0 0 0 0 0 0 0 0 0 0 0 0 0 0 0 0 0 0 0 0 0 0 0 0 0 0 0 0 0 0 0 0 0 0 0 0 0 0 0 0 0 0 0 0 0 0 0 0 0 0 0 0 0 0 0 0 0 0 0 0 0 0 0 0 0 0 0 0 0 0 0 0 0 0 0 0 0 0 0 0 0 0 0 0 0 0 0 0 0 0 0 0 0 0 0 0 0 0 0 0 0 0 0 0 0 0 0 0 0 0 0 0 0 0 0 0 0 0 0 0 0 0 0 0 0 0 0 0 0 0 0 0 0 0 0 0 0 0 0 0 0 0 0 0 0 0 0 0 0 0 0 0 0 0 0 0 0 0 0 0 0 0 0 0 0 0 0 0 0 0 0 0 0 0 0 0 0 0 0 0 0 0 0 0 0 0 0 0 0 0 0 0 0 0 0 0 0 0 0 0 0 0 0 0 0 0 0 0 0 0 0 0 0 0 0 0 0 0 0 0 0 0 0 0 0 0 0 0 0 0 0 0 0 0 0 0 0 0 0 0 0 0 0 0 0 0 0 0 0 0 0 0 0 0 0 0 0 0 0 0 0 0 0 0 0 0 0 0 0 0 0 0 0 0 0 0 0 0 0 0 0 0 0 0 0 0 0 0 0 0 0 0 0 0 0 0 0 0 0 0 0 0 0 0 0 0 0 0 0 0 0 0 0 0 0 0 0 0 0 0 0 0 0 0 0 0 0 0 0 0 0 0 0 0 0 0 0 0 0 0 0 0 0 0 0 0 0 0 0 0 0 0 0 0 0 0 0 0 0 0 0 0 0 0 0 0 0 0 0 0 0 0 0 0 0 0 0 0 0 0 0 0 0 0 0 0 0 0 0 0 0 0 0 0 0 0 0 0 0 0 0 0 0 0 0 0 0 0 0 0 0 0 0 0 0 0 0 0 0 0 0 0 0 0 0 0 0 0 0 0 0 0 0 0 0 0 0 0 0 0 0 0 0 0 0 0 0 0 0 0 0 0 0 0 0 0 0 0 0 0 0 0 0 0 0 0 0 0 0 0 0 0 0 0 0 0 0 0 0 0 0 0 0 0 0 0 0 0 0 0 0 0 0 0 0 0 0 0 0 0 0 0 0 0 0 0 0 0 0 0 0 0 0 0 0 0 0 0 0 0 0 0 0 0 0 0 0 0 0 0 0 0 0 0 0 0 0 0 0 0 0 0 0 0 0 0 0 0 0 0 0 0 0 0 0 0 0 0 0 0 0 0 0 0 0 0 0 0 0 0 0 0 0 0 0 0 0 0 0 0 0 0 0 0 0.9485812 1 0.7541283 0.5 0.975622 0.5 0.6204999 1 0.5358517 0.5 0.7541283 0.5 0.4324298 1 0.3644765 0.5 0.5358517 0.5 0.2123833 1 0.1919866 0.5 0.3644765 0.5 0.2123833 1 0.05142009 0.5 0.1919866 0.5 0.1547998 0.03964334 0.4025326 0.08846575 0.2805249 0.4745638 0.7420304 0.4717945 0.9604071 0.2554091 0.8016737 0.02487277 0.7142506 1 0.6481144 0.5 0.9274519 0.5 0.4955002 1 0.3957267 0.5 0.6481144 0.5 0.2293812 1 0.1932296 0.5 0.3957267 0.5 0.2293812 1 0.02621841 0.5 0.1932296 0.5 0.2436351 0.02792108 0.4665707 0.2004324 0.3196406 0.4549652 0.9135069 0.1286221 0.5420545 0.3273283 0.82491 0.4466668 0.7937272 1 0.7556491 0.5 0.9419868 0.5 0.7937272 1 0.5676901 0.5 0.7556491 0.5 0.5267505 1 0.3806484 0.5 0.5676901 0.5 0.2749518 1 0.1469739 0.5 0.3806484 0.5 0.04775887 1 0 0.5 0.1469739 0.5 0.9915122 1 0.838101 1 0.9791904 0.5 0.838101 1 0.6025056 1 0.7888783 0.5 0.6025056 1 0.3540744 1 0.5219735 0.5 0.3540744 1 0.09672021 1 0.2559688 0.5 0.4388429 0.3665962 0.1374775 0.4280347 0.07808095 0.118408 0.7216631 0.4753016 0.9543696 0.3012838 0.7800273 0.03535068 0.9485812 1 0.8080116 1 0.7541283 0.5 0.8080116 1 0.6204999 1 0.7541283 0.5 0.6204999 1 0.4324298 1 0.5358517 0.5 0.4324298 1 0.2123833 1 0.3644765 0.5 0.2123833 1 0.01384788 1 0.05142009 0.5 0.4025326 0.08846575 0.4659671 0.3323614 0.2805249 0.4745638 0.2805249 0.4745638 0.04577374 0.2993366 0.1547998 0.03964334 0.579572 0.1006292 0.534033 0.3323644 0.8016737 0.02487277 0.534033 0.3323644 0.7420304 0.4717945 0.8016737 0.02487277 0.9333344 1 0.7142506 1 0.9274519 0.5 0.7142506 1 0.4955002 1 0.6481144 0.5 0.4955002 1 0.2293812 1 0.3957267 0.5 0.2293812 1 0.02080744 1 0.02621841 0.5 0.3196406 0.4549652 0.04798853 0.2763863 0.2436351 0.02792108 0.6119878 0.07025015 0.5420545 0.3273283 0.9135069 0.1286221 0.9815675 1 0.7937272 1 0.9419868 0.5 0.7937272 1 0.5267505 1 0.5676901 0.5 0.5267505 1 0.2749518 1 0.3806484 0.5 0.2749518 1 0.04775887 1 0.1469739 0.5 0.4463263 0.305438 0.1922647 0.469151 0.04228895 0.2173784 0.4463263 0.305438 0.04228895 0.2173784 0.2870834 0.03094595 0.832364 0.4659668 0.9717947 0.2579694 0.5769871 0.3805471 0.9717947 0.2579694 0.8452314 0.03992003 0.5769871 0.3805471 0.5988022 0.08753323 0.5769871 0.3805471 0.8452314 0.03992003</float_array>
          <technique_common>
            <accessor source="#Cylinder_003-mesh-map-0-array" count="2412" stride="2">
              <param name="S" type="float"/>
              <param name="T" type="float"/>
            </accessor>
          </technique_common>
        </source>
        <vertices id="Cylinder_003-mesh-vertices">
          <input semantic="POSITION" source="#Cylinder_003-mesh-positions"/>
        </vertices>
        <triangles count="804">
          <input semantic="VERTEX" source="#Cylinder_003-mesh-vertices" offset="0"/>
          <input semantic="NORMAL" source="#Cylinder_003-mesh-normals" offset="1"/>
          <input semantic="TEXCOORD" source="#Cylinder_003-mesh-map-0" offset="2" set="0"/>
          <p>0 0 0 1 0 1 7 0 2 2 1 3 3 1 4 1 1 5 4 2 6 5 2 7 3 2 8 6 3 9 7 3 10 5 3 11 4 4 12 2 4 13 0 4 14 3 5 15 5 5 16 7 5 17 8 6 18 356 6 19 373 6 20 14 7 21 15 7 22 13 7 23 346 8 24 16 8 25 30 8 26 15 9 27 16 9 28 346 9 29 15 10 30 17 10 31 16 10 32 14 11 33 17 11 34 15 11 35 13 12 36 18 12 37 14 12 38 13 13 39 19 13 40 18 13 41 11 14 42 19 14 43 13 14 44 11 15 45 20 15 46 19 15 47 12 16 48 20 16 49 11 16 50 12 17 51 21 17 52 20 17 53 341 18 54 21 18 55 12 18 56 341 19 57 22 19 58 21 19 59 25 20 60 23 20 61 24 20 62 26 21 63 25 21 64 337 21 65 337 22 66 25 22 67 338 22 68 336 23 69 26 23 70 337 23 71 26 24 72 336 24 73 27 24 74 29 25 75 28 25 76 27 25 77 28 26 78 30 26 79 27 26 80 30 27 81 31 27 82 32 27 83 30 28 84 16 28 85 31 28 86 31 29 87 16 29 88 33 29 89 16 30 90 34 30 91 33 30 92 16 31 93 17 31 94 34 31 95 17 32 96 14 32 97 34 32 98 34 33 99 14 33 100 18 33 101 34 34 102 18 34 103 35 34 104 18 35 105 36 35 106 35 35 107 18 36 108 19 36 109 36 36 110 19 37 111 20 37 112 36 37 113 36 38 114 20 38 115 37 38 116 37 39 117 20 39 118 21 39 119 21 40 120 22 40 121 38 40 122 22 41 123 23 41 124 38 41 125 23 42 126 25 42 127 335 42 128 39 43 129 25 43 130 26 43 131 39 44 132 26 44 133 40 44 134 26 45 135 27 45 136 40 45 137 40 46 138 27 46 139 30 46 140 40 47 141 30 47 142 32 47 143 32 48 144 31 48 145 41 48 146 31 49 147 33 49 148 41 49 149 33 50 150 34 50 151 42 50 152 34 51 153 35 51 154 42 51 155 35 52 156 36 52 157 43 52 158 36 53 159 37 53 160 43 53 161 43 54 162 37 54 163 44 54 164 37 55 165 21 55 166 44 55 167 44 56 168 21 56 169 45 56 170 21 57 171 38 57 172 45 57 173 46 58 174 45 58 175 38 58 176 49 59 177 48 59 178 47 59 179 50 60 180 49 60 181 52 60 182 52 61 183 53 61 184 50 61 185 53 62 186 51 62 187 50 62 188 53 63 189 55 63 190 54 63 191 54 64 192 55 64 193 57 64 194 57 65 195 55 65 196 58 65 197 60 66 198 57 66 199 59 66 200 59 67 201 61 67 202 60 67 203 62 68 204 61 68 205 76 68 206 60 69 207 66 69 208 63 69 209 61 70 210 64 70 211 60 70 212 62 71 213 64 71 214 61 71 215 65 72 216 64 72 217 62 72 218 65 73 219 62 73 220 66 73 221 60 74 222 67 74 223 66 74 224 69 75 225 65 75 226 68 75 227 68 76 228 65 76 229 66 76 230 69 77 231 64 77 232 65 77 233 96 78 234 69 78 235 78 78 236 96 79 237 64 79 238 69 79 239 77 80 240 70 80 241 78 80 242 71 81 243 70 81 244 77 81 245 71 82 246 72 82 247 106 82 248 73 83 249 72 83 250 71 83 251 73 84 252 74 84 253 72 84 254 73 85 255 77 85 256 75 85 257 73 86 258 71 86 259 77 86 260 75 87 261 77 87 262 76 87 263 78 88 264 79 88 265 76 88 266 79 89 267 62 89 268 76 89 269 62 90 270 79 90 271 63 90 272 63 91 273 79 91 274 80 91 275 63 92 276 80 92 277 57 92 278 80 93 279 81 93 280 57 93 281 79 94 282 69 94 283 80 94 284 78 95 285 69 95 286 79 95 287 80 96 288 83 96 289 81 96 290 68 97 291 83 97 292 80 97 293 80 98 294 69 98 295 68 98 296 83 99 297 51 99 298 81 99 299 51 100 300 53 100 301 81 100 302 81 101 303 53 101 304 54 101 305 81 102 306 54 102 307 57 102 308 50 103 309 51 103 310 82 103 311 82 104 312 51 104 313 83 104 314 67 105 315 92 105 316 83 105 317 84 106 318 82 106 319 92 106 320 92 107 321 82 107 322 83 107 323 48 108 324 82 108 325 84 108 326 50 109 327 82 109 328 48 109 329 50 110 330 48 110 331 49 110 332 48 111 333 85 111 334 86 111 335 48 112 336 84 112 337 85 112 338 87 113 339 88 113 340 46 113 341 86 114 342 291 114 343 87 114 344 86 115 345 85 115 346 291 115 347 85 116 348 89 116 349 90 116 350 91 117 351 89 117 352 84 117 353 92 118 354 93 118 355 91 118 356 91 119 357 93 119 358 208 119 359 67 120 360 219 120 361 93 120 362 67 121 363 93 121 364 92 121 365 93 122 366 220 122 367 94 122 368 208 123 369 93 123 370 94 123 371 219 124 372 64 124 373 96 124 374 64 125 375 219 125 376 67 125 377 219 126 378 95 126 379 97 126 380 219 127 381 96 127 382 95 127 383 218 128 384 219 128 385 97 128 386 97 129 387 95 129 388 206 129 389 100 130 390 99 130 391 98 130 392 100 131 393 98 131 394 105 131 395 100 132 396 102 132 397 101 132 398 103 133 399 102 133 400 100 133 401 103 134 402 104 134 403 102 134 404 103 135 405 106 135 406 104 135 407 71 136 408 106 136 409 103 136 410 71 137 411 103 137 412 70 137 413 103 138 414 105 138 415 70 138 416 103 139 417 100 139 418 105 139 419 105 140 420 95 140 421 96 140 422 105 141 423 98 141 424 95 141 425 70 142 426 105 142 427 96 142 428 70 143 429 96 143 430 78 143 431 107 144 432 72 144 433 74 144 434 108 145 435 109 145 436 110 145 437 108 146 438 110 146 439 111 146 440 112 147 441 113 147 442 114 147 443 116 148 444 117 148 445 133 148 446 117 149 447 118 149 448 133 149 449 117 150 450 119 150 451 118 150 452 120 151 453 121 151 454 122 151 455 101 152 456 102 152 457 123 152 458 104 153 459 106 153 460 138 153 461 138 154 462 106 154 463 124 154 464 106 155 465 72 155 466 124 155 467 125 156 468 124 156 469 107 156 470 124 157 471 72 157 472 107 157 473 141 158 474 124 158 475 127 158 476 127 159 477 124 159 478 125 159 479 126 160 480 141 160 481 127 160 482 107 161 483 111 161 484 125 161 485 107 162 486 108 162 487 111 162 488 125 163 489 129 163 490 128 163 491 111 164 492 110 164 493 125 164 494 125 165 495 110 165 496 129 165 497 128 166 498 129 166 499 130 166 500 112 167 501 114 167 502 131 167 503 114 168 504 113 168 505 132 168 506 113 169 507 115 169 508 132 169 509 115 170 510 116 170 511 132 170 512 132 171 513 116 171 514 133 171 515 190 172 516 134 172 517 135 172 518 134 173 519 183 173 520 135 173 521 119 174 522 120 174 523 118 174 524 118 175 525 120 175 526 136 175 527 120 176 528 122 176 529 136 176 530 121 177 531 101 177 532 122 177 533 122 178 534 101 178 535 137 178 536 101 179 537 123 179 538 137 179 539 123 180 540 102 180 541 138 180 542 102 181 543 104 181 544 138 181 545 139 182 546 124 182 547 140 182 548 138 183 549 124 183 550 139 183 551 140 184 552 124 184 553 141 184 554 142 185 555 144 185 556 143 185 557 142 186 558 126 186 559 144 186 560 146 187 561 142 187 562 200 187 563 142 188 564 143 188 565 200 188 566 145 189 567 146 189 568 156 189 569 146 190 570 200 190 571 156 190 572 142 191 573 147 191 574 126 191 575 147 192 576 148 192 577 126 192 578 146 193 579 147 193 580 142 193 581 152 194 582 150 194 583 151 194 584 154 195 585 153 195 586 152 195 587 154 196 588 152 196 589 151 196 590 154 197 591 155 197 592 165 197 593 154 198 594 151 198 595 150 198 596 154 199 597 149 199 598 155 199 599 149 200 600 154 200 601 150 200 602 156 201 603 155 201 604 145 201 605 149 202 606 145 202 607 155 202 608 157 203 609 155 203 610 156 203 611 163 204 612 165 204 613 157 204 614 157 205 615 165 205 616 155 205 617 163 206 618 157 206 619 158 206 620 162 207 621 158 207 622 159 207 623 161 208 624 159 208 625 160 208 626 162 209 627 159 209 628 161 209 629 160 210 630 130 210 631 192 210 632 161 211 633 160 211 634 192 211 635 187 212 636 162 212 637 161 212 638 164 213 639 162 213 640 187 213 641 163 214 642 162 214 643 164 214 644 164 215 645 165 215 646 163 215 647 164 216 648 166 216 649 165 216 650 167 217 651 166 217 652 164 217 653 167 218 654 168 218 655 166 218 656 169 219 657 168 219 658 167 219 659 171 220 660 169 220 661 170 220 662 171 221 663 172 221 664 169 221 665 173 222 666 172 222 667 171 222 668 174 223 669 172 223 670 173 223 671 174 224 672 145 224 673 172 224 674 146 225 675 145 225 676 174 225 677 146 226 678 174 226 679 147 226 680 148 227 681 175 227 682 140 227 683 140 228 684 141 228 685 148 228 686 148 229 687 141 229 688 126 229 689 178 230 690 140 230 691 175 230 692 147 231 693 176 231 694 175 231 695 147 232 696 175 232 697 148 232 698 174 233 699 173 233 700 147 233 701 173 234 702 176 234 703 147 234 704 173 235 705 171 235 706 176 235 707 171 236 708 170 236 709 176 236 710 170 237 711 184 237 712 177 237 713 176 238 714 170 238 715 177 238 716 176 239 717 177 239 718 175 239 719 175 240 720 180 240 721 178 240 722 175 241 723 177 241 724 180 241 725 178 242 726 139 242 727 140 242 728 123 243 729 138 243 730 139 243 731 179 244 732 123 244 733 139 244 734 179 245 735 139 245 736 180 245 737 180 246 738 139 246 739 178 246 740 181 247 741 179 247 742 180 247 743 122 248 744 137 248 745 179 248 746 182 249 747 179 249 748 181 249 749 183 250 750 179 250 751 182 250 752 183 251 753 122 251 754 179 251 755 136 252 756 122 252 757 183 252 758 184 253 759 182 253 760 181 253 761 177 254 762 184 254 763 181 254 764 177 255 765 181 255 766 180 255 767 170 256 768 185 256 769 184 256 770 170 257 771 186 257 772 185 257 773 169 258 774 186 258 775 170 258 776 169 259 777 167 259 778 186 259 779 186 260 780 164 260 781 187 260 782 167 261 783 164 261 784 186 261 785 187 262 786 161 262 787 188 262 788 189 263 789 187 263 790 188 263 791 186 264 792 187 264 793 189 264 794 189 265 795 190 265 796 185 265 797 186 266 798 189 266 799 185 266 800 185 267 801 190 267 802 135 267 803 135 268 804 182 268 805 185 268 806 184 269 807 185 269 808 182 269 809 135 270 810 183 270 811 182 270 812 118 271 813 136 271 814 183 271 815 190 272 816 189 272 817 134 272 818 189 273 819 188 273 820 134 273 821 188 274 822 191 274 823 134 274 824 191 275 825 133 275 826 134 275 827 193 276 828 133 276 829 191 276 830 132 277 831 133 277 832 193 277 833 192 278 834 191 278 835 188 278 836 161 279 837 192 279 838 188 279 839 192 280 840 193 280 841 191 280 842 114 281 843 132 281 844 193 281 845 130 282 846 193 282 847 192 282 848 129 283 849 193 283 850 130 283 851 131 284 852 114 284 853 129 284 854 129 285 855 114 285 856 193 285 857 137 286 858 123 286 859 179 286 860 194 287 861 149 287 862 195 287 863 194 288 864 145 288 865 149 288 866 149 289 867 150 289 868 195 289 869 197 290 870 195 290 871 150 290 872 197 291 873 196 291 874 195 291 875 199 292 876 198 292 877 197 292 878 198 293 879 196 293 880 197 293 881 152 294 882 197 294 883 150 294 884 153 295 885 199 295 886 152 295 887 199 296 888 197 296 889 152 296 890 166 297 891 199 297 892 153 297 893 168 298 894 198 298 895 199 298 896 168 299 897 199 299 898 166 299 899 168 300 900 172 300 901 198 300 902 169 301 903 172 301 904 168 301 905 198 302 906 195 302 907 196 302 908 198 303 909 194 303 910 195 303 911 172 304 912 145 304 913 194 304 914 198 305 915 172 305 916 194 305 917 166 306 918 153 306 919 165 306 920 153 307 921 154 307 922 165 307 923 160 308 924 159 308 925 130 308 926 157 309 927 200 309 928 158 309 929 157 310 930 156 310 931 200 310 932 158 311 933 200 311 934 143 311 935 158 312 936 143 312 937 159 312 938 144 313 939 128 313 940 143 313 941 159 314 942 143 314 943 128 314 944 159 315 945 128 315 946 130 315 947 127 316 948 128 316 949 144 316 950 127 317 951 125 317 952 128 317 953 126 318 954 127 318 955 144 318 956 163 319 957 158 319 958 162 319 959 133 320 960 118 320 961 183 320 962 133 321 963 183 321 964 134 321 965 110 322 966 131 322 967 129 322 968 109 323 969 112 323 970 110 323 971 110 324 972 112 324 973 131 324 974 74 325 975 108 325 976 107 325 977 100 326 978 101 326 979 99 326 980 99 327 981 121 327 982 201 327 983 201 328 984 121 328 985 120 328 986 201 329 987 202 329 988 207 329 989 201 330 990 203 330 991 202 330 992 201 331 993 119 331 994 203 331 995 207 332 996 202 332 997 204 332 998 207 333 999 204 333 1000 205 333 1001 206 334 1002 95 334 1003 205 334 1004 98 335 1005 207 335 1006 205 335 1007 98 336 1008 205 336 1009 95 336 1010 99 337 1011 201 337 1012 207 337 1013 99 338 1014 207 338 1015 98 338 1016 94 339 1017 212 339 1018 208 339 1019 94 340 1020 206 340 1021 212 340 1022 97 341 1023 206 341 1024 94 341 1025 254 342 1026 90 342 1027 208 342 1028 209 343 1029 90 343 1030 254 343 1031 90 344 1032 209 344 1033 210 344 1034 89 345 1035 91 345 1036 90 345 1037 90 346 1038 91 346 1039 208 346 1040 253 347 1041 209 347 1042 254 347 1043 211 348 1044 254 348 1045 208 348 1046 208 349 1047 212 349 1048 211 349 1049 212 350 1050 213 350 1051 211 350 1052 212 351 1053 217 351 1054 213 351 1055 206 352 1056 217 352 1057 212 352 1058 217 353 1059 206 353 1060 205 353 1061 214 354 1062 217 354 1063 205 354 1064 215 355 1065 217 355 1066 214 355 1067 215 356 1068 214 356 1069 216 356 1070 217 357 1071 218 357 1072 213 357 1073 215 358 1074 218 358 1075 217 358 1076 219 359 1077 215 359 1078 216 359 1079 219 360 1080 218 360 1081 215 360 1082 213 361 1083 218 361 1084 220 361 1085 219 362 1086 216 362 1087 93 362 1088 93 363 1089 216 363 1090 220 363 1091 220 364 1092 216 364 1093 213 364 1094 214 365 1095 205 365 1096 204 365 1097 214 366 1098 204 366 1099 221 366 1100 202 367 1101 223 367 1102 221 367 1103 202 368 1104 221 368 1105 204 368 1106 203 369 1107 222 369 1108 223 369 1109 203 370 1110 223 370 1111 202 370 1112 203 371 1113 117 371 1114 222 371 1115 203 372 1116 119 372 1117 117 372 1118 222 373 1119 117 373 1120 116 373 1121 222 374 1122 116 374 1123 224 374 1124 224 375 1125 116 375 1126 115 375 1127 224 376 1128 226 376 1129 225 376 1130 224 377 1131 227 377 1132 226 377 1133 224 378 1134 113 378 1135 227 378 1136 224 379 1137 115 379 1138 113 379 1139 227 380 1140 112 380 1141 228 380 1142 228 381 1143 112 381 1144 109 381 1145 228 382 1146 229 382 1147 231 382 1148 228 383 1149 230 383 1150 229 383 1151 231 384 1152 229 384 1153 232 384 1154 229 385 1155 233 385 1156 232 385 1157 228 386 1158 109 386 1159 230 386 1160 230 387 1161 109 387 1162 108 387 1163 230 388 1164 234 388 1165 236 388 1166 230 389 1167 108 389 1168 234 389 1169 234 390 1170 108 390 1171 74 390 1172 234 391 1173 73 391 1174 75 391 1175 234 392 1176 74 392 1177 73 392 1178 234 393 1179 75 393 1180 235 393 1181 236 394 1182 234 394 1183 235 394 1184 230 395 1185 236 395 1186 229 395 1187 229 396 1188 235 396 1189 233 396 1190 236 397 1191 235 397 1192 229 397 1193 235 398 1194 237 398 1195 233 398 1196 235 399 1197 76 399 1198 237 399 1199 75 400 1200 76 400 1201 235 400 1202 76 401 1203 61 401 1204 237 401 1205 237 402 1206 61 402 1207 59 402 1208 57 403 1209 58 403 1210 59 403 1211 56 404 1212 238 404 1213 58 404 1214 239 405 1215 238 405 1216 275 405 1217 317 406 1218 240 406 1219 238 406 1220 313 407 1221 240 407 1222 317 407 1223 241 408 1224 240 408 1225 313 408 1226 243 409 1227 242 409 1228 241 409 1229 243 410 1230 244 410 1231 242 410 1232 246 411 1233 247 411 1234 245 411 1235 248 412 1236 247 412 1237 303 412 1238 248 413 1239 250 413 1240 249 413 1241 252 414 1242 253 414 1243 251 414 1244 252 415 1245 209 415 1246 253 415 1247 211 416 1248 253 416 1249 254 416 1250 211 417 1251 256 417 1252 255 417 1253 211 418 1254 216 418 1255 256 418 1256 216 419 1257 214 419 1258 256 419 1259 251 420 1260 253 420 1261 255 420 1262 255 421 1263 253 421 1264 211 421 1265 250 422 1266 251 422 1267 255 422 1268 257 423 1269 250 423 1270 255 423 1271 255 424 1272 256 424 1273 257 424 1274 214 425 1275 258 425 1276 256 425 1277 214 426 1278 221 426 1279 258 426 1280 258 427 1281 221 427 1282 260 427 1283 260 428 1284 221 428 1285 259 428 1286 259 429 1287 221 429 1288 281 429 1289 222 430 1290 225 430 1291 223 430 1292 222 431 1293 224 431 1294 225 431 1295 225 432 1296 261 432 1297 281 432 1298 225 433 1299 226 433 1300 261 433 1301 226 434 1302 232 434 1303 261 434 1304 226 435 1305 231 435 1306 232 435 1307 232 436 1308 262 436 1309 261 436 1310 262 437 1311 288 437 1312 261 437 1313 288 438 1314 262 438 1315 274 438 1316 232 439 1317 263 439 1318 262 439 1319 263 440 1320 272 440 1321 262 440 1322 272 441 1323 263 441 1324 273 441 1325 273 442 1326 264 442 1327 274 442 1328 273 443 1329 263 443 1330 264 443 1331 264 444 1332 265 444 1333 274 444 1334 263 445 1335 266 445 1336 264 445 1337 232 446 1338 266 446 1339 263 446 1340 232 447 1341 233 447 1342 266 447 1343 264 448 1344 266 448 1345 267 448 1346 266 449 1347 271 449 1348 267 449 1349 266 450 1350 233 450 1351 271 450 1352 267 451 1353 271 451 1354 268 451 1355 233 452 1356 269 452 1357 271 452 1358 269 453 1359 237 453 1360 270 453 1361 233 454 1362 237 454 1363 269 454 1364 271 455 1365 272 455 1366 268 455 1367 271 456 1368 269 456 1369 272 456 1370 268 457 1371 272 457 1372 273 457 1373 262 458 1374 269 458 1375 274 458 1376 272 459 1377 269 459 1378 262 459 1379 274 460 1380 268 460 1381 273 460 1382 270 461 1383 268 461 1384 274 461 1385 269 462 1386 270 462 1387 274 462 1388 59 463 1389 239 463 1390 270 463 1391 270 464 1392 237 464 1393 59 464 1394 59 465 1395 58 465 1396 239 465 1397 270 466 1398 239 466 1399 268 466 1400 239 467 1401 267 467 1402 268 467 1403 238 468 1404 240 468 1405 275 468 1406 275 469 1407 241 469 1408 265 469 1409 240 470 1410 241 470 1411 275 470 1412 241 471 1413 276 471 1414 265 471 1415 242 472 1416 276 472 1417 241 472 1418 276 473 1419 242 473 1420 244 473 1421 276 474 1422 244 474 1423 277 474 1424 244 475 1425 245 475 1426 277 475 1427 277 476 1428 245 476 1429 284 476 1430 277 477 1431 284 477 1432 278 477 1433 279 478 1434 287 478 1435 278 478 1436 284 479 1437 279 479 1438 278 479 1439 278 480 1440 274 480 1441 277 480 1442 288 481 1443 274 481 1444 278 481 1445 289 482 1446 280 482 1447 288 482 1448 280 483 1449 289 483 1450 279 483 1451 279 484 1452 289 484 1453 287 484 1454 280 485 1455 261 485 1456 288 485 1457 281 486 1458 261 486 1459 280 486 1460 223 487 1461 225 487 1462 281 487 1463 223 488 1464 281 488 1465 221 488 1466 259 489 1467 281 489 1468 280 489 1469 259 490 1470 280 490 1471 282 490 1472 284 491 1473 283 491 1474 282 491 1475 284 492 1476 282 492 1477 279 492 1478 282 493 1479 280 493 1480 279 493 1481 284 494 1482 247 494 1483 283 494 1484 247 495 1485 248 495 1486 283 495 1487 283 496 1488 248 496 1489 249 496 1490 283 497 1491 249 497 1492 257 497 1493 249 498 1494 250 498 1495 257 498 1496 257 499 1497 285 499 1498 286 499 1499 257 500 1500 256 500 1501 285 500 1502 257 501 1503 286 501 1504 282 501 1505 286 502 1506 259 502 1507 282 502 1508 260 503 1509 259 503 1510 286 503 1511 286 504 1512 285 504 1513 287 504 1514 287 505 1515 260 505 1516 286 505 1517 258 506 1518 288 506 1519 285 506 1520 258 507 1521 260 507 1522 288 507 1523 289 508 1524 260 508 1525 287 508 1526 288 509 1527 260 509 1528 289 509 1529 288 510 1530 278 510 1531 285 510 1532 287 511 1533 285 511 1534 278 511 1535 256 512 1536 258 512 1537 285 512 1538 257 513 1539 282 513 1540 283 513 1541 245 514 1542 247 514 1543 284 514 1544 274 515 1545 276 515 1546 277 515 1547 274 516 1548 265 516 1549 276 516 1550 239 517 1551 265 517 1552 267 517 1553 239 518 1554 275 518 1555 265 518 1556 267 519 1557 265 519 1558 264 519 1559 210 520 1560 209 520 1561 252 520 1562 291 521 1563 210 521 1564 290 521 1565 210 522 1566 291 522 1567 85 522 1568 85 523 1569 90 523 1570 210 523 1571 291 524 1572 292 524 1573 87 524 1574 291 525 1575 294 525 1576 292 525 1577 87 526 1578 292 526 1579 88 526 1580 88 527 1581 44 527 1582 45 527 1583 46 528 1584 88 528 1585 45 528 1586 292 529 1587 293 529 1588 44 529 1589 292 530 1590 295 530 1591 293 530 1592 294 531 1593 295 531 1594 292 531 1595 291 532 1596 290 532 1597 294 532 1598 290 533 1599 295 533 1600 294 533 1601 210 534 1602 252 534 1603 290 534 1604 290 535 1605 296 535 1606 295 535 1607 252 536 1608 296 536 1609 290 536 1610 252 537 1611 251 537 1612 296 537 1613 296 538 1614 251 538 1615 297 538 1616 296 539 1617 297 539 1618 298 539 1619 295 540 1620 298 540 1621 299 540 1622 296 541 1623 298 541 1624 295 541 1625 295 542 1626 299 542 1627 300 542 1628 295 543 1629 300 543 1630 293 543 1631 293 544 1632 43 544 1633 44 544 1634 293 545 1635 300 545 1636 43 545 1637 299 546 1638 305 546 1639 300 546 1640 297 547 1641 250 547 1642 302 547 1643 302 548 1644 301 548 1645 297 548 1646 302 549 1647 303 549 1648 301 549 1649 298 550 1650 304 550 1651 299 550 1652 299 551 1653 304 551 1654 305 551 1655 298 552 1656 301 552 1657 304 552 1658 305 553 1659 42 553 1660 35 553 1661 300 554 1662 305 554 1663 35 554 1664 300 555 1665 35 555 1666 43 555 1667 305 556 1668 308 556 1669 42 556 1670 304 557 1671 308 557 1672 305 557 1673 303 558 1674 306 558 1675 301 558 1676 303 559 1677 246 559 1678 306 559 1679 303 560 1680 247 560 1681 246 560 1682 301 561 1683 307 561 1684 310 561 1685 306 562 1686 307 562 1687 301 562 1688 301 563 1689 310 563 1690 304 563 1691 304 564 1692 310 564 1693 308 564 1694 308 565 1695 33 565 1696 42 565 1697 308 566 1698 309 566 1699 33 566 1700 310 567 1701 309 567 1702 308 567 1703 246 568 1704 245 568 1705 244 568 1706 246 569 1707 244 569 1708 243 569 1709 243 570 1710 311 570 1711 324 570 1712 324 571 1713 311 571 1714 312 571 1715 243 572 1716 241 572 1717 313 572 1718 313 573 1719 311 573 1720 243 573 1721 314 574 1722 321 574 1723 323 574 1724 316 575 1725 321 575 1726 314 575 1727 311 576 1728 322 576 1729 316 576 1730 311 577 1731 313 577 1732 322 577 1733 317 578 1734 238 578 1735 56 578 1736 317 579 1737 56 579 1738 318 579 1739 55 580 1740 56 580 1741 58 580 1742 317 581 1743 318 581 1744 319 581 1745 319 582 1746 318 582 1747 320 582 1748 322 583 1749 319 583 1750 321 583 1751 317 584 1752 319 584 1753 322 584 1754 313 585 1755 317 585 1756 322 585 1757 322 586 1758 321 586 1759 316 586 1760 314 587 1761 40 587 1762 32 587 1763 314 588 1764 323 588 1765 40 588 1766 315 589 1767 32 589 1768 41 589 1769 315 590 1770 314 590 1771 32 590 1772 312 591 1773 314 591 1774 315 591 1775 312 592 1776 315 592 1777 309 592 1778 307 593 1779 324 593 1780 312 593 1781 310 594 1782 312 594 1783 309 594 1784 307 595 1785 312 595 1786 310 595 1787 306 596 1788 324 596 1789 307 596 1790 246 597 1791 324 597 1792 306 597 1793 246 598 1794 243 598 1795 324 598 1796 309 599 1797 41 599 1798 33 599 1799 309 600 1800 315 600 1801 41 600 1802 323 601 1803 334 601 1804 40 601 1805 321 602 1806 326 602 1807 325 602 1808 321 603 1809 325 603 1810 323 603 1811 321 604 1812 320 604 1813 326 604 1814 319 605 1815 320 605 1816 321 605 1817 318 606 1818 56 606 1819 55 606 1820 318 607 1821 55 607 1822 327 607 1823 327 608 1824 55 608 1825 53 608 1826 327 609 1827 53 609 1828 52 609 1829 327 610 1830 52 610 1831 328 610 1832 52 611 1833 49 611 1834 328 611 1835 49 612 1836 47 612 1837 328 612 1838 328 613 1839 47 613 1840 330 613 1841 328 614 1842 330 614 1843 329 614 1844 329 615 1845 330 615 1846 331 615 1847 332 616 1848 331 616 1849 333 616 1850 320 617 1851 328 617 1852 329 617 1853 327 618 1854 328 618 1855 320 618 1856 326 619 1857 332 619 1858 325 619 1859 326 620 1860 329 620 1861 332 620 1862 320 621 1863 329 621 1864 326 621 1865 325 622 1866 333 622 1867 334 622 1868 334 623 1869 333 623 1870 39 623 1871 39 624 1872 40 624 1873 334 624 1874 323 625 1875 325 625 1876 334 625 1877 335 626 1878 39 626 1879 333 626 1880 335 627 1881 25 627 1882 39 627 1883 331 628 1884 335 628 1885 333 628 1886 331 629 1887 38 629 1888 335 629 1889 331 630 1890 46 630 1891 38 630 1892 330 631 1893 46 631 1894 331 631 1895 38 632 1896 23 632 1897 335 632 1898 325 633 1899 332 633 1900 333 633 1901 331 634 1902 332 634 1903 329 634 1904 327 635 1905 320 635 1906 318 635 1907 311 636 1908 316 636 1909 314 636 1910 311 637 1911 314 637 1912 312 637 1913 297 638 1914 301 638 1915 298 638 1916 302 639 1917 248 639 1918 303 639 1919 302 640 1920 250 640 1921 248 640 1922 297 641 1923 251 641 1924 250 641 1925 88 642 1926 292 642 1927 44 642 1928 58 643 1929 238 643 1930 239 643 1931 227 644 1932 228 644 1933 231 644 1934 227 645 1935 231 645 1936 226 645 1937 227 646 1938 113 646 1939 112 646 1940 213 647 1941 216 647 1942 211 647 1943 201 648 1944 120 648 1945 119 648 1946 99 649 1947 101 649 1948 121 649 1949 218 650 1950 97 650 1951 220 650 1952 220 651 1953 97 651 1954 94 651 1955 91 652 1956 84 652 1957 92 652 1958 85 653 1959 84 653 1960 89 653 1961 330 654 1962 87 654 1963 46 654 1964 47 655 1965 87 655 1966 330 655 1967 47 656 1968 86 656 1969 87 656 1970 48 657 1971 86 657 1972 47 657 1973 67 658 1974 83 658 1975 68 658 1976 60 659 1977 63 659 1978 57 659 1979 77 660 1980 78 660 1981 76 660 1982 67 661 1983 68 661 1984 66 661 1985 64 662 1986 67 662 1987 60 662 1988 66 663 1989 62 663 1990 63 663 1991 29 664 1992 27 664 1993 336 664 1994 339 665 1995 25 665 1996 24 665 1997 24 666 1998 340 666 1999 339 666 2000 24 667 2001 23 667 2002 340 667 2003 340 668 2004 23 668 2005 22 668 2006 341 669 2007 340 669 2008 22 669 2009 341 670 2010 11 670 2011 10 670 2012 12 671 2013 11 671 2014 341 671 2015 342 672 2016 10 672 2017 9 672 2018 341 673 2019 10 673 2020 342 673 2021 342 674 2022 9 674 2023 343 674 2024 340 675 2025 341 675 2026 342 675 2027 339 676 2028 340 676 2029 342 676 2030 344 677 2031 342 677 2032 343 677 2033 338 678 2034 342 678 2035 344 678 2036 339 679 2037 342 679 2038 338 679 2039 338 680 2040 344 680 2041 336 680 2042 336 681 2043 337 681 2044 338 681 2045 344 682 2046 343 682 2047 345 682 2048 336 683 2049 344 683 2050 29 683 2051 344 684 2052 346 684 2053 29 684 2054 28 685 2055 29 685 2056 346 685 2057 346 686 2058 30 686 2059 28 686 2060 344 687 2061 366 687 2062 346 687 2063 366 688 2064 15 688 2065 346 688 2066 366 689 2067 344 689 2068 345 689 2069 347 690 2070 368 690 2071 360 690 2072 347 691 2073 348 691 2074 368 691 2075 347 692 2076 349 692 2077 348 692 2078 347 693 2079 345 693 2080 349 693 2081 349 694 2082 350 694 2083 348 694 2084 345 695 2085 343 695 2086 349 695 2087 349 696 2088 351 696 2089 350 696 2090 349 697 2091 343 697 2092 351 697 2093 351 698 2094 375 698 2095 350 698 2096 351 699 2097 352 699 2098 375 699 2099 343 700 2100 352 700 2101 351 700 2102 352 701 2103 353 701 2104 375 701 2105 352 702 2106 372 702 2107 353 702 2108 352 703 2109 354 703 2110 372 703 2111 9 704 2112 354 704 2113 352 704 2114 9 705 2115 352 705 2116 343 705 2117 354 706 2118 373 706 2119 372 706 2120 354 707 2121 8 707 2122 373 707 2123 9 708 2124 8 708 2125 354 708 2126 357 709 2127 355 709 2128 363 709 2129 376 710 2130 359 710 2131 360 710 2132 376 711 2133 360 711 2134 368 711 2135 359 712 2136 361 712 2137 360 712 2138 359 713 2139 358 713 2140 361 713 2141 358 714 2142 362 714 2143 361 714 2144 358 715 2145 357 715 2146 362 715 2147 357 716 2148 363 716 2149 362 716 2150 363 717 2151 355 717 2152 356 717 2153 364 718 2154 361 718 2155 362 718 2156 365 719 2157 364 719 2158 362 719 2159 365 720 2160 362 720 2161 363 720 2162 365 721 2163 363 721 2164 356 721 2165 8 722 2166 365 722 2167 356 722 2168 365 4 2169 8 4 2170 367 4 2171 10 723 2172 367 723 2173 9 723 2174 367 724 2175 8 724 2176 9 724 2177 10 725 2178 11 725 2179 13 725 2180 10 726 2181 13 726 2182 366 726 2183 366 727 2184 13 727 2185 15 727 2186 364 728 2187 367 728 2188 347 728 2189 347 729 2190 367 729 2191 345 729 2192 366 730 2193 345 730 2194 367 730 2195 364 731 2196 347 731 2197 360 731 2198 364 732 2199 360 732 2200 361 732 2201 364 733 2202 365 733 2203 367 733 2204 10 734 2205 366 734 2206 367 734 2207 369 735 2208 376 735 2209 368 735 2210 369 736 2211 368 736 2212 348 736 2213 369 737 2214 350 737 2215 370 737 2216 371 738 2217 370 738 2218 353 738 2219 374 739 2220 372 739 2221 373 739 2222 374 740 2223 371 740 2224 372 740 2225 355 741 2226 373 741 2227 356 741 2228 355 742 2229 374 742 2230 373 742 2231 371 743 2232 353 743 2233 372 743 2234 353 744 2235 370 744 2236 375 744 2237 370 745 2238 350 745 2239 375 745 2240 369 746 2241 348 746 2242 350 746 2243 374 747 2244 355 747 2245 370 747 2246 374 748 2247 370 748 2248 371 748 2249 370 749 2250 359 749 2251 376 749 2252 370 750 2253 376 750 2254 369 750 2255 358 751 2256 359 751 2257 370 751 2258 355 752 2259 358 752 2260 370 752 2261 355 753 2262 357 753 2263 358 753 2264 338 754 2265 25 754 2266 339 754 2267 377 755 2268 378 755 2269 386 755 2270 380 756 2271 381 756 2272 378 756 2273 382 757 2274 383 757 2275 381 757 2276 384 758 2277 385 758 2278 383 758 2279 384 759 2280 386 759 2281 385 759 2282 382 760 2283 380 760 2284 377 760 2285 386 761 2286 378 761 2287 381 761 2288 389 762 2289 390 762 2290 387 762 2291 391 763 2292 392 763 2293 390 763 2294 393 764 2295 394 764 2296 392 764 2297 393 765 2298 387 765 2299 394 765 2300 391 766 2301 389 766 2302 388 766 2303 390 767 2304 394 767 2305 387 767 2306 396 768 2307 397 768 2308 395 768 2309 396 769 2310 398 769 2311 397 769 2312 399 770 2313 400 770 2314 398 770 2315 401 771 2316 402 771 2317 400 771 2318 403 772 2319 395 772 2320 402 772 2321 6 773 2322 0 773 2323 7 773 2324 0 774 2325 2 774 2326 1 774 2327 2 775 2328 4 775 2329 3 775 2330 4 776 2331 6 776 2332 5 776 2333 0 4 2334 6 4 2335 4 4 2336 7 777 2337 1 777 2338 3 777 2339 377 778 2340 379 778 2341 378 778 2342 379 779 2343 380 779 2344 378 779 2345 380 780 2346 382 780 2347 381 780 2348 382 781 2349 384 781 2350 383 781 2351 384 782 2352 377 782 2353 386 782 2354 380 783 2355 379 783 2356 377 783 2357 377 784 2358 384 784 2359 382 784 2360 383 785 2361 385 785 2362 381 785 2363 385 786 2364 386 786 2365 381 786 2366 388 787 2367 389 787 2368 387 787 2369 389 788 2370 391 788 2371 390 788 2372 391 789 2373 393 789 2374 392 789 2375 393 790 2376 388 790 2377 387 790 2378 388 791 2379 393 791 2380 391 791 2381 392 785 2382 394 785 2383 390 785 2384 403 792 2385 396 792 2386 395 792 2387 396 793 2388 399 793 2389 398 793 2390 399 794 2391 401 794 2392 400 794 2393 401 795 2394 403 795 2395 402 795 2396 396 796 2397 403 796 2398 401 796 2399 396 4 2400 401 4 2401 399 4 2402 395 785 2403 397 785 2404 402 785 2405 397 785 2406 398 785 2407 402 785 2408 400 785 2409 402 785 2410 398 785 2411</p>
        </triangles>
      </mesh>
    </geometry>
  </library_geometries>
  <library_visual_scenes>
    <visual_scene id="Scene" name="Scene">
      <node id="Cylinder_004" name="Cylinder.004" type="NODE">
        <matrix sid="transform">-3.7892e-11 8.56867e-4 0 -0.01370042 -8.66867e-4 -3.74548e-11 0 0.01075537 0 0 2.2e-4 0.04263143 0 0 0 1</matrix>
        <instance_geometry url="#Cylinder_003-mesh" name="Cylinder.004"/>
      </node>
    </visual_scene>
  </library_visual_scenes>
  <scene>
    <instance_visual_scene url="#Scene"/>
  </scene>
</COLLADA>