<?xml version="1.0" encoding="utf-8"?>
<COLLADA xmlns="http://www.collada.org/2005/11/COLLADASchema" version="1.4.1" xmlns:xsi="http://www.w3.org/2001/XMLSchema-instance">
  <asset>
    <contributor>
      <author>Blender User</author>
      <authoring_tool>Blender 3.0.1</authoring_tool>
    </contributor>
    <created>2025-12-17T21:08:52</created>
    <modified>2025-12-17T21:08:52</modified>
    <unit name="meter" meter="1"/>
    <up_axis>Z_UP</up_axis>
  </asset>
  <library_images/>
  <library_geometries>
    <geometry id="Caster_007-mesh" name="Caster.007">
      <mesh>
        <source id="Caster_007-mesh-positions">
          <float_array id="Caster_007-mesh-positions-array" count="1221">6.46497 6.122016 -6.377212 8.257736 4.157262 -6.173862 6.371253 11.20139 -6.334594 10.26239 5.176329 -6.340915 8.053471 10.30634 -4.698617 9.494132 6.925689 -4.823835 11.04496 9.658344 -4.656697 11.56252 9.063379 -5.856698 9.534402 7.642686 -5.964247 8.131957 10.30277 -5.873799 7.871969 10.73757 -6.739151 8.627163 13.63445 -5.964245 10.72337 15.78988 -5.872019 11.05687 16.17188 -6.739136 14.04603 16.35109 -5.973752 16.74302 15.02127 -5.87202 17.5546 14.52866 -6.794257 18.30905 12.0361 -5.908787 17.87219 9.058743 -5.872019 17.82694 8.5537 -6.739147 15.51323 6.65396 -5.96425 12.54998 6.142177 -5.873798 12.05612 6.029282 -6.739145 11.88263 5.154332 -7.560722 14.39668 17.30736 -7.512281 18.43029 14.58439 -7.492771 15.77465 5.709015 -7.479611 18.60311 8.100685 -7.564624 19.32308 11.41348 -7.536974 10.68649 16.97765 -7.557706 7.82412 14.2648 -7.512281 6.991192 10.63434 -7.557704 8.689322 7.0768 -7.509201 19.47472 4.943699 -7.613457 19.50339 3.602584 -6.862182 16.59345 2.237055 -7.172366 13.39996 2.294858 -7.642924 7.218665 4.346512 -7.524264 4.845799 8.110755 -7.620734 4.23755 11.85853 -7.618333 7.39492 18.35513 -7.574472 3.973505 15.02052 -6.844443 6.28719 18.48102 -6.671767 12.84568 20.29877 -7.586482 19.23765 18.06446 -7.586479 21.64746 14.44855 -7.578505 21.57249 5.988655 -6.843039 22.19309 9.135437 -7.527142 22.87031 13.68996 -6.863401 20.68125 17.8992 -6.671772 17.90881 19.98581 -6.845837 14.9601 21.00258 -6.851281 12.04405 21.38221 -6.112746 9.052963 20.20865 -6.82715 3.959311 15.64401 -5.85547 4.240594 6.967885 -6.806746 6.255628 4.075214 -6.671805 9.796673 1.898258 -6.844386 14.04522 1.083202 -6.080404 17.69158 2.17193 -5.878325 21.41348 5.121863 -5.872406 23.28071 9.628603 -5.931626 7.973006 20.05385 -5.866906 16.54296 20.93252 -5.855188 20.23274 18.55464 -5.856985 24.11012 14.69638 -5.856705 20.61049 19.9722 -5.85722 23.81322 15.46284 -13.00993 23.27656 18.84755 -9.877625 25.99959 11.05728 -17.149 25.61497 13.08012 -5.816035 23.98629 17.50198 -5.779777 22.00325 20.06977 -5.775615 21.31934 19.19942 -9.751129 18.69599 22.63488 -9.65669 15.51154 22.6222 -9.656422 14.79858 22.58456 -5.856913 12.39317 23.86547 -9.656687 10.07214 22.14555 -5.856929 8.268583 21.54047 -9.644414 7.025886 22.2081 -9.656696 6.492372 20.44235 -5.856828 4.849195 18.93016 -9.887705 3.372292 19.06705 -9.798669 5.686826 21.18172 -5.767457 3.751501 17.50681 -5.856579 2.055781 14.02689 -14.35908 0.9379128 14.27806 -14.12323 2.126801 13.84091 -5.856698 0.9179081 8.633112 -19.4263 2.414108 7.553588 -20.44032 2.156618 8.314952 -5.856702 4.348495 4.041239 -5.856705 3.698317 7.646897 -5.857247 3.018256 10.54669 -6.182186 22.00425 -5.483332 -5.856698 22.88817 -5.300834 -4.96771 4.40425 -5.483332 -5.856698 3.448911 -5.311832 -5.021315 22.05614 4.03255 -5.856699 9.165396 1.86367 -5.854843 5.659244 4.50706 -5.856944 4.40425 -3.02866 -22.906 4.378858 3.968236 -23.80862 3.084715 2.789304 -24.9161 3.109449 2.850921 -5.937119 3.204689 0.5416246 -25.2409 2.23869 -0.1525003 -26.7027 1.535313 -2.032973 -27.64703 1.482558 -5.650145 -27.87923 2.222886 -6.726219 -28.45568 1.924259 -4.263769 -28.91002 1.521543 -7.935238 -24.85918 1.535662 -6.724553 -21.82867 1.535864 -2.645569 -21.34619 1.504189 -0.6224215 -23.86379 1.959742 -0.1051713 -23.05563 3.194617 -0.3672413 -21.85547 2.408019 -2.076575 -20.59466 2.032124 -4.975308 -20.28991 2.229441 -7.510526 -21.52147 2.352841 -8.779808 -24.22459 2.241529 -8.389853 -26.43211 2.408078 -2.102478 -28.73242 3.203193 -1.893742 -29.00746 4.40425 -1.921964 -29.1974 4.40425 -3.482758 -26.64573 4.40425 -2.194405 -24.90473 4.40425 -5.10862 -29.64114 3.207695 -5.119287 -29.45986 4.40425 -8.098609 -28.01221 3.205922 -7.600589 -28.21376 22.00425 -4.418467 -26.86811 22.00425 -5.228804 -29.60493 22.00425 -8.098609 -28.01221 23.20425 -5.778876 -29.43578 23.24562 -5.005798 -28.25861 23.26388 -7.506749 -26.25283 24.12985 -2.957098 -27.54117 23.93738 -1.465287 -26.50191 23.31325 -0.6055699 -24.80661 23.90845 -1.181262 -23.0688 24.2102 -3.215285 -21.99953 23.90874 -3.773959 -21.24349 23.8888 -6.289067 -21.95956 24.09428 -7.393218 -23.81769 24.2311 -6.903304 -25.4966 23.98443 -5.90559 -23.57022 23.83769 -6.182315 -24.95952 23.79176 -4.469685 -22.74583 21.20427 -5.95415 -23.5088 21.2041 -2.551424 -23.48541 21.20425 -5.094937 -26.40132 21.20424 -2.981281 -26.03258 23.93349 -2.907303 -26.16382 23.77346 -2.503992 -23.66767 24.20684 -1.858171 -25.03316 23.60565 -4.565501 -26.54468 24.09594 -5.546302 -26.52578 24.08458 -6.110894 -27.29893 23.20218 -7.659619 -23.32704 23.2064 -5.119243 -21.08761 23.20688 -1.805696 -21.89914 23.20561 -1.78333 -27.39383 23.20425 -2.583273 -29.54655 22.00425 -2.026221 -29.27061 22.00425 -2.277726 -25.3225 22.03441 3.976165 -23.80117 23.2829 2.630615 -25.06522 23.29972 2.834808 -5.949514 22.56145 2.96406 -4.887342 20.41778 4.390802 -4.685674 24.59661 9.866431 -4.678386 24.33274 14.88973 -4.841992 21.38147 18.97801 -4.654884 17.42353 21.89706 -4.745736 12.59779 22.55851 -4.669523 7.570671 21.23738 -4.682096 4.099514 17.49541 -4.658894 2.102776 14.24429 -4.754679 2.007721 9.347833 -4.680328 1.24489 14.85119 -5.711077 3.070982 18.38987 -5.483831 0.7548496 10.99848 -5.745336 5.251846 5.303857 -4.704082 3.831297 3.054286 -4.89303 1.15595 7.978427 -5.940839 14.22722 1.415818 -4.788078 22.44663 8.683797 -4.910573 22.65648 13.1243 -4.882052 21.6275 10.32766 -6.381992 20.94314 17.25417 -4.917698 14.79114 20.80754 -4.90751 9.079262 19.99985 -4.906177 4.911584 16.21783 -4.907117 3.561155 10.80264 -4.908371 7.980555 3.098381 -4.892278 11.38809 2.91946 -6.359914 15.5363 2.91644 -6.215191 4.716922 10.64436 -6.347688 6.907367 17.13043 -6.350158 10.32966 19.21895 -6.392158 17.91932 18.26401 -6.415489 21.37153 13.55394 -6.375401 17.77536 4.098027 -6.424522 20.81186 7.2068 -6.254771 20.44127 16.04595 -6.175874 14.4711 19.8688 -6.236776 5.011387 13.53265 -6.344235 5.038463 8.192581 -6.07557 13.20319 4.511546 -6.315091 7.773387 7.33731 -6.175672 11.86565 5.747164 -4.783468 13.2982 8.57436 -4.656697 14.98581 9.089961 -5.856698 16.02969 10.68231 -4.656697 18.85436 12.43891 -4.829985 17.04627 16.00687 -5.191236 14.85386 16.71972 -4.77003 16.36914 17.23002 -6.352697 14.37051 13.68717 -4.656697 10.97226 13.09007 -4.656697 15.43624 13.09007 -5.856698 12.03799 13.68717 -5.856698 12.15283 16.83592 -4.788863 8.750466 14.6807 -4.787343 10.13609 16.42472 -5.145558 12.36401 17.91626 -6.16786 18.29663 15.51835 -6.178668 19.65758 13.19098 -6.328597 16.82658 6.091794 -5.648897 16.51569 5.220001 -6.369377 18.95675 7.704923 -6.31667 19.93753 10.58326 -6.367276 12.30987 18.47762 -6.439218 8.898229 16.46822 -6.32169 7.113479 14.20154 -6.317616 7.24018 12.02573 -5.126791 7.639331 8.969063 -5.087164 10.54662 11.68026 -5.856698 16.91012 7.524058 -4.683425 18.37961 8.301937 -5.023789 14.31078 5.300925 -5.172763 3.201616 -3.994863 -19.80309 3.19416 -7.860155 -21.5215 3.213279 -9.161327 -24.6972 4.40425 -9.29026 -24.83206 4.40425 -6.183842 -25.67843 22.00425 -6.304121 -24.90769 22.00425 -9.29026 -24.83206 23.20425 -8.633375 -27.40789 23.20425 -9.236869 -24.26203 22.00425 -5.016717 -22.60098 4.40425 -5.499943 -22.96473 22.00425 -2.576094 -23.4224 12.34734 23.70888 -5.767312 16.21777 23.26625 -5.545716 19.33411 22.03318 -5.57833 25.25845 8.064872 -5.812633 24.44431 8.763539 -19.30376 24.2755 8.389779 -5.85671 22.75905 14.89458 -5.85706 8.602243 22.8212 -5.754491 9.041599 -12.53361 -12.63817 6.771257 -13.24722 -14.01974 9.908415 -7.627503 -10.27916 15.80797 -7.256902 -9.974869 13.26867 -4.279711 -9.513763 17.06583 -2.939734 -10.04484 19.76985 -4.27972 -10.91329 19.76869 -7.624092 -14.52239 17.49801 2.548812 -11.77213 19.76869 -1.298885 -14.63282 19.76918 2.678946 -12.88165 19.76869 4.103944 -18.07952 14.76869 3.27232 -17.25779 14.76869 -2.154036 -14.37915 14.76869 -1.304798 -21.07689 21.06869 -1.499177 -21.02746 12.4498 3.576673 -11.66991 9.908158 0.7138168 -10.76606 9.896651 6.256111 -14.33876 6.768929 1.448732 -12.06147 12.29244 -0.1121543 -10.01234 6.813878 -4.257378 -10.86352 6.768683 -4.458607 -14.19852 6.768686 -9.275185 -15.41024 11.76868 -7.778437 -14.76386 11.76869 -5.530774 -20.32298 5.468687 -4.424442 -20.077 5.468689 -5.38191 -22.68491 11.76869 -1.499155 -21.02749 11.76868 -2.14578 -14.3394 6.768686 1.66177 -15.7987 11.76869 3.012148 -17.09912 6.770441 7.38002 -17.51734 15.87461 7.030802 -14.85997 19.76694 7.380019 -17.51734 16.57105 9.15871 -18.59467 19.76869 6.118055 -24.07646 14.76869 6.060184 -22.98157 5.468689 -2.057003 -25.15619 5.468689 -3.108612 -22.7781 5.468689 -0.7487041 -21.87677 6.768688 5.992122 -22.25181 11.76869 0.1167867 -24.26414 9.686655 8.475202 -17.34634 12.41287 9.966133 -19.52121 15.11859 10.55614 -22.57513 19.75681 9.384391 -23.52912 14.76869 5.588973 -27.92581 19.76869 4.975422 -29.64882 14.76869 0.1167862 -24.95255 14.76869 -1.193997 -27.83448 21.06869 0.202783 -25.71674 14.76869 2.538347 -32.64439 21.06869 -2.662507 -26.04106 21.06869 -3.028658 -28.89372 14.76869 -4.162501 -29.01675 14.76869 -4.062305 -35.14479 19.76869 -0.2813643 -34.35909 19.76404 4.096378 -35.38058 16.36483 6.066363 -35.26527 19.7634 8.070876 -30.41895 14.79511 9.336241 -30.92835 16.64003 10.17895 -27.51349 12.09526 10.64266 -26.75384 9.709828 9.445654 -30.06974 13.26869 7.128823 -34.4939 12.09534 3.133557 -37.73558 16.8666 1.007092 -38.30609 19.76933 -1.866202 -38.04847 19.76869 -7.331768 -34.69541 21.06869 -7.060271 -28.18921 21.06869 -5.002789 -26.75964 5.468691 -4.279716 -26.80956 5.468691 -7.550334 -27.74797 11.76869 -5.363381 -29.01059 11.76869 -0.9670636 -34.53741 11.76869 -5.874434 -34.89685 6.768692 -6.913074 -34.81274 6.799269 -2.672837 -38.29075 6.768692 0.8087469 -33.93674 9.040981 2.457439 -37.49318 6.805739 5.126965 -34.7018 6.768128 8.146802 -30.22408 9.042265 10.15878 -22.89188 6.768208 9.337935 -23.9045 11.76869 6.080586 -22.67751 5.468689 0.112955 -25.40461 21.06869 -2.231271 -23.63122 11.76869 -1.009104 -27.74797 5.468691 -2.708851 -28.95043 11.76869 4.67966 -30.32157 6.76869 5.400149 -28.59082 13.26867 -1.705583 -39.48291 16.96292 -5.120709 -39.30209 10.7178 -6.337791 -39.40221 14.83303 -10.0445 -38.50568 19.76742 -9.307423 -37.32801 14.76869 -10.7605 -32.91879 14.76869 -7.165666 -28.01436 5.468689 -6.460947 -25.23534 11.76869 -8.634015 -25.87097 11.76869 -10.48116 -33.04055 6.768848 -11.37298 -36.43519 10.2124 -11.79814 -37.40381 15.8909 -13.70749 -36.18616 19.76869 -12.52617 -31.05474 14.76869 -14.55155 -26.96492 14.76869 -8.825506 -23.79771 21.06869 -8.76222 -23.49997 19.76869 -14.80644 -25.11047 19.75697 -17.82769 -26.69888 14.95662 -18.54599 -29.2438 9.891034 -18.27419 -29.17151 13.03849 -16.51587 -33.48445 9.029972 -16.02768 -33.17105 19.72235 -15.70094 -32.33501 6.768128 -16.70626 -30.22404 6.76869 -13.2391 -30.32156 11.76869 -13.95958 -28.59083 6.781984 -17.88916 -25.05477 15.8233 -19.18562 -23.74415 11.56979 -19.37189 -24.40914 21.06869 -6.502478 -24.14985 21.06869 -5.530802 -20.32298 21.06869 -4.54325 -22.43796 14.76869 -5.786459 -20.40605 14.76869 -7.792031 -14.7256 14.76869 -13.47429 -19.28191 19.76349 -10.99935 -12.72508 19.76869 -13.11548 -18.99683 19.75509 -15.04628 -16.2778 19.76292 -17.40829 -20.79512 16.57543 -17.67266 -18.49101 12.35413 -15.20395 -14.08368 16.30145 -14.59735 -13.91608 10.78205 -18.05128 -18.80841 6.774457 -17.40829 -20.79514 6.768689 -14.67509 -23.38515 11.76869 -12.76231 -18.35458 6.768686 -12.88745 -18.75145 11.76869 -14.65307 -23.71942 11.76869 -8.038881 -22.30261 5.468689 -8.557631 -22.87031 14.11682 -10.56792 -10.85348</float_array>
          <technique_common>
            <accessor source="#Caster_007-mesh-positions-array" count="407" stride="3">
              <param name="X" type="float"/>
              <param name="Y" type="float"/>
              <param name="Z" type="float"/>
            </accessor>
          </technique_common>
        </source>
        <source id="Caster_007-mesh-normals">
          <float_array id="Caster_007-mesh-normals-array" count="2382">0.1506952 0.236842 0.95979 -0.01330476 -0.01505309 0.9997982 -0.01169997 -0.00860536 0.9998946 -0.1467786 -0.09376007 -0.9847158 -0.884848 -0.3066551 0.3507233 -0.3209186 -0.1712611 0.9314939 -0.02424311 -0.04731839 0.9985856 0.8837336 0.4669702 -0.03088319 0.9245383 -0.1469652 -0.3516111 0.7172052 -0.6961789 -0.03085279 0.145447 -0.924828 -0.3514802 -0.4432044 -0.8922312 0.08656579 -0.7827805 -0.404829 -0.4726186 -0.5486475 -0.4223794 -0.7215134 -0.9889361 0.1446991 -0.03267335 -0.6615992 0.6624667 -0.3513181 -0.1710239 0.9847831 -0.03087347 -0.08349698 0.6908809 -0.7181308 0.4254708 0.8338742 -0.3516083 0.3591287 0.7956238 -0.4878619 0.7909397 0.2899423 -0.5388393 0.6324715 0.2921187 -0.7173888 0.6825275 -0.1476351 -0.7157934 0.8672257 -0.09535294 -0.4886996 0.5198041 -0.6624609 -0.5393972 0.4731959 -0.5112885 -0.7174049 0.0705018 -0.6947466 -0.715791 0.176694 -0.8535011 -0.4902195 -0.4841098 -0.6894154 -0.538836 -0.4424741 -0.6598024 -0.6073529 -0.8627502 -0.2366862 -0.4468131 -0.7779019 0.2456097 -0.5783982 -0.676643 0.153066 -0.7202257 -0.4612298 0.5199088 -0.7190007 -0.6469851 0.5918925 -0.480701 0.01555341 0.03697741 -0.999195 -0.001690447 0.01499962 -0.9998862 -0.1664858 0.1623216 -0.9725915 0.3049482 -0.4604789 -0.8336461 0.1339542 -0.2966859 -0.9455336 -0.03497171 -0.04762798 -0.9982528 -0.5498136 0.4040827 -0.731042 -0.004623949 -0.01014161 -0.9999379 0.01304996 0.01212549 -0.9998413 -0.0144301 0.01148134 -0.99983 0.4893698 -0.4182227 -0.7652497 0.4486858 -0.2734555 -0.8508251 0.5252651 0.04572725 -0.8497091 0.5294981 0.3511795 -0.7722077 0.6266812 0.3574377 -0.6924659 0.4809621 0.5845342 -0.6534488 0.1558601 0.4472917 -0.8807031 0.156732 0.4483824 -0.8799934 -0.05138438 0.791094 -0.6095327 -0.1811609 0.5028271 -0.8451898 -0.1453661 0.7577531 -0.6361438 -0.4377374 0.6443811 -0.6270239 -0.720059 0.6559607 0.2263419 -0.7715002 0.5331478 -0.3471902 -0.378552 0.1900932 -0.9058493 -0.7950078 0.08075451 -0.6011999 -0.7036876 -0.1137564 -0.701344 -0.7081785 -0.1204707 -0.6956796 -0.5375824 -0.4088807 -0.7374427 -0.4818094 -0.3245776 -0.8139466 -0.4141719 -0.6209335 -0.6655097 -0.1538057 -0.4114339 -0.8983686 -0.04519158 -0.7983872 -0.6004462 0.07901686 -0.7717067 -0.6310509 0.4238876 -0.8123074 -0.4005945 0.9063012 -0.3779829 -0.1890691 0.8324519 -0.2694326 -0.4841797 0.8316525 -0.04297828 -0.5536307 0.7930759 0.4319975 -0.4294285 -0.3147809 0.9268491 -0.2046062 -0.4945187 0.7525681 -0.4348479 0.1044577 0.9898492 -0.09637051 0.2976486 0.8609945 -0.4124246 0.5408238 0.8392456 -0.05636179 0.5876936 0.757043 -0.2854859 0.8229825 0.5680531 -0.003943562 2.75123e-4 8.50797e-5 -1 -1.93664e-4 -1.13704e-4 -1 -0.833076 -0.5526099 -0.02463382 -0.03069537 0.6762666 -0.7360172 0.9338708 0.3561866 -0.03188234 0.9371226 0.3455669 -0.04883474 0.7899123 0.6099267 0.06346714 0.6359601 0.7710446 -0.03232699 -0.06899935 -0.0252735 -0.9972965 0.5935885 0.8043551 0.02579843 -1.92516e-4 0.02733159 -0.9996265 -0.505207 -0.8594122 0.07859128 -0.4084697 -0.9087445 -0.08565062 -9.94017e-4 -0.002093195 -0.9999973 0.3674859 0.9266493 0.07921636 0.1111912 0.9929411 0.04128593 0.1915067 0.9808602 -0.03519421 -8.29342e-5 -4.20125e-4 -1 0.09248328 -0.9956862 0.007488965 0.147289 -0.9852368 0.08726036 0.003607094 -0.01167863 -0.9999253 -0.001182436 -0.003180146 -0.9999943 0.4288547 -0.9013643 -0.06021773 0.6035958 -0.7955664 0.05240297 0.02101707 0.02073287 -0.9995641 -0.04547482 0.1515983 -0.9873956 -0.6511905 0.7585341 -0.02402424 -0.725658 0.6856955 0.05694085 0.7302832 -0.6818585 -0.04189878 0.01711839 0.6683743 -0.7436282 0.8494773 -0.525641 0.04571717 -0.005377233 0.6716974 -0.7408062 0.9141115 -0.4051274 -0.01649737 6.69168e-5 0.6846917 -0.7288328 6.42853e-5 0.6846922 -0.7288324 0.9990499 0.04072868 0.015513 0.9999516 0.005395531 -0.00823456 7.64043e-5 0.6847012 -0.728824 0.8897689 0.4563393 -0.008114099 -4.54832e-4 -2.32465e-4 -0.9999999 -0.9068948 -0.2506394 -0.3387059 -0.9731477 0.1881586 -0.1325895 -0.0757972 0.07771033 -0.9940905 0.001129806 -4.68954e-4 -0.9999993 4.88205e-4 -5.40697e-4 -0.9999998 -0.006043553 0.002907216 -0.9999776 -0.0539447 -0.1236823 -0.9908546 -0.3491048 -0.00188297 -0.9370818 0.2884988 -0.9122734 -0.2907335 0.04809176 0.02427202 -0.998548 -2.98137e-7 -0.9795723 0.2010928 0 -0.9795708 0.2011001 0 -0.03404772 -0.9994203 0.004966318 -2.71782e-5 -0.9999877 -0.1626336 -0.9770025 -0.1379008 -0.6019082 -0.7983753 -0.01741808 -0.5031388 -0.7907705 -0.3486164 -0.8434835 -0.5267913 -0.1050063 -0.7823446 -0.5578998 -0.2769203 -1.20988e-4 -1.72381e-4 -1 0.9999912 0.003845155 0.001675724 0.9999825 0.005853772 8.42796e-4 -0.9344758 -0.3560189 0.002373635 -0.998566 -0.053514 0.001475095 -0.9352842 0.03623968 -0.3520372 -0.7691894 -0.2049548 -0.6052613 -0.8528041 -0.4216917 -0.3080608 -0.8805595 -0.3700447 -0.2961115 -0.9362409 -0.04122656 0.3489317 -0.8952435 0.341759 0.2859017 -0.9999423 -0.003744244 0.01007479 -0.9999774 -0.003180027 0.005929052 -0.9999328 -0.001313388 0.01152509 -0.9997822 0.0154798 -0.0139966 -0.8946014 0.4162502 -0.1625554 -0.6983737 0.7129845 -0.06266802 -0.5301558 0.846333 -0.05153238 -0.7325186 0.4599356 0.5018723 -0.7031421 0.1639221 0.6918965 -0.6872255 -0.3599993 0.6309689 -0.7755221 -0.5850148 0.2373254 -0.7724183 -0.5877305 0.2407135 -0.6725116 -0.7338697 -0.09572619 -0.1763414 -0.4416504 -0.8796867 -0.5023549 -0.215425 -0.8373958 -0.7533738 0.2195809 -0.6198485 -0.6484898 0.5211816 -0.554825 0.21333 0.8203857 -0.5305259 -0.9975307 -0.05879622 0.03841239 -0.1033161 0.6529257 -0.7503426 1 3.17638e-7 0 0.9999917 0.004074275 2.58582e-4 0.01641482 0.6749524 -0.7376787 1 0 0 -0.1516167 0.1363245 -0.9789934 -0.1495687 0.1371288 -0.9791961 -0.1277148 -0.4744867 -0.8709486 -0.03618103 -0.4484696 -0.8930655 0.02542418 -0.7204836 -0.6930059 -1 4.17144e-7 0 0.9995684 -0.01701503 -0.02395224 0.1507147 -0.5725337 -0.8059096 0.9992746 -0.01912063 -0.03293633 0.7137682 -0.06381529 -0.6974688 0.9700841 0.210005 -0.1217979 0.8765377 0.4802454 -0.03234571 0.7619832 0.645888 -0.04701375 0.978416 0.1890316 0.08348202 0.7012413 0.4104569 0.5829115 0.9468486 -0.09500485 0.3073301 0.9806529 -0.1003518 0.1680763 0.9935812 0.05713045 0.09763473 0.7903841 0.579426 -0.1988934 0.927879 0.1268536 -0.3506407 0.03847074 0.5014076 -0.8643556 0.2332999 0.9321501 0.2768892 1 5.17205e-5 5.41628e-6 -0.1088246 0.6879155 0.7175859 1 -8.76046e-6 5.66221e-5 0.03470885 -0.9854629 0.1663073 0.9432358 -0.1337769 -0.3039903 0.07317805 -0.910345 -0.4073294 0.9221961 -0.3680902 0.1185922 0.9088051 -0.3916851 0.1437231 0.05301791 -0.2334825 0.9709146 0.9953401 0.07032078 -0.06597763 0.9899677 -0.003358602 0.1412546 -0.3323949 -0.1482124 0.9314219 0.8467994 0.4293615 0.3139737 0.9968122 0.05674529 -0.05608445 0.06875813 -0.6238625 -0.7785037 0.6752199 -0.6534438 -0.3421832 0.6156297 -0.7685623 -0.1741036 0.9153862 0.2971565 0.2715992 0.2631434 -0.9637158 -0.04480379 0.4844599 -0.727484 0.4858659 -0.172033 -0.6512566 0.7391005 0.5990252 -0.2236486 0.7688629 -0.2335005 0.2313357 0.9444372 0.6479763 0.4385086 0.6227656 -0.1954327 0.9090263 0.3680723 0.1142817 0.9023691 -0.4155356 0.5592038 0.5212467 -0.6446651 0.1751407 0.2572113 -0.9503516 0.9994096 -0.001190066 -0.03433978 0.1240262 -0.03437471 -0.9916834 -1 -8.98211e-7 0 -0.1776407 0.1021759 -0.9787767 -1 8.62995e-7 0 -0.9999887 0.004747867 3.02472e-4 -0.0223509 0.6734234 -0.7389191 0.1264352 0.6454941 -0.7532274 0.9986536 -0.0482034 0.01917165 0.998121 -0.06015002 0.01169031 0.9999563 0.009301483 -9.78965e-4 0.9999844 -0.001466095 -0.005393743 0.0616098 -0.04834568 0.9969288 0.1161528 0.03842604 0.9924879 0.02457934 0.06437677 0.997623 -0.4588969 0.2567809 0.8505747 -0.3771588 0.3551663 0.8553411 -0.6227902 0.274329 0.7327182 -0.736383 0.024562 0.6761189 -0.5924627 0.06821984 0.8027043 -0.05434072 -0.04945093 0.9972972 -0.7424567 -0.1410017 0.6548867 -0.6799966 -0.220663 0.6992228 -0.7601404 -0.2891793 0.5818608 -0.1164091 -0.009908199 0.993152 -0.003339469 -0.02930319 0.999565 0.05865192 0.1566949 -0.985904 -0.002739071 -0.03026407 0.9995383 -0.002276778 -0.02966845 0.9995573 -0.180098 0.1361482 0.9741809 -0.1066384 -0.001346826 0.994297 -0.8549545 0.03707963 0.5173761 -0.765312 -0.06202709 0.6406639 -0.7627639 -0.3115519 0.5666806 -0.2579598 -0.0935049 0.9616203 -0.2331391 -0.08836257 0.9684206 -0.07447081 -0.1317663 0.9884795 -0.1115399 -0.2697184 0.9564574 0.01641488 -0.1144436 0.9932941 0.03379881 -0.1380307 0.9898511 0.07738709 -0.08552521 0.9933261 0.1264221 -0.1111605 0.9857286 0.2138782 -0.05356246 0.9753909 0.1925639 -0.05201613 0.9799049 0.08646297 0.0635218 0.994228 0.5245194 0.5971748 0.6068457 0.3140642 0.6974342 0.6441656 0.2288666 0.8759825 0.4245878 -0.02439004 0.7000211 0.7137057 -0.03371065 0.2359358 0.9711838 -0.0148366 -0.1421 0.9897411 -0.2358782 -0.1647346 0.9577181 -0.1317695 0.07473254 0.9884594 -0.3841792 0.8073487 0.447878 -0.5209692 0.4699491 0.7125581 -0.5125537 -0.50799 0.692268 -0.3128525 -0.7387141 0.5970134 -0.4598852 -0.7973269 0.3908651 0.1114518 -0.8380047 0.53416 0.3948658 -0.6336543 0.6652543 0.7729671 -0.07955753 0.6294384 0.8609344 -0.2148051 0.4611406 0.4130411 0.1537949 0.8976325 0.6623744 0.3606805 0.6566351 0.5267603 0.547909 0.649861 0.7774863 0.1691908 0.605714 0.8475619 0.277405 0.4524217 0.6481767 -0.3404589 0.6811422 0.6102375 -0.6725688 0.4186425 0.1166872 -0.8242827 0.5540237 -0.7320871 -0.3213785 0.6006367 -0.7294814 0.2170919 0.6486355 -0.7689144 0.3899302 0.5066806 0.02167981 -0.02478319 0.9994578 -0.6114243 -0.4732737 0.6341707 -0.03693073 -0.04011338 0.9985125 -0.01732987 -0.03602278 0.9992008 0.4195901 0.8721867 -0.2514652 -0.007162272 0.9223705 0.3862403 -4.56553e-5 0.005838274 -0.999983 -0.03672504 0.03614044 -0.9986717 -0.004837512 0.04306191 -0.9990607 -0.8079831 0.09098285 0.5821388 -0.005301594 5.96959e-4 -0.9999858 0.6592446 0.398629 0.6375669 0.2535617 0.2237766 0.9410795 0.3508292 0.7396145 0.57436 -0.005324423 0.03819274 0.9992563 -0.00655812 0.03732472 0.9992817 0.1640257 -0.9335115 -0.3188291 -0.1640257 -0.9335117 0.3188286 -0.006812334 -0.03877109 -0.999225 -0.02656298 -0.02388894 -0.9993618 -0.02733051 0.04384958 0.9986643 -0.2597683 0.7790839 0.5705687 -0.2345542 0.3709145 0.8985581 -0.6594982 0.5202531 0.5425855 -0.5567939 0.5670472 0.6069909 0.6199902 -0.6192659 0.4817903 0.01326352 -0.03422558 0.9993262 0.01080924 0.01389592 0.999845 0.008500218 -0.001368343 0.9999629 0.285668 0.227024 -0.93105 -0.001810371 0.06331974 0.9979918 -0.007374703 -0.08295941 0.9965257 0.1166813 0.4413426 0.8897203 -0.2102868 0.4089712 0.8879877 0.02790451 0.01108533 0.9995492 -0.004923522 0.02816981 0.9995911 -0.7769032 -0.09337842 0.6226571 -0.01407623 -2.98189e-4 0.9999009 0.9347266 0.01980143 -0.3548158 0.9099396 0.3532487 0.2173143 0.005797564 0.00225073 -0.9999808 0.02130562 0.04519218 -0.9987512 0.0246402 -0.03078877 -0.9992222 0.03187233 -0.02368485 -0.9992113 0.03132253 0.01230132 -0.9994336 0.7410658 -0.5506991 0.3841252 -0.3392564 0.07307857 0.9378511 -0.5664396 -0.06331562 0.8216674 -0.855871 0.2090626 0.4730516 -0.6958456 0.3132009 0.6463004 -0.03970134 0.02658587 0.9988579 -0.005058407 -0.008483231 0.9999513 -0.015841 0.00999391 0.9998247 -0.01178997 -0.002741873 0.9999268 -0.007779359 -4.02468e-4 0.9999697 -0.01085662 0.01034528 0.9998876 0.02365684 0.02522391 0.9994019 0.0297566 -0.01163041 0.9994896 0.02206647 0.02467978 0.9994519 0.07897162 -0.05562782 0.9953237 0.1962571 -0.8853363 0.4215008 0.09263116 -0.3161323 0.9441821 -0.00491029 -0.04231089 0.9990925 0.00537467 -0.006964325 0.9999613 -0.5422554 0.7026574 -0.4606863 0.2626187 -0.07520258 0.9619647 0.8254317 -0.27257 0.4943361 0.4437804 -0.5185516 0.7308648 0.3177449 -0.5426592 0.777534 0.3357236 -0.6683177 0.6638081 0.6091113 -0.5807669 0.5400865 -0.05012166 -0.7982641 0.6002187 -0.1942135 -0.8394239 0.5075911 -0.3567451 -0.6965482 0.622538 -0.5502917 -0.6717439 0.4959227 0.7406105 -0.1159954 0.6618469 0.8598557 0.08484143 0.5034385 0.719884 0.3836975 0.5783972 0.5889206 0.7036063 0.3976315 0.1710759 0.8780725 0.4469025 0.02943927 0.7846581 0.6192294 -0.3662036 0.8322655 0.4162083 0.02533388 -0.02507168 -0.9993647 -0.0168547 0.003472506 -0.999852 0.04424756 0.02736383 0.9986459 0.05242776 0.02894848 0.9982051 -0.7712663 -0.4258666 -0.4730605 0.05667668 0.007350683 0.9983656 -0.02149885 -0.009191334 -0.9997267 0.03952234 0.01920777 -0.9990341 -0.01203989 -0.01442217 0.9998236 0.01936042 -0.0501852 0.9985523 -0.387489 0.7899575 0.4752047 -0.07484698 0.01659297 0.997057 -0.8248445 0.02904307 0.5646131 -0.008194208 -0.9813424 0.1920934 -0.9960862 -0.08373141 0.02831047 -0.9991102 -0.04007494 0.01314437 -0.9998539 -0.005298137 0.01625525 -0.4866898 0.1535242 0.8599787 -0.4506487 0.654868 0.6066826 0.307834 0.4689565 0.8278394 -0.9999803 -0.004447579 -0.004450976 -0.999978 -0.005045473 -0.004329979 -0.3181605 -0.8779273 0.3577958 -0.1702705 -0.8949263 0.4124498 -0.4708049 -0.6836168 -0.5576835 -0.001390755 -0.914022 -0.4056623 -0.461378 -0.877371 -0.1317225 -1 0 0 -0.2339197 -0.9104372 -0.3411536 0.9973558 -0.07057404 0.0173462 0.9999993 0.001184523 2.26628e-4 0.1320263 -0.973495 -0.186753 -1 1.09217e-6 0 0.01390081 -0.8731237 0.4873008 -0.01732587 -0.9695349 0.24434 -1 -8.40723e-7 0 -0.02000576 -0.02375704 0.9995176 -0.9999852 0.00545299 1.51944e-4 -0.9999963 8.83305e-4 0.002621769 0.01960241 0.318921 0.9475786 -0.9999884 0.004671037 0.001196265 0.9999914 0.003835499 0.001600921 -0.01242709 0.9227679 0.3851556 -0.999989 0.004644274 7.29296e-4 0.008358776 0.98786 0.1551219 -0.04975628 -0.9792484 0.1964614 0.001248359 -0.9798151 0.1999022 0.9996871 -0.01560026 0.01955938 0.9999193 0.007425069 -0.0103107 1 0 0 -0.1397265 -0.9272307 -0.3474475 -0.2976897 -0.8728132 -0.3867533 -0.08357465 -0.9770326 0.1960169 -0.03983563 -0.4058511 0.9130707 -0.1599306 -0.4413706 0.8829576 -0.991141 -0.1323527 0.01106995 -0.9997334 0.01759439 -0.01495742 -0.9916602 0.1258873 0.02761101 -0.888868 0.4580583 0.009817063 -0.89208 0.451874 0.001767754 -0.4452036 0.4930707 0.7474458 -0.3828449 0.6758169 0.6298423 -0.1751409 0.6594849 0.7310304 -0.1436689 0.6173064 0.7734935 0.03824198 0.6942215 0.7187448 0.08979159 0.560205 0.8234731 0.2644276 0.6494278 0.7129667 0.3252086 0.4665508 0.8225386 0.4327623 0.5138886 0.7406993 0.5308374 0.3478362 0.7728013 0.5507909 0.4241986 0.7188081 0.8048216 0.2922004 0.5166054 0.6552755 0.05894809 0.7530864 0.7653363 -0.3015121 0.5686396 0.655303 -0.2151363 0.7240817 0.8195233 -0.0578705 0.5701164 -6.46629e-5 0.6847028 -0.7288224 -0.9923593 -0.1200879 0.02832126 -0.9995684 -0.02621072 -0.01327651 0.9557095 -0.2939238 -0.01510435 -3.23546e-5 0.6846953 -0.7288295 0.9964082 -0.07080155 0.04645329 0.9364492 -0.350791 0.002923369 0 0.6846891 -0.7288354 -0.8930882 0.4498814 -3.32107e-4 -0.8910689 0.453866 0.001429259 0.01311147 -0.006681025 -0.9998918 0.03883665 -0.02921563 -0.9988185 0.688256 -0.5934805 -0.4172344 0.6211371 -0.7836904 0.004259347 0.008869707 -0.0091843 -0.9999185 0.9950851 0.09869104 -0.008115887 0.002375125 0.01439362 -0.9998936 0.07761567 0.002036094 -0.9969813 -0.489452 0.8698908 0.06104797 -0.2303639 0.9724222 0.03643673 -0.294903 0.9550269 -0.03091901 0.08960705 -0.006142497 0.9959583 0.8223726 0.02698272 0.5683094 0.9997451 -0.0213629 0.007308304 0.9990047 0.005835831 -0.04422271 -0.01031368 0.8037959 -0.5948157 0.02087265 0.5852441 -0.8105885 0.9998854 0.01397675 -0.005824089 0.09625262 -0.1710593 0.980548 0.02965146 -0.9864622 0.1612857 -0.05627346 -0.4243468 -0.9037495 0.2793269 0.006613492 -0.9601734 -0.02140027 0.9809406 -0.1931257 -0.02783018 0.4948943 -0.8685075 -0.09871387 -0.482896 -0.870096 -0.02980703 -0.3369981 -0.9410334 1 0 0 -0.3543276 0.1293994 -0.9261252 -0.3058877 0.1457856 -0.9408397 -0.395469 0.6456323 -0.6532712 -0.04684203 0.9647762 0.2588682 -0.9377173 -0.3473991 -3.12973e-4 -3.03756e-5 0.6846935 -0.7288312 0.8767706 0.4809087 -4.72705e-4 3.87159e-4 1.61635e-6 -1 6.84662e-5 -7.04918e-4 -0.9999998 -0.04179328 0.02733606 -0.9987523 -0.004396855 0.009181618 -0.9999482 -0.02422505 0.2608456 -0.9650766 -0.0912885 0.09634023 -0.9911534 0.06361782 0.06613415 -0.9957807 -5.06655e-4 -3.04721e-5 -1 0.07601016 0.6837117 -0.7257829 -0.8506472 -0.5232568 -0.05100595 -0.07932305 -0.008438408 -0.9968133 -0.008013963 -0.007545769 -0.9999395 -0.01152992 -0.0242424 -0.9996397 -0.01058375 -0.03027939 -0.9994856 0.005603849 -0.02189284 -0.9997447 0.0109893 0.01409 -0.9998404 -0.001326858 -0.01534169 -0.9998815 0.03712624 -0.0112971 -0.9992467 0.02501887 0.006767213 -0.9996641 0.02403014 0.004540205 -0.999701 0.02907335 2.49432e-4 -0.9995774 0.04950916 0.07661825 -0.9958305 0.001722335 0.02964824 -0.999559 0.3514042 0.602895 -0.7162631 -0.03331065 0.8454793 -0.5329684 -0.07977902 -0.5492566 0.8318368 -0.1598765 -0.4046807 0.9003738 -0.03900212 -0.1853421 0.9818998 0.1478172 -0.02704477 0.9886449 0.2758727 -0.06483566 0.9590051 0.4045496 0.2453962 0.8809769 0.4137504 0.2478318 0.8760081 1 1.14352e-5 -3.0186e-4 1 -7.21069e-5 -1.12961e-4 -0.04904055 -0.5371769 -0.8420428 0.0353105 -0.4683415 -0.8828417 1 2.25058e-7 0 0.1007091 0.4042089 0.9091056 -0.1423966 0.4107414 0.9005635 -0.259467 0.5461238 0.7965086 -0.237233 0.4776787 0.8458981 0.1741225 0.2831068 0.9431501 0.08895462 0.1388335 0.9863125 -0.2039647 0.06904941 0.9765401 -0.4728419 -0.2898964 0.832094 -0.9999685 0.002042949 0.007684469 -0.9998995 -0.003461778 0.01375907 0.05226576 0.2436366 -0.9684574 -1 -1.06625e-6 -2.43302e-6 -0.06992614 0.5831245 -0.8093678 0.06852942 0.1717329 0.9827571 -1 -2.87812e-7 -1.59548e-6 -1 0 -1.93131e-6 0.0893864 -0.2519353 -0.9636072 -1 1.76917e-5 6.5949e-5 -0.33589 0.1909908 0.9223343 -1 1.39937e-6 -1.44672e-6 -0.1013863 -0.4693307 -0.8771828 -1 3.32084e-4 8.38787e-5 -0.4506657 0.6044112 0.6569533 -0.02688103 0.6924769 0.7209391 0.1372192 0.5951937 0.79178 0.2782265 0.8113211 0.5141479 0.9999988 7.80365e-4 -0.001424252 0.3885608 0.8743156 0.2908487 0.9999935 0.003444015 0.001156508 -0.05864524 -0.9463317 -0.317832 0.07733374 -0.8963373 -0.4365764 1 2.07064e-7 0 0.02631688 0.9396756 0.3410529 0.02930551 -0.9141767 -0.4042555 -1 -2.90758e-7 0 0.07908987 -0.8277658 -0.5554716 -0.02552378 -0.8759094 -0.4818003 -1 0 0 -1 3.4183e-5 3.60153e-4 -0.4295468 0.8633484 0.2648006 -0.3501875 0.8841999 0.3091268 -0.3165029 0.7526158 0.5774042 -0.2555462 0.9164502 0.3079208 0.1198506 0.9496007 0.2896451 0.2818527 0.9327917 0.2246305 0.9999927 0.003767251 -7.72391e-4 -0.05092102 -0.9783462 0.2006136 0.0322808 -0.9949704 0.09482592 0.9999981 0.001858592 6.02796e-4 0.08374971 -0.8368288 0.5410208 1 0 0 -0.06252217 0.9084887 -0.4132062 1 -4.73583e-7 0 0.08397138 0.6985971 -0.7105708 -0.04839253 0.3695707 -0.9279416 0.9999993 8.419e-4 -9.39764e-4 -0.1200532 -0.6625058 0.7393736 0.3958984 0.7167265 -0.5740798 0.9999985 0.001451253 -0.001033127 0.2605344 0.8138847 -0.5193396 0.2647523 0.893199 -0.3634582 0.05364966 0.9623486 -0.2664714 -0.03331673 0.9474833 -0.3180654 -0.06664699 0.860875 -0.504433 0.1389992 0.8142615 -0.563611 0.02073478 0.6262537 -0.7793436 0.1309427 0.5202225 -0.8439329 0.271158 0.5154643 -0.8128777 0.4368419 0.3677116 -0.8209492 0.9999995 0.001001179 -2.56503e-4 0.1200526 -0.3516836 0.928389 1 -8.15985e-6 1.77341e-4 -0.1200547 -0.04730325 0.9916397 0.05015385 -0.1719213 -0.9838331 -1 2.25026e-7 0 -0.1101584 -0.2395775 -0.9646075 -1 -2.99037e-7 0 0.03193569 -0.07301193 0.9968197 -0.9999698 8.76065e-4 -0.007722973 0.07908564 -0.1123676 0.9905146 -1 5.15217e-7 0 -0.9999055 0.006424129 -0.01215893 -0.5357434 0.3533227 -0.7669042 -0.1981558 0.6242492 -0.7556768 -0.1779031 0.6509969 -0.7379387 -0.2223327 0.7787246 -0.5866484 -0.3185402 0.7846447 -0.5318506 -0.3042582 0.9447248 -0.1221558 -0.2888219 0.9496787 -0.1212125 -0.04350203 0.970524 0.237046 0.04630869 0.8937307 0.4462072 -0.02820467 -0.9839717 0.1760804 1 1.34052e-7 0 0.02894318 0.9384432 0.3442193 0.05500668 0.9501023 -0.3070505 -1 0 -6.1625e-7 -0.09186768 0.7791562 -0.6200612 0.1154389 -0.7535407 0.6471865 -0.9999758 -0.003711223 -0.005896568 -0.9999519 0.007445633 -0.00639522 -1 3.5187e-7 0 -0.07908916 -0.9805365 0.1797029 -1 -3.35856e-7 0 0.02552425 -0.9953435 0.09295058 -1 -1.77167e-4 4.60896e-5 -1 -1.37544e-4 1.25237e-5 -0.1154379 -0.5942559 0.7959485 0.1075491 0.276886 -0.9548651 0.02234011 -0.5966875 0.8021628 -0.01666146 -0.2934837 0.9558189 -1 -7.779e-7 -5.09157e-7 -0.1060559 0.9895958 0.09722322 -0.03785818 0.9947845 0.09471309 0.09359329 0.9944947 -0.04712402 0.2452242 0.9694653 0.001503467 -0.3904965 0.904676 -0.1705107 0.04340881 0.3485955 -0.9362676 0.1955689 0.1603291 -0.9674955 0.2426632 0.1593523 -0.9569334 0.0510044 -0.1809286 -0.9821729 0.02174735 -0.02938526 -0.9993317 -0.1934223 0.08949303 -0.9770255 -0.2104476 0.239315 -0.9478609 -0.1423348 0.3054513 -0.9415096 -0.2925735 -0.3046534 -0.9064145 -0.09674674 -0.3341681 -0.9375349 0.2609755 -0.2631216 -0.9287943 1 -2.832e-4 -2.70648e-4 0.4862965 -0.08433169 -0.8697149 0.1200531 0.3130883 0.9421057 -0.02102679 -0.3165376 -0.948347 1 2.08418e-7 0 0.02452319 0.5850414 0.8106327 -1 2.65074e-7 -9.39148e-7 0.09537529 -0.6893534 -0.7181195 -0.06191474 0.3730356 0.925749 0.1231565 0.5744894 0.8091938 -1 -2.2918e-5 -3.28415e-5 -0.4261862 -0.1872704 -0.8850396 -0.999979 0.002191185 -0.006119668 -0.2804088 -0.6386977 -0.7165446 -0.1391373 -0.6807912 -0.7191413 -0.0609216 -0.6591728 -0.7495197 0.001416385 -0.534698 -0.8450421 0.2705165 -0.4580674 -0.8467557 1 -2.2156e-4 -3.1668e-4 -0.1020749 0.5709508 0.8146141 0.9999074 -0.01202487 -0.006372332 0.09717559 0.8395265 0.5345581 1 1.90753e-7 0 0.0054003 -0.9304897 -0.3662783 0.02555799 -0.9396942 -0.3410595 -0.08493453 0.9302863 0.3568664 0.9999941 -0.003228306 -0.001238405 0.3116646 -0.8883726 -0.3371342 -0.05469143 -0.9100307 -0.4109174 -0.1427143 -0.8757538 -0.4611812 0.1975818 -0.7764068 -0.5984597 0.4248232 -0.559052 -0.7120296 0.9998936 -0.01051688 -0.01010966 -0.2899292 -0.8597289 -0.4204846 -0.5277037 -0.64442 -0.5534003 -1 1.63008e-4 2.38822e-5 -0.09916388 0.7839627 0.612837 -1 -9.72564e-7 -5.09789e-7 -0.1075744 -0.9736521 -0.2010709 -1 -2.74151e-7 0 0.005062401 0.9900059 0.1409354 0.07075554 0.9767819 0.2022153 -0.9999963 2.39069e-4 0.002735197 -0.9999927 -0.003734946 -7.73413e-4 -0.3830834 -0.9006617 -0.2050747 -0.2786723 -0.952688 -0.121356 -0.055359 -0.97705 -0.2056906 0.06291371 -0.9901508 -0.1250737 0.9999938 -0.003479063 -7.6081e-4 0.1014577 0.9852026 -0.1381385 1 -3.76005e-7 0 0.01904362 -0.7009492 0.712957 -0.02404981 -0.7445454 0.6671385 1 1.64441e-6 0 -0.02344548 0.6577931 -0.7528338 1 -2.61536e-6 0 1 -2.43561e-7 0 0.01801615 -0.04095107 -0.9989987 -1 1.58476e-7 -7.20526e-7 -1 2.52283e-7 -5.95364e-7 -0.02279698 -0.4585192 -0.8883922 1 5.53383e-7 0 -0.06852781 0.4387172 0.8960084 -0.002418041 0.1721307 0.9850713 -0.01904439 0.14801 0.9888025 1 -5.18173e-7 0 1 0 0 0.03847658 0.06128865 -0.9973782 0.0106948 0.6255375 -0.7801209 0.9999989 -9.31518e-4 0.001142919 -0.001129567 0.6316704 -0.7752363 0.9999898 -0.003985643 0.002173423 0.3933054 -0.6070219 0.6905327 0.9999917 -0.002650797 0.003120839 0.9999988 -0.001520335 4.20464e-4 0.3692086 -0.9270367 0.06548315 0.2479445 -0.9397968 0.2351714 0.02833563 -0.8602883 0.5090199 0.1026829 -0.822676 0.5591608 -0.246416 -0.9504662 0.1894554 0.006596207 -0.9730805 0.2303712 -0.3071963 -0.9457002 0.1062157 -0.9999932 -0.00341922 -0.001381099 0.005217552 0.9329654 -0.3599281 -0.02636665 0.9428122 -0.3322801 -0.9999987 -0.001545906 5.95772e-4 -1 0 3.8456e-7 0.06624972 -0.9842087 0.1641468 0.04123812 0.6784493 -0.7334889 -0.9999998 -4.69167e-4 5.07683e-4 -0.01971238 -0.6194373 0.7847986 -1 0 2.48475e-7 -1 0 -7.47387e-7 -0.06583744 -0.558727 0.8267343 -0.9999989 -0.001471579 4.31484e-4 -0.3682633 -0.7923214 0.4864249 -0.2680479 -0.7831224 0.5611326 0.2370138 -0.5031529 0.8310605 0.3908128 -0.2399708 0.8886392 0.9999992 -0.001145243 7.41027e-4 0.2663105 -0.3719854 0.8892164 0.05552959 -0.584922 0.8091866 -0.03499305 -0.2395912 0.970243 0.2719331 -0.7910271 0.5480224 -0.2247632 -0.6645724 0.7126185 0.02955144 0.9205638 -0.389473 0.04804962 -0.9616376 0.2700822 0.3784213 -0.8199995 0.4294161 -0.05388736 0.9624128 -0.2661915 -0.04768562 -0.01743525 -0.9987103 1 -2.03084e-6 0 -0.03234356 0.8665877 0.4979756 1 6.02928e-7 0 0.2222184 -0.9638339 -0.147117 0.1882517 -0.8499681 -0.4920525 1 5.94844e-7 0 0.4394846 0.8824356 -0.1678119 0.05569654 0.8630127 0.5021026 -0.02342301 0.8380263 0.5451269 -0.05201244 0.8018467 0.5952618 -1 3.84343e-4 2.57558e-4 0.3896194 0.6467459 0.6556801 0.9999999 5.27176e-4 5.1228e-5 0.3180548 0.6132973 0.7229852 -0.06273049 0.07499563 -0.9952088 -0.4106568 -0.3351665 0.8479531 -0.9998918 -0.004969 0.01384991 -0.2542203 0.1394763 0.9570363 -0.2047081 -0.01827669 0.9786525 1 -5.91996e-6 -3.15162e-4</float_array>
          <technique_common>
            <accessor source="#Caster_007-mesh-normals-array" count="794" stride="3">
              <param name="X" type="float"/>
              <param name="Y" type="float"/>
              <param name="Z" type="float"/>
            </accessor>
          </technique_common>
        </source>
        <vertices id="Caster_007-mesh-vertices">
          <input semantic="POSITION" source="#Caster_007-mesh-positions"/>
        </vertices>
        <triangles count="818">
          <input semantic="VERTEX" source="#Caster_007-mesh-vertices" offset="0"/>
          <input semantic="NORMAL" source="#Caster_007-mesh-normals" offset="1"/>
          <p>197 0 0 0 1 0 197 1 3 1 0 1 3 2 2 2 0 2 3 3 211 3 2 3 211 4 238 4 2 4 238 5 5 5 4 5 5 6 6 6 4 6 10 7 9 7 8 7 11 8 9 8 10 8 13 9 12 9 11 9 14 10 12 10 13 10 16 11 15 11 14 11 16 12 17 12 15 12 17 13 16 13 25 13 19 14 18 14 17 14 20 15 18 15 19 15 22 16 21 16 20 16 22 17 26 17 23 17 8 18 21 18 22 18 8 19 22 19 32 19 10 20 8 20 32 20 10 21 32 21 31 21 30 22 10 22 31 22 11 23 10 23 30 23 13 24 11 24 30 24 13 25 30 25 29 25 24 26 13 26 29 26 14 27 13 27 24 27 16 28 14 28 24 28 16 29 24 29 25 29 25 30 28 30 17 30 19 31 17 31 28 31 19 32 28 32 27 32 26 33 19 33 27 33 20 34 19 34 26 34 26 35 36 35 23 35 27 36 33 36 36 36 27 37 36 37 26 37 35 38 33 38 34 38 36 39 33 39 35 39 37 40 38 40 36 40 40 41 41 41 42 41 45 42 47 42 28 42 47 43 33 43 28 43 28 44 33 44 27 44 33 45 46 45 34 45 33 46 47 46 46 46 45 47 48 47 47 47 45 48 44 48 49 48 45 49 49 49 48 49 44 50 50 50 49 50 44 51 51 51 50 51 44 52 43 52 51 52 51 53 43 53 52 53 43 54 40 54 53 54 43 55 53 55 52 55 40 56 42 56 53 56 42 57 54 57 62 57 42 58 41 58 54 58 40 59 39 59 41 59 41 60 39 60 94 60 39 61 38 61 94 61 38 62 55 62 94 62 55 63 37 63 56 63 38 64 37 64 55 64 37 65 57 65 56 65 37 66 36 66 57 66 57 67 36 67 58 67 36 68 35 68 58 68 35 69 34 69 59 69 46 70 61 70 60 70 46 71 47 71 61 71 47 72 48 72 61 72 48 73 49 73 261 73 52 74 53 74 62 74 53 75 42 75 62 75 51 76 52 76 63 76 50 77 51 77 63 77 50 78 63 78 64 78 49 79 50 79 64 79 49 80 64 80 261 80 66 81 65 81 261 81 66 82 261 82 64 82 66 83 67 83 65 83 68 84 69 84 67 84 68 85 70 85 69 85 71 86 70 86 68 86 72 87 71 87 68 87 74 88 72 88 68 88 74 89 68 89 73 89 257 90 72 90 74 90 74 91 73 91 75 91 75 92 73 92 66 92 75 93 66 93 76 93 66 94 63 94 76 94 256 95 257 95 74 95 255 96 256 96 77 96 77 97 256 97 74 97 77 98 74 98 75 98 75 99 76 99 78 99 79 100 75 100 78 100 77 101 79 101 80 101 77 102 75 102 79 102 79 103 78 103 81 103 82 104 79 104 81 104 80 105 79 105 83 105 79 106 82 106 83 106 83 107 84 107 80 107 182 108 84 108 83 108 82 109 81 109 85 109 82 110 86 110 83 110 86 111 82 111 85 111 83 112 86 112 87 112 86 113 85 113 88 113 87 114 86 114 89 114 86 115 90 115 89 115 90 116 86 116 91 116 86 117 88 117 91 117 90 118 104 118 89 118 92 119 90 119 91 119 93 120 92 120 91 120 55 121 93 121 94 121 41 122 94 122 54 122 54 123 94 123 88 123 54 124 88 124 85 124 81 125 54 125 85 125 62 126 54 126 81 126 94 127 93 127 91 127 94 128 91 128 88 128 35 129 59 129 58 129 59 130 95 130 58 130 98 131 95 131 96 131 97 132 95 132 98 132 95 133 97 133 58 133 99 134 95 134 59 134 57 135 58 135 100 135 56 136 100 136 101 136 56 137 57 137 100 137 55 138 101 138 93 138 55 139 56 139 101 139 93 140 101 140 92 140 102 141 103 141 92 141 102 142 92 142 97 142 105 143 186 143 104 143 106 144 105 144 104 144 109 145 108 145 111 145 109 146 111 146 110 146 112 147 109 147 110 147 112 148 110 148 122 148 114 149 113 149 119 149 115 150 114 150 116 150 115 151 109 151 112 151 115 152 112 152 113 152 115 153 113 153 114 153 108 154 109 154 115 154 108 155 115 155 107 155 107 156 115 156 116 156 107 157 116 157 106 157 116 158 114 158 118 158 114 159 119 159 118 159 113 160 120 160 119 160 113 161 112 161 121 161 113 162 121 162 120 162 112 163 122 163 121 163 110 164 129 164 131 164 110 165 111 165 129 165 111 166 108 166 123 166 108 167 107 167 123 167 107 168 106 168 124 168 106 169 104 169 124 169 104 170 125 170 124 170 125 171 127 171 126 171 125 172 103 172 127 172 103 173 125 173 104 173 128 174 125 174 126 174 125 175 128 175 124 175 128 176 129 176 124 176 130 174 128 174 247 174 128 177 130 177 129 177 130 178 131 178 129 178 247 179 132 179 248 179 133 180 134 180 132 180 135 181 136 181 250 181 135 182 250 182 134 182 136 183 137 183 250 183 138 184 159 184 136 184 139 185 156 185 138 185 141 186 156 186 139 186 141 187 139 187 140 187 141 188 142 188 156 188 143 189 142 189 141 189 144 190 142 190 143 190 144 191 145 191 142 191 146 192 147 192 145 192 148 193 147 193 146 193 145 194 147 194 142 194 142 195 147 195 149 195 150 196 148 196 152 196 152 197 151 197 150 197 148 198 157 198 152 198 152 199 153 199 151 199 153 200 154 200 151 200 142 201 149 201 155 201 142 202 155 202 156 202 156 203 155 203 154 203 138 204 156 204 154 204 157 205 154 205 153 205 159 206 154 206 158 206 138 207 154 207 159 207 154 208 157 208 158 208 158 209 157 209 148 209 159 210 158 210 146 210 159 211 137 211 136 211 159 212 146 212 137 212 146 213 145 213 137 213 146 214 158 214 148 214 137 215 145 215 160 215 145 216 144 216 160 216 144 217 161 217 160 217 144 218 143 218 161 218 143 219 162 219 161 219 143 220 141 220 162 220 141 221 140 221 162 221 140 222 139 222 163 222 139 223 138 223 163 223 138 224 136 224 163 224 164 225 136 225 135 225 164 226 135 226 133 226 165 227 133 227 132 227 164 228 133 228 165 228 165 229 132 229 166 229 167 230 165 230 166 230 168 231 165 231 167 231 168 232 164 232 165 232 169 233 96 233 161 233 140 234 169 234 162 234 168 235 169 235 140 235 162 236 169 236 161 236 170 237 172 237 171 237 173 238 174 238 172 238 175 239 176 239 174 239 179 240 178 240 182 240 178 241 177 241 182 241 179 242 182 242 181 242 180 243 179 243 181 243 180 244 181 244 183 244 185 245 184 245 180 245 180 246 183 246 186 246 180 247 186 247 185 247 186 248 105 248 185 248 184 249 185 249 98 249 98 250 187 250 184 250 196 251 184 251 187 251 98 252 96 252 187 252 96 253 171 253 187 253 188 254 171 254 172 254 188 255 172 255 189 255 188 256 189 256 190 256 203 257 190 257 189 257 191 258 203 258 189 258 189 259 172 259 174 259 191 260 189 260 174 260 192 261 191 261 174 261 192 262 174 262 176 262 193 263 192 263 176 263 193 264 176 264 177 264 194 265 193 265 177 265 194 266 177 266 178 266 195 267 194 267 178 267 195 268 178 268 180 268 195 269 180 269 184 269 196 270 1 270 184 270 196 271 197 271 1 271 187 272 197 272 196 272 187 273 198 273 197 273 204 274 197 274 198 274 202 275 207 275 201 275 202 276 203 276 206 276 204 277 205 277 190 277 171 278 204 278 198 278 171 279 205 279 204 279 191 280 202 280 206 280 192 281 207 281 202 281 192 282 202 282 191 282 193 283 201 283 207 283 193 284 200 284 201 284 195 285 199 285 208 285 195 286 208 286 194 286 0 287 199 287 209 287 184 288 0 288 209 288 184 289 1 289 0 289 195 290 209 290 199 290 184 291 209 291 195 291 194 292 208 292 200 292 194 293 200 293 193 293 193 294 207 294 192 294 191 295 206 295 203 295 188 296 190 296 205 296 188 297 205 297 171 297 204 298 231 298 210 298 211 299 5 299 238 299 212 300 6 300 5 300 212 301 213 301 6 301 6 302 213 302 7 302 7 303 213 303 214 303 214 304 21 304 7 304 214 305 20 305 21 305 18 306 20 306 214 306 214 307 215 307 222 307 18 308 214 308 222 308 217 309 216 309 228 309 216 310 217 310 218 310 219 311 218 311 217 311 220 312 218 312 224 312 220 313 224 313 221 313 220 314 221 314 223 314 222 315 220 315 223 315 14 316 222 316 223 316 14 317 223 317 12 317 221 318 224 318 225 318 227 319 226 319 224 319 226 320 225 320 224 320 236 321 225 321 235 321 235 322 225 322 226 322 232 323 230 323 231 323 204 324 232 324 231 324 190 325 233 325 232 325 190 326 203 326 233 326 228 327 229 327 219 327 219 328 202 328 234 328 202 329 201 329 234 329 227 330 219 330 234 330 235 331 227 331 234 331 234 332 201 332 235 332 235 333 201 333 200 333 2 334 238 334 237 334 6 335 221 335 4 335 221 336 6 336 239 336 239 337 6 337 7 337 239 338 7 338 9 338 7 339 8 339 9 339 239 340 9 340 11 340 223 341 239 341 11 341 12 342 223 342 11 342 223 343 221 343 239 343 4 344 225 344 237 344 4 345 237 345 238 345 2 346 237 346 236 346 237 347 225 347 236 347 4 348 221 348 225 348 0 349 2 349 199 349 236 350 200 350 208 350 2 351 236 351 208 351 2 352 208 352 199 352 236 353 235 353 200 353 229 354 202 354 219 354 233 355 203 355 229 355 203 356 202 356 229 356 204 357 190 357 232 357 231 358 242 358 210 358 212 359 242 359 240 359 240 360 213 360 212 360 240 361 215 361 213 361 213 362 215 362 214 362 241 363 216 363 240 363 233 364 241 364 232 364 241 365 240 365 230 365 230 366 240 366 242 366 230 367 242 367 231 367 232 368 241 368 230 368 210 369 242 369 212 369 210 370 212 370 3 370 3 371 212 371 5 371 3 372 5 372 211 372 233 373 216 373 241 373 233 374 229 374 216 374 228 375 216 375 229 375 219 376 217 376 228 376 227 377 218 377 219 377 227 378 224 378 218 378 235 379 226 379 227 379 15 380 222 380 14 380 15 381 17 381 222 381 216 382 218 382 215 382 215 383 218 383 220 383 215 384 220 384 222 384 240 385 216 385 215 385 17 386 18 386 222 386 7 387 21 387 8 387 210 388 3 388 197 388 204 389 210 389 197 389 171 390 198 390 187 390 180 391 178 391 179 391 185 392 105 392 98 392 97 393 98 393 245 393 98 394 244 394 245 394 98 395 105 395 243 395 98 396 243 396 244 396 118 397 119 397 243 397 116 398 118 398 117 398 118 399 243 399 117 399 105 400 117 400 243 400 105 401 106 401 117 401 120 402 245 402 244 402 120 403 121 403 245 403 122 404 110 404 131 404 122 405 131 405 245 405 121 406 122 406 245 406 248 407 134 407 249 407 250 408 249 408 134 408 160 409 250 409 137 409 160 410 251 410 250 410 250 411 251 411 249 411 248 412 249 412 252 412 253 413 248 413 252 413 253 414 247 414 248 414 246 174 247 174 253 174 252 415 249 415 95 415 246 174 253 174 97 174 253 174 102 174 97 174 102 416 253 416 252 416 252 417 95 417 99 417 254 418 252 418 99 418 102 419 252 419 254 419 167 420 254 420 99 420 127 421 103 421 102 421 127 422 102 422 254 422 167 423 166 423 254 423 127 424 254 424 166 424 251 425 95 425 249 425 251 426 96 426 95 426 161 427 96 427 251 427 161 428 251 428 160 428 130 429 247 429 246 429 130 430 246 430 245 430 130 431 245 431 131 431 246 432 97 432 245 432 119 433 244 433 243 433 119 434 120 434 244 434 186 435 183 435 89 435 183 436 87 436 89 436 183 437 181 437 87 437 181 438 182 438 83 438 181 439 83 439 87 439 182 440 177 440 84 440 177 441 262 441 84 441 177 442 176 442 255 442 177 443 255 443 262 443 176 444 256 444 255 444 176 445 175 445 256 445 175 446 257 446 256 446 175 447 174 447 257 447 257 448 174 448 72 448 174 449 173 449 71 449 174 450 71 450 72 450 173 451 70 451 71 451 173 452 172 452 70 452 258 453 170 453 169 453 172 454 170 454 258 454 172 455 258 455 70 455 67 456 69 456 259 456 67 457 259 457 65 457 259 458 260 458 65 458 258 459 168 459 69 459 69 460 168 460 259 460 70 461 258 461 69 461 258 462 169 462 168 462 259 463 168 463 167 463 259 464 167 464 99 464 260 465 259 465 99 465 260 466 99 466 60 466 260 467 60 467 61 467 34 468 46 468 60 468 34 469 60 469 59 469 99 470 59 470 60 470 48 471 261 471 61 471 65 472 61 472 261 472 65 473 260 473 61 473 84 474 262 474 80 474 262 475 255 475 77 475 80 476 262 476 77 476 96 477 170 477 171 477 96 478 169 478 170 478 168 479 163 479 164 479 168 480 140 480 163 480 126 481 127 481 166 481 126 482 166 482 132 482 163 483 136 483 164 483 152 484 157 484 153 484 154 485 155 485 151 485 155 486 149 486 151 486 151 487 149 487 150 487 147 488 148 488 150 488 149 489 147 489 150 489 135 490 134 490 133 490 132 407 134 407 248 407 247 491 126 491 132 491 128 492 126 492 247 492 129 493 123 493 124 493 111 494 123 494 129 494 123 495 107 495 124 495 116 496 117 496 106 496 186 497 89 497 104 497 90 498 103 498 104 498 103 499 90 499 92 499 100 500 97 500 92 500 100 501 92 501 101 501 58 502 97 502 100 502 78 503 62 503 81 503 76 504 52 504 78 504 78 505 52 505 62 505 76 506 63 506 52 506 66 507 64 507 63 507 68 508 67 508 73 508 73 509 67 509 66 509 44 510 28 510 25 510 44 511 45 511 28 511 44 512 25 512 24 512 43 513 44 513 24 513 43 514 24 514 40 514 40 515 24 515 29 515 29 516 30 516 40 516 40 517 30 517 39 517 30 518 31 518 39 518 31 519 38 519 39 519 31 520 32 520 38 520 32 521 36 521 38 521 32 522 23 522 36 522 32 523 22 523 23 523 22 524 20 524 26 524 396 525 406 525 263 525 406 526 265 526 263 526 266 527 267 527 265 527 266 528 268 528 267 528 266 529 269 529 268 529 268 530 269 530 271 530 271 531 269 531 273 531 272 532 273 532 269 532 274 533 273 533 272 533 274 534 272 534 275 534 275 535 272 535 276 535 277 536 275 536 276 536 271 537 279 537 283 537 283 538 279 538 280 538 279 539 281 539 282 539 279 540 282 540 280 540 268 541 271 541 283 541 267 542 268 542 283 542 267 543 283 543 284 543 265 544 284 544 264 544 284 545 286 545 264 545 284 546 285 546 286 546 285 547 287 547 286 547 287 548 288 548 401 548 287 549 401 549 286 549 289 550 288 550 291 550 292 551 291 551 288 551 292 552 288 552 287 552 293 553 292 553 285 553 282 554 293 554 285 554 284 555 280 555 282 555 294 556 291 556 292 556 294 557 292 557 293 557 282 558 295 558 293 558 281 559 295 559 282 559 279 560 296 560 281 560 271 561 296 561 279 561 297 562 298 562 296 562 309 563 297 563 274 563 298 564 297 564 309 564 299 565 309 565 274 565 299 566 274 566 300 566 300 567 274 567 275 567 300 568 275 568 277 568 314 174 278 174 350 174 277 569 278 569 314 569 302 570 301 570 350 570 303 571 301 571 302 571 304 572 294 572 293 572 348 573 294 573 304 573 294 574 348 574 291 574 348 407 305 407 291 407 295 575 347 575 304 575 346 576 347 576 295 576 306 577 346 577 295 577 306 578 295 578 281 578 307 579 346 579 306 579 298 580 308 580 307 580 309 581 308 581 298 581 311 582 309 582 299 582 311 583 299 583 310 583 310 584 299 584 300 584 323 585 309 585 311 585 315 586 311 586 310 586 315 587 310 587 313 587 313 174 310 174 312 174 313 588 312 588 314 588 317 589 314 589 316 589 313 590 314 590 317 590 319 174 313 174 318 174 318 591 313 591 317 591 315 174 313 174 319 174 321 592 311 592 320 592 320 593 311 593 315 593 322 594 323 594 321 594 321 595 323 595 311 595 323 596 322 596 324 596 323 597 324 597 325 597 325 598 324 598 326 598 324 599 327 599 326 599 324 600 328 600 327 600 322 601 328 601 324 601 322 602 329 602 328 602 322 603 330 603 329 603 321 604 330 604 322 604 330 605 321 605 331 605 321 606 320 606 331 606 319 607 320 607 315 607 331 608 320 608 332 608 332 609 320 609 319 609 318 610 317 610 333 610 317 174 334 174 333 174 335 611 352 611 336 611 336 612 352 612 337 612 337 613 338 613 339 613 339 614 338 614 340 614 342 615 341 615 340 615 340 616 338 616 342 616 351 617 338 617 337 617 342 618 344 618 341 618 343 619 341 619 344 619 329 620 343 620 344 620 328 621 329 621 344 621 328 622 344 622 327 622 327 623 344 623 345 623 326 624 327 624 346 624 346 625 327 625 347 625 303 407 349 407 301 407 349 626 303 626 305 626 303 627 291 627 305 627 316 174 314 174 350 174 350 628 301 628 316 628 310 629 300 629 312 629 312 174 300 174 277 174 312 630 277 630 314 630 349 631 305 631 351 631 349 632 352 632 301 632 352 633 349 633 351 633 342 634 353 634 354 634 345 635 344 635 354 635 354 636 344 636 342 636 348 637 353 637 305 637 353 638 348 638 354 638 353 639 351 639 305 639 354 640 348 640 304 640 347 641 345 641 354 641 347 642 354 642 304 642 351 407 353 407 338 407 338 643 353 643 342 643 352 644 351 644 337 644 301 645 335 645 316 645 316 646 335 646 334 646 301 647 352 647 335 647 308 648 326 648 307 648 307 649 326 649 346 649 308 650 325 650 326 650 309 651 325 651 308 651 327 652 345 652 347 652 330 653 355 653 329 653 330 654 356 654 355 654 330 655 331 655 356 655 356 656 358 656 357 656 356 657 357 657 355 657 355 658 357 658 341 658 355 659 341 659 343 659 329 660 355 660 343 660 357 661 366 661 365 661 358 662 366 662 357 662 359 663 358 663 356 663 331 664 332 664 359 664 356 665 331 665 359 665 360 666 332 666 319 666 319 174 361 174 360 174 361 667 318 667 333 667 319 668 318 668 361 668 335 669 362 669 334 669 335 670 336 670 362 670 336 671 337 671 363 671 337 407 364 407 363 407 337 407 339 407 364 407 364 672 339 672 340 672 380 673 364 673 340 673 340 674 365 674 380 674 357 675 365 675 341 675 340 676 341 676 365 676 366 677 377 677 365 677 366 678 376 678 377 678 367 679 376 679 366 679 358 680 367 680 366 680 359 681 367 681 358 681 359 682 332 682 368 682 368 683 332 683 360 683 359 684 368 684 378 684 369 685 368 685 360 685 360 686 361 686 369 686 361 174 370 174 369 174 370 687 361 687 333 687 370 688 333 688 371 688 372 689 368 689 369 689 368 690 372 690 373 690 378 691 373 691 374 691 376 692 374 692 375 692 376 693 375 693 377 693 367 694 378 694 376 694 367 695 359 695 378 695 378 696 368 696 373 696 377 697 375 697 379 697 377 698 379 698 365 698 380 699 365 699 379 699 381 700 364 700 380 700 363 407 364 407 381 407 362 701 336 701 405 701 405 702 336 702 363 702 363 703 381 703 403 703 403 704 381 704 400 704 400 705 381 705 380 705 380 706 379 706 382 706 400 707 380 707 382 707 375 708 382 708 379 708 384 709 382 709 375 709 374 710 384 710 375 710 374 711 383 711 384 711 373 712 372 712 394 712 390 713 372 713 369 713 369 714 370 714 390 714 388 715 371 715 386 715 388 716 370 716 371 716 385 717 386 717 371 717 385 718 290 718 387 718 387 719 386 719 385 719 387 720 278 720 386 720 290 721 302 721 387 721 289 722 302 722 290 722 303 723 302 723 289 723 387 724 302 724 350 724 350 725 278 725 387 725 303 726 289 726 291 726 277 727 386 727 278 727 277 728 388 728 386 728 277 729 276 729 388 729 388 730 276 730 389 730 276 731 270 731 389 731 389 732 270 732 390 732 388 174 389 174 390 174 392 733 270 733 391 733 270 734 392 734 390 734 392 735 391 735 393 735 397 736 393 736 391 736 392 737 393 737 394 737 372 738 392 738 394 738 373 739 394 739 383 739 394 740 395 740 383 740 395 741 396 741 398 741 395 742 397 742 396 742 384 743 398 743 399 743 383 744 398 744 384 744 384 745 399 745 382 745 400 746 382 746 399 746 402 747 401 747 400 747 401 748 403 748 400 748 402 749 400 749 399 749 404 407 363 407 403 407 404 750 403 750 401 750 405 751 363 751 404 751 286 752 401 752 402 752 286 753 402 753 264 753 405 754 404 754 288 754 401 755 288 755 404 755 289 756 290 756 405 756 289 757 405 757 288 757 264 758 402 758 399 758 398 759 264 759 399 759 398 760 396 760 264 760 391 761 406 761 397 761 266 762 391 762 269 762 270 763 269 763 391 763 391 764 266 764 406 764 397 765 406 765 396 765 406 766 266 766 265 766 393 767 397 767 395 767 396 768 263 768 264 768 290 407 362 407 405 407 362 769 290 769 385 769 383 770 395 770 398 770 395 771 394 771 393 771 392 772 372 772 390 772 388 174 390 174 370 174 272 773 270 773 276 773 334 774 385 774 333 774 334 775 362 775 385 775 333 776 385 776 371 776 373 777 383 777 374 777 378 778 374 778 376 778 317 779 316 779 334 779 325 780 309 780 323 780 296 781 298 781 307 781 296 782 307 782 306 782 296 783 306 783 281 783 295 784 304 784 293 784 296 785 273 785 297 785 274 786 297 786 273 786 271 787 273 787 296 787 292 788 287 788 285 788 263 789 265 789 264 789 282 790 285 790 284 790 283 791 280 791 284 791 267 792 284 792 265 792 272 793 269 793 270 793</p>
        </triangles>
      </mesh>
    </geometry>
  </library_geometries>
  <library_visual_scenes>
    <visual_scene id="Scene" name="Scene">
      <node id="Caster_003" name="Caster.003" type="NODE">
        <matrix sid="transform">0.001 0 0 -0.01323076 0 0.001 0 -0.00195 0 0 0.001 0.0221 0 0 0 1</matrix>
        <instance_geometry url="#Caster_007-mesh" name="Caster.003"/>
      </node>
    </visual_scene>
  </library_visual_scenes>
  <scene>
    <instance_visual_scene url="#Scene"/>
  </scene>
</COLLADA>