<?xml version="1.0" encoding="utf-8"?>
<COLLADA xmlns="http://www.collada.org/2005/11/COLLADASchema" version="1.4.1" xmlns:xsi="http://www.w3.org/2001/XMLSchema-instance">
  <asset>
    <contributor>
      <author>Blender User</author>
      <authoring_tool>Blender 3.0.1</authoring_tool>
    </contributor>
    <created>2025-12-17T21:08:53</created>
    <modified>2025-12-17T21:08:53</modified>
    <unit name="meter" meter="1"/>
    <up_axis>Z_UP</up_axis>
  </asset>
  <library_images/>
  <library_geometries>
    <geometry id="power_bank-mesh" name="power_bank">
      <mesh>
        <source id="power_bank-mesh-positions">
          <float_array id="power_bank-mesh-positions-array" count="84">-88.76934 0.1855837 18.5 -6.986312 0.07976365 0 -7.006123 0.0840485 18.5 -94.83076 6.388143 18.5 -94.83744 6.369625 0 -92.72114 2.57704 18.5 -92.71298 2.584799 0 -88.88671 0.2170947 0 -94.90417 54.15244 18.5 -94.88241 54.26567 0 -87.85385 60.93112 18.5 -87.7457 60.9466 0 -90.52794 60.03568 0 -91.33609 59.61371 18.5 -93.26284 57.77776 0 -93.74073 57.00833 18.5 -0.07290768 53.94843 0 -0.09150171 54.05944 18.5 -1.371799 57.26293 0 -1.746172 57.85864 18.5 -4.097831 59.84468 0 -6.023876 60.77734 18.5 -7.146163 60.93112 0 -4.352389 1.046777 18.5 -3.199921 1.708577 0 -1.585841 3.372107 18.5 -0.2574731 5.905754 0 -0.07290709 7.051573 18.5</float_array>
          <technique_common>
            <accessor source="#power_bank-mesh-positions-array" count="28" stride="3">
              <param name="X" type="float"/>
              <param name="Y" type="float"/>
              <param name="Z" type="float"/>
            </accessor>
          </technique_common>
        </source>
        <source id="power_bank-mesh-normals">
          <float_array id="power_bank-mesh-normals-array" count="114">-0.001241803 -0.9999992 2.30284e-4 -0.001676797 -0.9999972 -0.001692652 -0.8749032 -0.4842973 8.00463e-4 -0.8720186 -0.4894723 -5.89718e-4 -0.5177342 -0.8555396 0.001827239 -0.5262042 -0.8503581 -5.88628e-4 -0.9999988 -0.001537263 3.62388e-4 -0.9999989 -9.39005e-4 -0.0011819 -0.3538382 0.9352883 0.005875468 -0.3111561 0.9503583 -0.001023232 -0.6366216 0.7711086 -0.01022136 -0.7348172 0.6782025 0.009225189 -0.9260995 0.3772773 0.001219809 -0.9080807 0.4187519 -0.006041049 0.001879215 0.999998 8.48287e-4 1.92149e-4 0.9999656 0.008300304 0.9168038 0.3992974 0.005695164 0.9310594 0.3648656 -0.001253426 0.6876005 0.7260276 -0.009463787 0.56353 0.8259201 0.01703161 0.3356937 0.9418878 -0.01253503 0.9999994 3.95563e-4 0.001002669 0.9999452 -0.003841459 -0.009738028 0.341034 -0.9400508 5.82916e-4 0.3951506 -0.9185794 -0.008244216 0.6433724 -0.7654482 0.0126968 0.8186653 -0.5739288 -0.01981854 0.9247725 -0.3802509 0.01432526 0 0 -1 -1.5235e-6 0 1 6.33443e-7 0 1 0 0 1 1.06579e-6 0 1 -1.08762e-6 0 1 5.09676e-7 0 1 -1.47444e-7 0 1 0 0 1 4.37931e-7 0 1</float_array>
          <technique_common>
            <accessor source="#power_bank-mesh-normals-array" count="38" stride="3">
              <param name="X" type="float"/>
              <param name="Y" type="float"/>
              <param name="Z" type="float"/>
            </accessor>
          </technique_common>
        </source>
        <vertices id="power_bank-mesh-vertices">
          <input semantic="POSITION" source="#power_bank-mesh-positions"/>
        </vertices>
        <triangles count="52">
          <input semantic="VERTEX" source="#power_bank-mesh-vertices" offset="0"/>
          <input semantic="NORMAL" source="#power_bank-mesh-normals" offset="1"/>
          <p>0 0 1 0 2 0 7 1 1 1 0 1 3 2 4 2 5 2 4 3 6 3 5 3 5 4 7 4 0 4 6 5 7 5 5 5 8 6 4 6 3 6 9 7 4 7 8 7 10 8 12 8 13 8 11 9 12 9 10 9 12 10 14 10 13 10 13 11 14 11 15 11 15 12 9 12 8 12 14 13 9 13 15 13 21 14 11 14 10 14 22 15 11 15 21 15 17 16 18 16 19 16 16 17 18 17 17 17 18 18 20 18 19 18 19 19 20 19 21 19 20 20 22 20 21 20 27 21 16 21 17 21 26 22 16 22 27 22 2 23 1 23 23 23 1 24 24 24 23 24 23 25 24 25 25 25 24 26 26 26 25 26 25 27 26 27 27 27 4 28 7 28 6 28 4 28 9 28 7 28 14 28 12 28 9 28 12 28 11 28 9 28 9 28 11 28 7 28 1 28 26 28 24 28 11 28 22 28 7 28 1 28 22 28 26 28 7 28 22 28 1 28 26 28 22 28 16 28 22 28 20 28 16 28 16 28 20 28 18 28 0 29 3 29 5 29 8 30 3 30 0 30 13 31 15 31 8 31 10 32 13 32 8 32 10 31 8 31 0 31 25 33 2 33 23 33 27 34 2 34 25 34 21 31 10 31 0 31 21 35 2 35 27 35 21 36 0 36 2 36 21 37 27 37 17 37 19 31 21 31 17 31</p>
        </triangles>
      </mesh>
    </geometry>
  </library_geometries>
  <library_visual_scenes>
    <visual_scene id="Scene" name="Scene">
      <node id="power_bank" name="power_bank" type="NODE">
        <matrix sid="transform">0.001 0 0 0 0 0.001 0 0 0 0 0.001 0 0 0 0 1</matrix>
        <instance_geometry url="#power_bank-mesh" name="power_bank"/>
      </node>
    </visual_scene>
  </library_visual_scenes>
  <scene>
    <instance_visual_scene url="#Scene"/>
  </scene>
</COLLADA>