<?xml version="1.0" encoding="utf-8"?>
<COLLADA xmlns="http://www.collada.org/2005/11/COLLADASchema" version="1.4.1" xmlns:xsi="http://www.w3.org/2001/XMLSchema-instance">
  <asset>
    <contributor>
      <author>Blender User</author>
      <authoring_tool>Blender 3.0.1</authoring_tool>
    </contributor>
    <created>2025-12-17T21:08:53</created>
    <modified>2025-12-17T21:08:53</modified>
    <unit name="meter" meter="1"/>
    <up_axis>Z_UP</up_axis>
  </asset>
  <library_images/>
  <library_geometries>
    <geometry id="RPi_cam_Rev_1_3-mesh" name="RPi cam Rev 1.3">
      <mesh>
        <source id="RPi_cam_Rev_1_3-mesh-positions">
          <float_array id="RPi_cam_Rev_1_3-mesh-positions-array" count="162">0.949515 0.4982555 2.7 0 0 3.7 3.267163 2.377393 2.68375 25.2 0 3.09394 22.19658 2.579131 3.034286 2.310339 0.6734941 3.7 8.600001 0.8000006 3.865518 22.67004 0.5799722 3.7 16.6 0.8000006 3.741379 0.8801547 1.867942 3.7 3.211209 2.872392 3.73 8.100001 4.775001 3.976923 16.1 5.800001 4.900001 0.8101728 1.866041 2.7 3.270641 13.51868 2.650944 22.87641 0.6315365 2.7 24.31091 2.139502 2.7 24.37656 1.954939 3.7 1.60024 12.93372 3.7 9.400002 9.300002 3.82 15.86667 8.133335 3.732433 0.8223202 13.42022 2.7 24.41065 13.85287 2.7 8.2 18.1 3.7 3.045809 14.90606 3.24 17 18.1 3.7 22.07645 13.38655 2.886487 25.2 24 3.252632 24.22244 13.61886 3.7 8.2 9.300002 6.9 17 9.300002 6.9 8.2 18.1 6.9 8.987203 14.77822 6.900001 11.47824 9.947091 6.900001 17 18.1 6.9 16.36176 12.92567 6.900001 13.72176 9.947092 8.7 13.01146 13.04002 8.474648 12.18694 14.21358 8.437932 9.334387 12.06709 8.7 16.2128 14.77821 8.7 2.55 17.6 2.554054 10.76905 17.34764 8.7 1.338422 14.95857 3.7 22.75463 15.26899 3.330435 22.65 17.6 2.565 13.37433 17.46176 6.900001 0 24 3.414286 1.95 22.6125 2.7 22.84 22.74546 2.515385 3 22.8 0.41 22.49286 22.71 0.1444444 4.599999 33.1 1.433333 20.6 33.1 1.366667</float_array>
          <technique_common>
            <accessor source="#RPi_cam_Rev_1_3-mesh-positions-array" count="54" stride="3">
              <param name="X" type="float"/>
              <param name="Y" type="float"/>
              <param name="Z" type="float"/>
            </accessor>
          </technique_common>
        </source>
        <source id="RPi_cam_Rev_1_3-mesh-normals">
          <float_array id="RPi_cam_Rev_1_3-mesh-normals-array" count="360">0.003165841 -0.5208402 -0.8536484 0.01884508 -0.03188437 -0.9993139 -0.001026153 0.1688185 -0.9856467 -0.01092416 -0.8908187 -0.4542279 -0.02812308 0.09647238 0.9949383 0.02179878 -0.4218673 0.9063956 0.01305383 -0.5404922 0.8412477 -0.02354484 -0.7695571 0.6381438 0 0 1 -0.02624857 -0.002884566 0.9996514 -0.03770542 -0.03273445 0.9987526 0.1787623 -0.2218683 0.9585503 0.01512008 -0.2242817 0.9744071 -0.1092662 -0.04157853 0.9931426 -0.705183 -0.07183998 -0.7053765 0.1324402 -0.1259873 -0.9831514 0.4517263 0.5408787 -0.7095023 -0.5095144 0.6334493 0.5823548 0.9924352 0.1011037 -0.06964462 -0.7198758 0.6848016 -0.1132505 0.01854616 -0.002949833 -0.9998236 0.0124278 -0.01353526 -0.9998313 -0.9007173 0.3720756 -0.2242057 -0.6169456 0.7657132 0.1818279 0.9340838 0.2903977 0.2077422 9.08854e-7 0 1 0.9950373 0.09950333 -7.22153e-7 0.121165 0.01332736 0.9925429 0.01804769 0.3197344 0.9473354 0.6719619 0.1455392 -0.7261443 0.2036609 -0.978963 -0.01239204 -0.2254295 -0.9606131 -0.1624926 0.3554909 -0.8373984 0.4151989 -0.01323968 8.61556e-4 0.9999121 -0.1592437 -0.01526957 -0.9871212 -0.3829082 -0.5313701 0.7556635 -0.07176554 0.0551545 0.9958955 -0.1231553 0.06971168 0.9899359 0.09373235 0.4530006 0.8865692 -0.006614923 6.95474e-6 -0.9999782 -0.7777438 8.17673e-4 -0.628581 -0.07314103 -0.03251379 -0.9967915 -0.09576958 0.01184916 0.995333 -0.02513474 0.01020383 0.9996321 -0.1127041 0.03887957 0.9928677 0.2494285 0.04282176 0.967446 0.06460374 0.08376288 0.9943894 0.1460837 -0.01339256 0.9891816 0.3724436 0.004921376 0.9280419 -0.3540239 -0.004677951 0.9352248 0.5844629 -0.005365073 0.8114027 -0.9237628 -0.1308757 -0.3599081 0.9479948 -0.108772 -0.2991231 -0.158313 -0.9068271 0.3906425 0 -1 1.40743e-7 -1 0 0 -1.10134e-6 0 1 0 -7.36896e-7 1 0 0 1 1 0 0 0 0 1 6.79195e-7 0 1 0.08719539 0.0922957 0.9919065 -0.3824594 -0.7915074 0.4766978 0.4367839 -0.7161282 -0.5444081 0.03580319 0.07409662 0.9966083 -0.7889384 -0.406795 -0.4605367 0.780354 -0.402368 0.4786936 -0.09717601 0.05010652 0.9940052 -0.01991474 -0.002937734 -0.9997974 0.5239194 0.005631804 -0.8517493 -0.1774349 0.9651307 0.1924573 -0.02671772 0.8905786 0.4540442 -0.5750718 0.2390036 -0.7824129 -0.8343976 0.2266957 0.502384 0.1146622 -0.0311523 0.9929161 -0.06312048 -0.01312571 0.9979196 0.8089902 0.1046042 -0.5784401 -0.8549774 -0.1105503 0.5067468 -0.04293441 -0.2146487 0.9757472 -0.04984062 -0.1055961 0.9931593 0.01427656 0.392733 -0.9195417 0.06151413 0.2080573 -0.9761804 -0.1805178 0.05930805 0.981782 -0.683325 -0.6718391 -0.2858307 0.1628823 0.04101735 -0.9857925 0.3399842 -0.1728076 -0.9244178 0.1952947 -0.5797381 0.7910524 -0.5434455 -0.2838095 -0.7900121 -0.03817093 -0.2531643 -0.96667 -0.01354217 0.02957916 0.9994707 0.2158632 -0.4714929 0.8550424 0.06018513 -0.007961988 0.9981555 5.17426e-4 -0.3119598 -0.9500952 0 0 1 0.7478869 0.4925508 -0.445038 -0.2039375 0.05015736 -0.9776982 -0.7146601 -0.008326411 -0.6994224 -0.353343 -0.01506078 -0.9353727 0.3080536 -0.02054649 -0.9511471 0 1.25374e-7 1 -0.4272465 0.6984729 -0.5741046 0.3537622 0.7495042 0.5595496 0 7.47114e-7 1 -0.9018403 -0.09568297 -0.421342 4.92156e-4 -0.428078 -0.9037417 -0.01435416 -0.3800865 -0.9248396 0.9888206 -0.03790313 -0.1442121 0 0.07560807 0.9971377 0.006404161 0.0572465 0.9983396 0 1 1.08372e-6 0 1 0 -0.00414592 0.0995028 -0.9950287 -0.01300388 0.114482 -0.9933403 0.9702688 0.1938164 -0.1449611 -0.005646049 0.9968562 0.0790317 -0.1053926 -0.08209043 0.9910367 0.004140794 0.111146 0.9937955 -0.01074725 0.4457015 -0.8951172 -0.00550121 0.5143177 -0.8575821</float_array>
          <technique_common>
            <accessor source="#RPi_cam_Rev_1_3-mesh-normals-array" count="120" stride="3">
              <param name="X" type="float"/>
              <param name="Y" type="float"/>
              <param name="Z" type="float"/>
            </accessor>
          </technique_common>
        </source>
        <vertices id="RPi_cam_Rev_1_3-mesh-vertices">
          <input semantic="POSITION" source="#RPi_cam_Rev_1_3-mesh-positions"/>
        </vertices>
        <triangles count="120">
          <input semantic="VERTEX" source="#RPi_cam_Rev_1_3-mesh-vertices" offset="0"/>
          <input semantic="NORMAL" source="#RPi_cam_Rev_1_3-mesh-normals" offset="1"/>
          <p>15 0 3 0 0 0 2 1 4 1 0 1 4 2 15 2 0 2 3 3 1 3 0 3 6 4 5 4 1 4 3 5 6 5 1 5 8 6 6 6 3 6 7 7 8 7 3 7 5 8 9 8 1 8 10 9 5 9 6 9 11 10 10 10 6 10 17 11 7 11 3 11 8 12 12 12 6 12 12 13 11 13 6 13 1 14 13 14 0 14 15 15 16 15 3 15 9 16 5 16 0 16 5 17 2 17 0 17 13 18 9 18 0 18 7 19 16 19 15 19 14 20 4 20 2 20 14 21 26 21 4 21 10 22 2 22 5 22 17 23 16 23 7 23 4 24 7 24 15 24 9 25 18 25 1 25 20 26 12 26 8 26 4 27 20 27 8 27 7 28 4 28 8 28 26 29 3 29 16 29 2 30 9 30 13 30 4 31 16 31 17 31 10 32 9 32 2 32 10 33 18 33 9 33 4 34 26 34 16 34 17 35 20 35 4 35 11 36 19 36 10 36 12 37 19 37 11 37 20 38 19 38 12 38 21 39 2 39 13 39 1 40 21 40 13 40 22 41 3 41 26 41 47 42 1 42 18 42 19 43 23 43 10 43 23 44 24 44 10 44 24 45 18 45 10 45 17 46 26 46 20 46 26 47 25 47 20 47 27 48 28 48 17 48 28 49 26 49 17 49 3 50 27 50 17 50 29 51 23 51 19 51 25 52 30 52 20 52 20 53 30 53 19 53 30 54 29 54 19 54 31 55 23 55 29 55 32 56 31 56 29 56 30 57 33 57 29 57 33 58 32 58 29 58 25 59 34 59 30 59 35 60 33 60 30 60 34 61 35 61 30 61 37 62 38 62 36 62 36 63 39 63 33 63 35 64 36 64 33 64 38 65 39 65 36 65 39 66 32 66 33 66 35 67 40 67 36 67 40 68 37 68 36 68 21 69 14 69 2 69 22 70 27 70 3 70 28 71 22 71 26 71 18 72 14 72 21 72 24 73 14 73 18 73 39 74 42 74 32 74 38 75 42 75 39 75 40 76 38 76 37 76 43 77 18 77 21 77 43 78 47 78 18 78 44 79 25 79 26 79 40 80 42 80 38 80 24 81 26 81 14 81 41 82 44 82 26 82 27 83 44 83 28 83 44 84 22 84 28 84 45 85 27 85 22 85 41 86 24 86 21 86 24 87 43 87 21 87 44 88 45 88 22 88 41 89 26 89 24 89 23 90 47 90 43 90 23 91 43 91 24 91 27 92 25 92 44 92 41 93 45 93 44 93 34 94 46 94 35 94 46 95 40 95 35 95 47 96 41 96 21 96 1 97 47 97 21 97 47 98 48 98 41 98 49 99 27 99 45 99 46 100 31 100 32 100 42 101 46 101 32 101 46 102 42 102 40 102 34 103 31 103 46 103 48 104 50 104 41 104 51 105 45 105 41 105 50 106 51 106 41 106 51 107 49 107 45 107 25 108 27 108 23 108 27 109 47 109 23 109 31 110 34 110 23 110 34 111 25 111 23 111 52 112 53 112 50 112 53 113 51 113 50 113 53 114 49 114 51 114 48 115 49 115 50 115 49 116 52 116 50 116 53 117 52 117 49 117 47 118 49 118 48 118 47 119 27 119 49 119</p>
        </triangles>
      </mesh>
    </geometry>
  </library_geometries>
  <library_visual_scenes>
    <visual_scene id="Scene" name="Scene">
      <node id="RPi_cam_Rev_1_3" name="RPi cam Rev 1.3" type="NODE">
        <matrix sid="transform">0.001 0 0 0 0 0.001 0 0 0 0 0.001 0 0 0 0 1</matrix>
        <instance_geometry url="#RPi_cam_Rev_1_3-mesh" name="RPi cam Rev 1.3"/>
      </node>
    </visual_scene>
  </library_visual_scenes>
  <scene>
    <instance_visual_scene url="#Scene"/>
  </scene>
</COLLADA>