<?xml version="1.0" encoding="utf-8"?>
<COLLADA xmlns="http://www.collada.org/2005/11/COLLADASchema" version="1.4.1" xmlns:xsi="http://www.w3.org/2001/XMLSchema-instance">
  <asset>
    <contributor>
      <author>Blender User</author>
      <authoring_tool>Blender 3.0.1</authoring_tool>
    </contributor>
    <created>2025-12-17T21:08:53</created>
    <modified>2025-12-17T21:08:53</modified>
    <unit name="meter" meter="1"/>
    <up_axis>Z_UP</up_axis>
  </asset>
  <library_effects>
    <effect id="slam_head_rpi3_simple_Simple_Chassis_Full-effect">
      <profile_COMMON>
        <technique sid="common">
          <lambert>
            <emission>
              <color sid="emission">0 0 0 1</color>
            </emission>
            <diffuse>
              <color sid="diffuse">0.8 0.8 0.8 1</color>
            </diffuse>
            <index_of_refraction>
              <float sid="ior">1.45</float>
            </index_of_refraction>
          </lambert>
        </technique>
      </profile_COMMON>
    </effect>
  </library_effects>
  <library_images/>
  <library_materials>
    <material id="slam_head_rpi3_simple_Simple_Chassis_Full-material" name="slam_head_rpi3_simple_Simple_Chassis_Full">
      <instance_effect url="#slam_head_rpi3_simple_Simple_Chassis_Full-effect"/>
    </material>
  </library_materials>
  <library_geometries>
    <geometry id="slam_head_rpi3_simple_Simple_Chassis_Full-mesh" name="slam_head_rpi3_simple_Simple_Chassis_Full">
      <mesh>
        <source id="slam_head_rpi3_simple_Simple_Chassis_Full-mesh-positions">
          <float_array id="slam_head_rpi3_simple_Simple_Chassis_Full-mesh-positions-array" count="594">-0.03185206 -0.06234854 0.01450526 -0.03172075 -0.06247985 0.01723802 -0.03233075 -0.01891386 0.01556801 -0.02820593 0.004800915 0.01450526 -0.03233075 0.00397551 0.01723802 -0.03172075 0.03306454 0.01450526 -0.03185206 0.03293329 0.01723802 -0.03080338 0.02632009 0.01723802 -0.03205102 0.02257525 0.03000795 -0.02932786 0.01715987 0.01723802 -0.02885448 0.01846116 0.01723802 -0.03016221 0.02430844 0.01723802 -0.02710407 0.01805156 0.03000795 -0.02714836 0.02575075 0.03000795 -0.02687299 0.009005904 -0.001297295 -0.02713215 -0.04914468 -0.001297295 -0.02845066 -0.05266475 0.01450526 -0.02677339 0.005485534 -0.001297295 -0.02537435 0.02406299 0.01723802 -0.02649039 -0.05278789 -0.001297295 -0.02709686 0.009800016 0.01450526 -0.02468615 -0.04750657 0.01450526 -0.02632838 0.005943417 0.01048374 -0.02615594 -0.03900319 0.01450526 -0.02624374 -0.03891539 0.01723802 -0.02624374 -0.02496904 0.01450526 -0.02615594 -0.02488124 0.01723802 -0.02676516 -0.05044978 0.01048374 -0.02413785 0.008440792 0.01048374 -0.02283757 -0.05336344 -0.001297295 -0.02437448 0.02257156 0.03000795 -0.02370434 -0.05116373 0.01048374 -0.0236566 -0.04944562 -0.001297295 -0.02349513 0.02262717 0.01723802 -0.02216339 0.008707463 -0.001297295 -0.02477198 -0.04858624 0.01723802 -0.02335554 -0.05023437 0.03000789 -0.02394437 0.00440824 -0.001297295 -0.02154952 0.007677078 0.01450526 -0.02210271 -0.0519874 0.01450526 -0.02200794 -0.04470992 0.03000795 -0.02348041 -0.04818826 0.01723802 -0.01716959 -0.04360175 0.01723802 -0.0186246 -0.05149459 0.03000789 -0.01805377 -0.05224949 0.01723802 -0.0183264 -0.04506719 0.01723802 -0.01796102 -0.0506072 0.01723802 -0.0191949 -0.01868355 0.01450526 -0.01924449 -0.01873314 0.01723802 -0.01924449 0.003794789 0.01450526 -0.0191949 0.003745198 0.01723802 -0.01872569 -0.03891032 0.01450526 -0.01878762 -0.03898936 0.01723802 -0.01878124 -0.0249232 0.01581698 -0.01628375 -0.04618847 0.03000795 -0.01868462 0.02456212 0.01596927 -0.01868462 0.02987444 0.01580661 -0.01538205 0.006181359 0.01563608 -0.01536917 0.01148909 0.01593106 -0.0077762 0.02918446 0.01450526 -0.01125848 0.02994132 0.01723802 -0.01218467 -0.05701309 0.01591879 -0.01143491 -0.04651403 0.01450526 -0.01150155 -0.04650622 0.01723802 -0.01129418 -0.03311032 0.01450526 -0.01129573 -0.03308379 0.01723802 -0.01123219 -0.01683306 0.01599586 -0.01036632 -0.01151579 0.01450526 -0.01034635 -0.01146763 0.01723802 -0.01011651 -0.03822994 0.01450526 -0.01013648 -0.03818178 0.01723802 -0.009106218 -0.002644062 0.01723802 -0.008519887 -0.002340137 0.01984095 -0.007106721 0.02088654 0.01723802 -0.0090788 0.01794964 0.01984095 -0.009122252 0.01630222 0.01723802 -0.008455753 0.001433908 0.01723802 -0.007718086 8.71326e-4 0.01984095 -0.008072793 -0.001209378 0.01723802 -0.007083952 0.01785141 0.01723802 -0.006147623 -6.93586e-4 0.01723802 -0.005355894 0.01574575 0.01723802 -0.006056368 0.01633566 0.01984095 -0.00423789 -0.001721918 0.01723802 -0.00488317 -0.001370549 0.01984095 -0.005837321 0.01926445 0.01984095 -0.007033288 0.02994459 0.01723802 -0.005008041 0.02536666 0.01723802 -0.005933344 0.02454006 0.01450526 -0.005722343 -0.04720449 0.01723802 -0.005745291 -0.04723894 0.01450526 -0.004345238 -0.05702412 0.01595205 -0.00316745 -0.02496367 0.01587164 1.13646e-4 0.02382063 0.01450526 6.67266e-6 -0.02813786 0.01596927 0.00251615 -0.02264016 0.01723802 6.07735e-5 -0.02178716 0.01450526 -2.62941e-5 -0.05705893 0.01450526 -2.62944e-5 -0.05707037 0.01723802 0.005469501 0.02560687 0.01723802 0.003183186 -0.02501779 0.01450526 0.00435853 -0.05702412 0.01579129 0.004728376 5.31252e-4 0.01723802 0.005319774 -0.001790046 0.01984095 0.004858076 0.01654028 0.01723802 0.005307972 0.01846534 0.01984095 0.00649321 0.0205878 0.01723802 0.005690932 -0.04722183 0.01450526 0.005672454 -0.04722124 0.01723802 0.007505059 -0.003792405 0.01723802 0.007584512 0.01586389 0.01984095 0.007658243 8.38582e-4 0.01984095 0.005985319 0.02447021 0.01553004 0.006484031 -1.01819e-4 0.01723802 0.006771862 0.01880484 0.01723802 0.007046639 0.02994459 0.01450526 0.007771015 -0.001779317 0.01723802 0.007498502 0.01687383 0.01723802 0.008968949 -0.002091288 0.01984095 0.009624421 0.0163052 0.01723802 0.007840096 0.02911365 0.01723802 0.00862956 0.01899755 0.01984095 0.0115801 -0.04653882 0.01450526 0.009320437 6.12982e-4 0.01723802 0.01131504 -0.04649311 0.01723802 0.0103597 -0.01146763 0.01450526 0.01014107 -0.03820639 0.01587164 0.01037961 -0.01151579 0.01723802 0.01128035 0.02993732 0.01450526 0.01124072 -0.03308266 0.01450526 0.01128172 -0.01683121 0.01596927 0.01125019 -0.03310549 0.01723802 0.01222085 -0.05700117 0.01587164 0.015365 0.006176769 0.01450526 0.01545459 0.006181359 0.01723802 0.01543074 0.01148241 0.01450526 0.01537007 0.01147657 0.01723802 0.01761496 -0.04333305 0.01723802 0.01676917 -0.05013322 0.03000795 0.01692742 -0.05124825 0.01723802 0.01856219 -0.04376506 0.03000795 0.01841312 -0.0447095 0.01723802 0.01842248 -0.05072444 0.01723802 0.01869797 0.02456212 0.0160039 0.01869797 0.02987444 0.01587164 0.02132374 -0.05159682 0.03000795 0.0193063 -0.01246261 0.01450526 0.01997739 -0.01135575 0.01723802 0.01926219 -0.008164048 0.01450526 0.020401 2.10635e-4 0.01450526 0.01938796 -7.7426e-4 0.01723802 0.01938796 -0.03823006 0.01450526 0.01898962 -0.03129804 0.01723802 0.0199393 -0.02733486 0.01450526 0.01930624 -0.0265417 0.01723802 0.0226345 -0.03954231 0.01723802 0.02348238 -0.04599535 0.03000795 0.02452778 -0.05019366 0.01723802 0.02153587 -0.05115306 -0.001297295 0.02150911 -0.05375468 0.01450526 0.02117651 0.005197763 -0.001297295 0.02052623 0.006767809 0.01450526 0.02208042 0.008612155 -0.001297295 0.02317768 -0.04903119 0.01723802 0.02322393 -0.04750657 -0.001297295 0.02332544 -0.04741281 0.01450526 0.02575463 0.01038265 0.01450526 0.02398604 0.003723978 0.01450526 0.02321356 -0.04932659 0.01048374 0.02261304 0.008207142 0.01048374 0.02431404 -0.05225098 0.01048374 0.02490442 0.005134999 -0.001297295 0.02486675 0.006230711 0.01048374 0.02525156 -0.04923862 -0.001297295 0.02464139 -0.05317515 -0.001297295 0.02525442 0.009226739 -0.001297295 0.02469694 -8.50768e-4 0.01723802 0.02464789 -0.038181 0.01450526 0.02357518 0.02279275 0.01723802 0.02412813 0.02029943 0.03000795 0.02539408 -0.01938962 0.01450526 0.02539408 -0.01961475 0.01723802 0.02469789 -0.01356339 0.01570087 0.02474319 -0.02544909 0.01596927 0.02917277 0.01701992 0.01723802 0.02537292 0.02471756 0.03000795 0.02535712 0.01999592 0.01723802 0.02883726 0.02559775 0.01723802 0.03042268 0.02652579 0.01723802 0.02703595 -0.05102396 0.01450526 0.03014498 0.01975053 0.01723802 0.02909737 0.01821494 0.03000795 0.03155618 0.02419251 0.03000795 0.0317341 -0.06247985 0.01450526 0.03186541 -0.06234854 0.01723802 0.03142082 0.03318464 0.01524388 0.03227514 0.0315907 0.01723802 0.0323441 0.03093922 0.01450526</float_array>
          <technique_common>
            <accessor source="#slam_head_rpi3_simple_Simple_Chassis_Full-mesh-positions-array" count="198" stride="3">
              <param name="X" type="float"/>
              <param name="Y" type="float"/>
              <param name="Z" type="float"/>
            </accessor>
          </technique_common>
        </source>
        <source id="slam_head_rpi3_simple_Simple_Chassis_Full-mesh-normals">
          <float_array id="slam_head_rpi3_simple_Simple_Chassis_Full-mesh-normals-array" count="1263">0.357104 0.9331275 -0.04183202 0.06311792 0.9960476 0.06249487 0.9221574 -0.382018 -0.0607295 0.3933438 -0.9103396 0.1286961 -0.354936 -0.932071 -0.07255393 -0.995411 -0.02816259 -0.09145432 -0.975966 0.2165177 -0.02470654 0 0 -1 0.9960423 -0.08520531 -0.02529436 0.9659555 -0.2565659 0.03322899 -0.01678001 -0.9958106 -0.08988809 -0.6597862 -0.7499596 0.04735863 -0.9646526 0.2553653 -0.06507003 -0.5682345 0.8218922 0.04003828 -0.189674 0.9796496 -0.06565433 0.08568543 0.989565 -0.1158422 0.8663153 0.4994741 -0.004847288 0.9768831 0.2042155 -0.06321072 0.1057482 -0.9910573 0.08137965 -0.1556347 -0.9877465 -0.01161009 -0.977728 -0.172226 -0.1199434 -0.806112 0.588315 0.06378841 0.6494884 0.7603221 -0.008682191 0.6974403 0.7166395 0.002209782 0.9800905 -0.1519268 -0.1278322 0.4422997 -0.8951892 0.05483877 -0.540458 -0.8300487 -0.1375656 -0.960434 0.2750647 0.04365915 -0.9074736 0.4200959 0.003334999 1.42273e-7 0 -1 0.984773 0.1734672 -0.01146066 0.4568051 -0.8866152 0.07240676 -0.9235079 -0.3475261 -0.1623539 -0.6449003 -0.7353532 -0.2082291 -0.8314908 -0.5296417 0.1676385 0.7362924 -0.6458332 -0.2019231 0.6593489 0.7518267 -0.003964543 0.7750269 0.6294364 -0.05606424 1.9715e-7 0 -1 -0.7517744 0.6594147 0.002770185 0.3395255 0.8916026 -0.2996119 0.5449491 0.8369463 -0.05051207 0.9198304 0.3461437 -0.1846531 -0.9962995 0.08522868 -0.01111143 -0.7595865 0.6440306 0.09084546 -0.987429 0.1530631 -0.03944301 -0.08577036 -0.9905462 -0.1070588 0.9988461 0.0282588 -0.03883129 -0.2248777 -0.9640569 -0.1415074 0.1899139 -0.9808887 -0.04230791 0.2232538 0.9570937 -0.1847411 0.002062737 -0.9988505 0.04789137 -0.002062499 -0.9988504 -0.04789406 0.9996453 -0.004359841 0.02627277 0.9988415 -0.006522119 -0.04767835 -1.35412e-6 0 1 0 0 1 -2.92095e-7 0 1 0.4321117 -0.1082248 0.8953027 -0.7562676 0.07800573 0.6495957 0.4095241 0.2685872 0.8718663 1.0818e-6 -2.21901e-6 1 0.5403198 -0.8360834 -0.09496939 -0.1617906 -0.1753156 0.9711274 -0.1698679 -0.1955624 0.9658676 0.2065122 -0.252916 0.9451912 -0.1051561 0.07620096 0.991532 -0.2596126 0.001624107 0.9657115 0.1973001 -0.2052995 0.9586057 -0.1272311 0.1430296 0.9815064 0.1839834 -0.2068279 0.9609226 -0.9988017 -0.0121681 0.04740643 -0.002459585 0.9988507 0.0478692 0.9138886 0.399499 -0.07216918 0 1.90913e-7 -1 0.2078379 0.1234017 -0.9703482 -0.0323643 0.4702482 -0.8819406 0 0 -1 -3.15414e-7 0 -1 0.1944187 -0.05970782 -0.9790998 0.8546497 -0.51611 0.05660849 -0.2498348 -0.9672438 -0.04496705 0.3999837 0.9126462 0.08420151 0.9159234 -0.3529785 0.1910253 -0.4117888 -0.9084313 0.07199084 0.2461846 0.9531117 0.1759873 -0.4778624 -0.8763763 -0.0601024 -0.5433641 0.8287408 -0.1339562 -0.7140063 -0.6923331 -0.1042594 1.22496e-7 0 1 -2.90692e-7 0 1 0.114923 -0.1311101 0.9846841 0.1061396 -0.1417945 0.9841893 0 -2.19194e-7 1 -0.1168906 -0.1379644 0.9835153 -0.1079504 -0.1452717 0.9834851 -4.8787e-4 0.236237 0.9716954 -0.00385183 0.2099465 0.9777053 -0.01060944 0.2107908 0.9774737 0.01733511 0.3445914 0.9385927 -0.2752605 -0.2990003 0.9136907 2.47603e-7 0 1 0.2997567 -0.3214108 0.8982434 -6.25075e-4 -0.9994267 -0.03385025 -5.08483e-7 0 1 0.01642322 0.7844471 0.6199784 -0.01180738 -0.5639734 0.8257086 0.05796998 0.6024034 0.7960839 1.52675e-7 0 1 0.1065356 0.01689404 0.9941654 0.1150015 0.03040236 0.9929 -0.1127032 -0.7757294 0.6209202 5.72481e-7 0 1 5.25815e-7 2.25572e-6 1 -0.6653918 -0.7276473 0.1666834 -0.3049792 -0.9490694 0.07908958 0.9917306 0.001541018 0.128328 -0.4776511 0.8761553 -0.06481862 -0.5337814 0.8241107 0.1895235 0.4128598 0.9107946 1.88163e-4 0.3059344 0.9520421 -0.00447005 -0.05079537 -0.9909913 0.1239199 0.7523826 0.6564542 0.05466854 0.4492182 0.8889842 -0.08893978 -0.6597799 -0.7273896 0.1886662 -0.7533902 -0.6573333 -0.01778304 0.2544605 0.9552884 0.1505788 -0.08426016 -0.9922569 -0.09124934 0.08335292 0.9815728 0.1719517 -0.9582462 0.2699792 0.09420996 0.9240378 -0.3800934 0.04102557 0.9853245 -0.1295566 -0.1111342 -0.2571277 -0.9653023 0.04557287 -0.9598202 -0.2146595 0.1807389 -0.9773193 -0.1574203 -0.1416541 -0.9147506 0.4035485 -0.01949143 0.8338672 -0.5180449 0.1905124 0.1370578 -0.9877841 -0.07414716 -0.3854696 -0.9189152 0.0837152 -0.9960513 0.08652138 -0.01989966 0.9704219 -0.2367125 -0.04742121 -0.9312471 0.3588839 -0.06309735 0.5103811 -0.8428314 0.1707235 0.913012 -0.4027817 0.06462252 -0.8484479 0.5123648 0.1327358 0.05117917 0.9985125 -0.01880681 0.3829521 0.9129139 0.1411947 0.6732392 0.7362295 -0.06866657 0.9578375 -0.269864 0.09859377 -0.3321898 0.9328847 0.1391984 -0.986232 -0.06503736 0.1520421 -0.9594641 0.2701472 0.08030754 0.6822972 -0.7279066 -0.06799012 -0.9243971 0.3802412 -0.0301119 0.9908431 -0.1013106 -0.08925414 0.6937973 0.6990737 -0.1730353 -0.9623484 0.234744 0.1370432 0.5433296 -0.8388515 -0.03348594 -0.8425359 0.5234301 0.1271001 0.9625355 -0.2710127 0.008808553 0.9614514 0.2150235 0.1713951 1.9111e-7 0 -1 -0.09794515 -0.134773 -0.9860239 -0.1030377 -0.1207488 -0.9873211 0.07083398 -0.1380575 -0.987888 0.009040296 0.2721705 -0.9622066 0.09566771 -0.0900188 -0.9913347 4.7843e-4 0.2317032 -0.9727864 0.004456818 0.2407053 -0.9705881 0.01532095 -0.1321102 -0.9911167 0.27889 -0.1620889 -0.9465451 -0.01896983 -0.1488901 -0.9886718 -0.3136107 -0.1826422 -0.9318209 -0.1458688 0.877647 -0.4565721 0.144726 -0.8707699 -0.4699087 -0.210243 0.2263895 -0.9510762 -0.04281532 -0.02486062 -0.9987738 0.01165431 -0.3364812 -0.9416181 -0.05091452 0.6403985 -0.7663534 0.1322833 -0.6503082 -0.7480644 -0.01784002 0.3478847 -0.9373677 3.76524e-4 0.2195595 -0.9755991 0.1990448 -0.3633769 -0.9101311 -0.9998339 0.002204954 -0.0180971 -0.9998338 -0.002204716 0.01809775 -0.5535487 0.009150803 -0.8327667 -0.990933 -0.1232315 -0.05353254 -0.01608425 0.9997115 0.01784461 -0.01752775 -0.9996877 -0.01781684 -0.1010338 -0.8998659 -0.4243035 0.7727834 0.5650167 -0.2890711 0.8123076 0.3056832 0.4967034 -0.1437199 -0.9727807 0.1817759 -0.4099125 -0.7676146 0.492686 3.2125e-7 -4.41594e-7 1 -4.33951e-7 0 1 1.23951e-6 0 1 0 0 1 -1.5422e-7 0 1 -1.92484e-7 0 1 3.50165e-7 0 1 1.36047e-7 0 1 -0.05163007 0.09801417 0.9938448 0.06400692 0.476435 0.8768768 -2.26999e-7 -8.75487e-7 1 0.2670415 0.2017144 0.9423377 0.07069474 -0.0555247 0.9959515 -0.01535475 -0.2602974 0.9654065 -0.04168266 -0.2023614 0.9784235 0 0 1 1.97832e-7 0 1 0 0 1 1.4588e-7 -3.06014e-7 1 0 0 1 0 0 1 2.69985e-7 0 1 -0.01771026 0.9950727 -0.0975542 0.5990871 0.8006771 0.003282189 0.6195899 0.7834663 0.04784029 0.6348114 0.4870316 0.5998457 0.7332815 0.6417065 0.2247465 0.9683924 -0.2417815 0.06130367 0.7436558 -0.6615677 -0.09645897 0.3576745 -0.8818014 0.307401 0.252879 -0.9485108 0.1907341 -0.2991425 0.7374981 0.6054837 -0.242316 0.9043807 0.3512527 0.9589606 -0.07171875 0.2743193 -0.686961 -0.5270415 0.5003117 0.08199489 0.9933089 0.08132845 -0.1275925 0.7963316 0.5912498 0.7808749 -0.2604166 0.5678185 -0.06747174 -0.8173762 0.5721396 0.1580812 -0.9866244 -0.03978282 -0.8079758 -0.5188801 -0.2791751 -0.8902633 0.3914117 -0.2328695 -0.9209404 0.3720486 -0.1159684 0.9159793 0.3119654 -0.2523083 -0.8557865 -0.3828279 0.3479544 0.1856105 -0.9799372 0.07260775 -0.6404036 -0.5604269 0.5251715 -0.04823702 -0.9778684 -0.2035846 -0.2410913 0.9042947 0.3523152 -0.5941237 0.5285406 0.6063513 0.8006706 0.3581717 0.4802498 -0.9220798 0.2302185 0.3110762 0.2083485 -0.7776105 0.5932223 -0.9675757 0.1543436 0.1999383 0.8923891 -0.3677406 -0.2615503 0.4476266 0.8382391 0.3114253 -0.9137338 0.06833612 0.4005258 -0.6173829 -0.7806772 0.09685933 -0.9307374 -0.3502503 -0.1051324 -0.7940561 0.2648121 0.5471284 0.4850972 0.7135535 0.5054922 0.8601318 0.3805166 -0.3396771 -0.008368253 0.8975088 0.4409171 0.7046262 -0.7093596 0.01763677 0.03699284 -0.96871 -0.2454234 -0.03469026 -0.9736377 0.2254467 -0.610346 0.6909824 0.3873257 -0.5156167 0.3485612 0.7827161 0.8253597 -0.5574882 0.08937811 0.490414 0.6276068 0.6046519 0.411152 -0.4195345 -0.8092868 0.4370694 -0.5792093 -0.6881039 0.00991708 0.9994452 -0.03179532 -0.01249545 0.9995117 0.02864056 0 0 -1 -1.46392e-7 0 -1 0 0 -1 -0.09480261 -0.3052561 -0.9475396 0 0 -1 -0.6208099 0.08572876 -0.7792598 -3.56697e-7 0 -1 0.2882559 0.6835291 -0.6705942 0.2542809 0.2234758 -0.9409568 -0.07980155 -0.04370296 -0.9958524 0.1631629 0.0893554 -0.9825445 0.356875 0.1040741 -0.9283366 -0.6849099 -0.1007733 -0.7216253 0.3722346 -0.2555561 -0.8922626 -0.05927771 0.08971023 -0.9942024 -0.1755322 -0.007471144 -0.9844454 0.4181496 -0.8630464 -0.283376 0.09070515 0.08766728 -0.9920117 -0.2080011 -0.1916614 -0.9591671 -0.2183331 -0.2110202 -0.952786 0.2421436 -0.298249 -0.9232628 -0.2253649 -0.2287811 -0.9470322 -0.1943809 0.3477442 -0.9172187 -1.58857e-7 0 -1 -0.1429546 -0.2262663 -0.9635183 -0.2159038 -0.2080692 -0.9539878 -0.2209688 -0.2207682 -0.9499655 0.3807024 -0.6810703 -0.6254671 0.116791 0.02686446 -0.9927932 -0.007376372 0.09333944 -0.9956071 -0.2276006 -0.05235302 -0.9723462 0.1932024 0.3547716 -0.9147732 -0.1633613 -0.2999749 0.9398553 0.05167341 -0.6538643 -0.7548454 -0.01767677 0.9904432 -0.1367844 -0.1730343 -0.001082539 -0.9849152 -0.06736779 0.02366256 -0.9974477 -0.1105885 0.01857548 -0.9936928 -3.6754e-7 0 -1 7.45667e-7 0 -1 -1.95042e-7 0 -1 0 0 -1 1.29605e-7 0 -1 -0.9993873 0.01239138 0.03273677 -0.9996252 -0.01595473 -0.02224761 -0.05361193 -0.9595967 -0.2762246 0.04951918 -0.9656359 0.2551379 0.8641337 0.5032582 0.002105832 0.8659462 0.4999531 -0.01357096 0.9973894 -0.06792312 0.02451485 -0.9999915 0.002211809 0.003484725 0.6497261 0.6595744 -0.3779124 0.65566 0.7548397 -0.01808327 0.6501749 -0.527144 0.5471672 0.6237491 -0.4216601 0.6581336 0.9632743 -0.04874414 0.2640579 0.7074233 0.7067818 0.003461658 0.7200294 0.6009104 -0.3470799 0.9994711 -0.006252706 -0.03191137 0.9994713 0.006253123 0.03191071 0.09189665 -0.03047591 -0.9953022 0.1279253 0.02542537 -0.9914579 -0.1122934 0.161229 -0.9805078 0.1927298 0.0539841 -0.9797658 0.433852 -0.4017738 -0.8064431 -0.0461263 -0.07546931 -0.9960808 0.1490596 0.185048 -0.9713592 0.03628414 0.1048048 -0.9938308 0.4346536 -0.005388975 -0.9005815 -0.1585863 0.1087393 -0.981339 -3.13178e-7 0 -1 -0.03047955 0.9595418 -0.2799118 4.94937e-4 -0.9994847 0.0320971 -0.7073435 0.7068328 -0.007258355 -0.684504 -0.6015793 0.4117724 -0.8353486 -0.5478651 -0.0451315 -3.14561e-4 -0.9999977 -0.002142727 -0.01958179 0.8540315 -0.5198526 2.56373e-5 0.999845 -0.01761102 -0.6342974 -0.09605389 0.7670987 0.2651714 -0.233048 0.9356136 0.2301506 -0.01532244 0.9730344 -0.1484208 0.006559431 0.9889026 -0.06330132 0.07769256 0.9949657 -4.01554e-7 0 1 0 -1.02393e-6 1 -0.1300789 -0.2300631 0.9644431 -0.2016881 -0.2122768 0.9561698 -0.1741012 -0.1452985 0.9739492 -0.1748728 -0.1449277 0.9738663 0.06822973 0.09875559 0.99277 0.1015427 0.02308994 0.9945632 -0.07901042 0.1002342 0.9918218 -2.01933e-7 0 1 0.1599557 0.06474316 0.9849987 1.58335e-6 1.23926e-6 1 1.19983e-6 1.1198e-6 1 -0.0946139 0.1252862 0.9875989 0.063578 0.3425166 0.9373581 2.1727e-7 2.40593e-7 1 0 4.67711e-7 1 0 -4.20357e-7 1 -1.81623e-7 0 1 0 0 1 -0.1536079 0.03570252 0.9874867 1.79969e-7 0 1 1.16616e-6 0 1 -1.5011e-7 -9.93049e-7 1 -1.11364e-6 -9.03627e-7 1 -3.56905e-7 4.44423e-7 1 1.16758e-6 2.2987e-7 1 0 0 1 3.69125e-6 -1.98135e-6 1 -6.19992e-7 8.16498e-7 1 3.23202e-7 -3.70936e-7 1 -7.24903e-7 8.53753e-7 1 -3.27194e-6 6.86378e-7 1 5.15152e-7 1.86995e-6 1 -0.7077034 0.7062903 0.0176078 -0.6027867 0.4260912 0.674607 0.4874808 -0.5962972 0.6378027 -0.823514 0.5653809 0.046575 -0.7054686 0.6200068 -0.343374 -0.9927749 -0.07321792 -0.09506464 0.9301543 0.05181622 0.3634945 0.9146402 -0.1243788 -0.38466 0.9999924 -0.003862798 6.07274e-4 -0.8196951 0.07148098 -0.5683225 -0.001471817 -0.9999989 1.86463e-4 0.001496016 -0.9999197 0.01258605 0.6823927 0.3016931 -0.6658239 -0.8276877 -0.5608811 -0.01858335 0.002322554 -0.9998425 0.01759725 -0.002322435 -0.9998426 -0.01759707 -0.1031985 0.0247507 0.9943528 -0.1113383 0.04072111 0.992948 -0.1448174 0.2656394 0.9531337 -0.03581529 0.5034402 0.8632875 -0.002465188 0.7006428 0.713508 0.1396394 0.2763405 0.9508612 0.08411437 -0.8176406 0.5695514 -0.106124 0.7161619 0.6898188 2.99891e-7 0 1 -0.01353269 -0.9390694 -0.3434613 -0.9997405 -0.001842439 -0.0227099 0.9663335 0.04112982 -0.2539843 0.9705004 -0.04289197 0.2372536 -0.8645812 0.5024888 0.002104163 -0.8655378 0.5008082 -0.00595051 -0.630792 -0.2502971 -0.7344746 -0.5397831 -0.7375134 0.4058427 8.85577e-5 0.9999986 -0.001692354 -0.9770864 -0.02562111 0.2112957</float_array>
          <technique_common>
            <accessor source="#slam_head_rpi3_simple_Simple_Chassis_Full-mesh-normals-array" count="421" stride="3">
              <param name="X" type="float"/>
              <param name="Y" type="float"/>
              <param name="Z" type="float"/>
            </accessor>
          </technique_common>
        </source>
        <vertices id="slam_head_rpi3_simple_Simple_Chassis_Full-mesh-vertices">
          <input semantic="POSITION" source="#slam_head_rpi3_simple_Simple_Chassis_Full-mesh-positions"/>
        </vertices>
        <triangles material="slam_head_rpi3_simple_Simple_Chassis_Full-material" count="452">
          <input semantic="VERTEX" source="#slam_head_rpi3_simple_Simple_Chassis_Full-mesh-vertices" offset="0"/>
          <input semantic="NORMAL" source="#slam_head_rpi3_simple_Simple_Chassis_Full-mesh-normals" offset="1"/>
          <p>38 0 14 0 20 0 14 1 38 1 34 1 34 2 38 2 37 2 3 3 37 3 38 3 37 4 3 4 17 4 17 5 3 5 14 5 20 6 14 6 3 6 14 7 34 7 37 7 175 8 166 8 171 8 167 9 171 9 166 9 171 10 167 10 160 10 161 11 160 11 167 11 160 12 161 12 162 12 166 13 162 13 161 13 162 14 166 14 175 14 15 15 21 15 32 15 39 16 32 16 21 16 32 17 39 17 29 17 16 18 29 18 39 18 29 19 16 19 19 19 19 20 16 20 15 20 21 21 15 21 16 21 164 22 165 22 173 22 189 23 173 23 165 23 173 24 189 24 174 24 159 25 174 25 189 25 174 26 159 26 158 26 165 27 158 27 159 27 158 28 165 28 164 28 164 7 173 7 158 7 171 29 160 29 162 29 15 30 27 30 19 30 173 31 168 31 158 31 168 32 173 32 170 32 169 33 175 33 172 33 37 34 28 34 14 34 22 35 14 35 28 35 172 36 162 36 169 36 162 37 172 37 171 37 29 38 19 38 32 38 28 39 17 39 22 39 17 40 28 40 37 40 158 41 170 41 174 41 170 42 158 42 168 42 171 43 172 43 175 43 19 44 31 44 32 44 174 45 170 45 173 45 32 46 27 46 15 46 14 47 22 47 17 47 27 48 32 48 31 48 175 49 169 49 162 49 31 50 19 50 27 50 1 51 193 51 194 51 193 52 1 52 0 52 194 53 197 53 196 53 197 54 194 54 193 54 188 55 194 55 196 55 184 56 194 56 188 56 184 57 181 57 194 57 182 58 184 58 176 58 182 59 181 59 184 59 182 60 147 60 181 60 95 61 147 61 127 61 95 62 130 62 147 62 95 63 66 63 92 63 68 64 66 64 95 64 48 65 66 65 68 65 66 66 53 66 65 66 26 67 2 67 24 67 48 68 53 68 66 68 26 69 48 69 2 69 48 70 26 70 53 70 2 71 0 71 1 71 195 72 5 72 6 72 195 73 196 73 197 73 38 74 49 74 3 74 57 75 49 75 38 75 133 76 49 76 57 76 133 77 149 77 49 77 161 7 149 7 133 7 161 78 167 78 149 78 167 79 197 79 182 79 167 7 166 7 197 7 33 80 30 80 12 80 45 81 54 81 40 81 43 82 46 82 41 82 157 83 156 83 145 83 141 84 156 84 140 84 42 85 40 85 54 85 36 86 35 86 44 86 40 87 42 87 35 87 179 88 178 88 184 88 1 89 44 89 35 89 139 90 194 90 157 90 44 56 63 56 42 56 44 91 61 91 63 91 1 92 61 92 44 92 124 93 139 93 137 93 132 94 139 94 124 94 132 95 194 95 139 95 194 96 61 96 1 96 194 97 91 97 61 97 101 98 194 98 132 98 101 99 91 99 194 99 63 56 98 56 89 56 91 100 98 100 63 100 98 101 124 101 108 101 98 102 101 102 124 102 91 103 101 103 98 103 41 56 46 56 45 56 163 104 141 104 142 104 6 105 196 105 195 105 6 106 144 106 196 106 6 107 120 107 144 107 6 108 86 108 120 108 55 109 6 109 7 109 56 110 6 110 55 110 86 56 60 56 87 56 60 111 6 111 56 111 60 112 86 112 6 112 186 113 190 113 187 113 18 56 11 56 10 56 9 114 12 114 8 114 139 115 145 115 138 115 138 116 142 116 141 116 185 117 188 117 178 117 7 118 8 118 13 118 137 119 140 119 156 119 142 120 138 120 145 120 13 121 11 121 18 121 33 122 13 122 30 122 13 123 33 123 7 123 156 124 141 124 163 124 18 125 30 125 13 125 41 126 36 126 43 126 187 127 192 127 185 127 188 128 185 128 192 128 178 129 179 129 185 129 184 130 192 130 191 130 192 131 184 131 188 131 44 132 43 132 36 132 192 133 187 133 190 133 8 134 7 134 9 134 46 135 43 135 54 135 185 136 186 136 187 136 145 137 139 137 157 137 184 138 191 138 179 138 138 139 137 139 139 139 41 140 40 140 36 140 163 141 145 141 156 141 40 142 41 142 45 142 44 143 54 143 43 143 10 144 12 144 30 144 179 145 190 145 186 145 190 146 179 146 191 146 10 147 8 147 12 147 186 148 185 148 179 148 145 149 163 149 142 149 54 150 45 150 46 150 137 151 138 151 140 151 12 152 9 152 33 152 190 153 191 153 192 153 54 154 44 154 42 154 156 155 157 155 137 155 35 156 36 156 40 156 11 157 13 157 8 157 30 158 18 158 10 158 141 159 140 159 138 159 8 160 10 160 11 160 193 161 159 161 189 161 39 7 0 7 16 7 159 162 132 162 122 162 193 163 132 163 159 163 61 164 39 164 62 164 193 165 101 165 132 165 61 166 0 166 39 166 0 167 101 167 193 167 91 168 0 168 61 168 101 169 107 169 122 169 101 170 97 170 107 170 90 171 91 171 62 171 97 172 91 172 90 172 97 173 0 173 91 173 0 174 97 174 101 174 143 175 195 175 197 175 144 176 195 176 143 176 195 177 56 177 5 177 195 178 59 178 56 178 128 179 195 179 144 179 195 180 115 180 59 180 128 181 115 181 195 181 128 7 93 7 115 7 112 182 93 182 128 182 50 183 47 183 48 183 47 184 50 184 49 184 6 185 3 185 4 185 3 186 6 186 5 186 2 187 48 187 47 187 4 188 49 188 50 188 49 189 4 189 3 189 121 190 119 190 106 190 105 191 117 191 114 191 82 192 75 192 81 192 75 193 82 193 74 193 76 194 50 194 71 194 4 195 7 195 6 195 4 196 9 196 7 196 50 197 9 197 4 197 9 198 75 198 73 198 102 199 76 199 83 199 102 200 50 200 76 200 134 201 102 201 123 201 57 202 102 202 134 202 57 203 50 203 102 203 9 204 81 204 75 204 81 56 119 56 104 56 57 205 9 205 50 205 58 206 9 206 57 206 58 207 81 207 9 207 136 208 81 208 58 208 136 209 119 209 81 209 184 210 136 210 134 210 136 211 184 211 119 211 73 212 33 212 9 212 178 213 119 213 184 213 73 214 178 214 33 214 104 215 73 215 81 215 106 56 73 56 104 56 178 56 106 56 119 56 106 56 178 56 73 56 111 216 123 216 102 216 77 217 83 217 76 217 83 218 77 218 84 218 103 219 116 219 113 219 117 220 105 220 110 220 78 221 77 221 72 221 113 222 111 222 103 222 79 223 85 223 74 223 83 224 84 224 72 224 73 225 74 225 85 225 72 226 80 226 78 226 81 227 85 227 82 227 111 228 113 228 116 228 116 229 103 229 118 229 106 230 105 230 121 230 119 231 121 231 110 231 109 232 118 232 103 232 114 233 121 233 105 233 103 234 102 234 109 234 75 235 74 235 73 235 105 236 106 236 104 236 73 237 85 237 81 237 116 238 118 238 111 238 72 239 71 239 83 239 104 240 110 240 105 240 110 241 104 241 119 241 80 242 72 242 84 242 102 243 103 243 111 243 123 244 111 244 118 244 76 245 72 245 77 245 77 246 78 246 80 246 72 247 76 247 71 247 118 248 109 248 123 248 79 249 74 249 82 249 79 250 82 250 85 250 80 251 84 251 77 251 110 252 114 252 117 252 114 253 110 253 121 253 59 254 87 254 93 254 87 255 59 255 86 255 151 256 155 256 177 256 94 257 70 257 69 257 144 258 120 258 128 258 56 259 59 259 60 259 93 260 120 260 115 260 120 261 93 261 99 261 124 262 101 262 122 262 147 263 182 263 148 263 167 264 176 264 149 264 183 265 152 265 153 265 52 266 23 266 24 266 23 267 52 267 51 267 148 268 49 268 149 268 49 269 67 269 47 269 49 270 125 270 67 270 182 271 49 271 148 271 180 272 197 272 193 272 180 273 182 273 197 273 49 274 146 274 125 274 182 275 146 275 49 275 146 276 182 276 180 276 47 277 64 277 2 277 47 278 66 278 64 278 146 7 96 7 125 7 183 279 193 279 177 279 183 280 180 280 193 280 183 281 153 281 180 281 130 282 153 282 129 282 130 283 146 283 153 283 130 284 96 284 146 284 100 285 96 285 130 285 66 286 100 286 92 286 66 287 96 287 100 287 67 288 66 288 47 288 66 289 67 289 96 289 100 290 64 290 92 290 151 291 129 291 153 291 126 292 129 292 151 292 94 293 129 293 126 293 94 294 100 294 129 294 94 295 64 295 100 295 69 296 64 296 94 296 53 297 69 297 51 297 53 298 64 298 69 298 64 299 25 299 2 299 25 300 64 300 53 300 126 301 51 301 69 301 151 302 51 302 126 302 177 7 51 7 151 7 23 303 2 303 25 303 2 304 16 304 0 304 23 305 16 305 2 305 23 306 21 306 16 306 51 7 21 7 23 7 177 7 21 7 51 7 189 7 177 7 193 7 165 307 177 307 189 307 21 7 62 7 39 7 177 308 62 308 21 308 159 7 177 7 165 7 122 7 177 7 159 7 177 309 90 309 62 309 177 310 107 310 90 310 122 7 107 7 177 7 134 311 135 311 133 311 135 312 134 312 136 312 86 313 115 313 120 313 115 314 86 314 59 314 90 315 98 315 97 315 90 316 89 316 98 316 62 317 63 317 61 317 131 318 130 318 129 318 67 319 95 319 96 319 95 320 67 320 68 320 128 321 99 321 112 321 99 322 128 322 120 322 153 323 152 323 151 323 100 324 131 324 129 324 131 325 100 325 95 325 24 326 25 326 26 326 25 327 24 327 23 327 55 328 5 328 56 328 5 7 20 7 3 7 55 329 20 329 5 329 88 330 20 330 55 330 88 7 38 7 20 7 38 331 58 331 57 331 88 332 58 332 38 332 88 333 135 333 58 333 59 7 135 7 88 7 93 7 135 7 59 7 112 334 135 334 93 334 143 335 135 335 112 335 143 336 133 336 135 336 197 337 133 337 143 337 133 7 166 7 161 7 197 338 166 338 133 338 55 339 87 339 88 339 53 340 26 340 25 340 92 341 64 341 65 341 180 342 147 342 146 342 147 343 180 343 181 343 58 344 135 344 136 344 99 345 93 345 87 345 126 346 69 346 70 346 181 347 183 347 194 347 154 348 183 348 181 348 154 349 152 349 183 349 130 350 154 350 147 350 131 351 154 351 130 351 131 352 152 352 154 352 131 353 155 353 152 353 131 354 126 354 155 354 131 355 94 355 126 355 95 356 94 356 131 356 92 357 94 357 95 357 65 358 94 358 92 358 65 359 70 359 94 359 52 360 65 360 53 360 65 361 52 361 70 361 155 362 194 362 183 362 155 363 157 363 194 363 155 364 137 364 157 364 126 365 137 365 155 365 70 366 137 366 126 366 52 367 137 367 70 367 24 368 137 368 52 368 24 369 124 369 137 369 24 370 108 370 124 370 24 371 89 371 108 371 24 56 63 56 89 56 24 56 42 56 63 56 1 372 24 372 2 372 35 56 24 56 1 56 24 373 35 373 42 373 68 374 50 374 48 374 68 375 71 375 50 375 127 376 71 376 68 376 127 377 83 377 71 377 150 378 127 378 147 378 184 379 150 379 176 379 184 380 127 380 150 380 134 381 127 381 184 381 83 382 109 382 102 382 123 383 127 383 134 383 109 384 127 384 123 384 127 385 109 385 83 385 96 386 127 386 125 386 127 387 96 387 95 387 130 388 95 388 100 388 153 389 181 389 180 389 181 390 153 390 154 390 122 391 132 391 124 391 147 392 149 392 150 392 149 393 147 393 148 393 65 394 64 394 66 394 155 395 183 395 177 395 89 396 107 396 108 396 107 397 89 397 90 397 155 398 151 398 152 398 62 399 91 399 63 399 125 400 68 400 67 400 68 401 125 401 127 401 143 402 196 402 144 402 143 403 188 403 196 403 143 404 178 404 188 404 112 405 178 405 143 405 112 406 33 406 178 406 33 407 55 407 7 407 99 408 33 408 112 408 33 409 87 409 55 409 87 410 33 410 99 410 150 411 149 411 176 411 53 412 51 412 52 412 147 413 153 413 146 413 153 414 147 414 154 414 98 415 107 415 97 415 107 416 98 416 108 416 88 417 60 417 59 417 60 418 88 418 87 418 57 419 134 419 133 419 182 420 176 420 167 420</p>
        </triangles>
      </mesh>
    </geometry>
  </library_geometries>
  <library_visual_scenes>
    <visual_scene id="Scene" name="Scene">
      <node id="node0" name="node0" type="NODE">
        <matrix sid="transform">1 0 0 0 0 1 0 0 0 0 1 0 0 0 0 1</matrix>
        <instance_geometry url="#slam_head_rpi3_simple_Simple_Chassis_Full-mesh" name="node0">
          <bind_material>
            <technique_common>
              <instance_material symbol="slam_head_rpi3_simple_Simple_Chassis_Full-material" target="#slam_head_rpi3_simple_Simple_Chassis_Full-material"/>
            </technique_common>
          </bind_material>
        </instance_geometry>
      </node>
    </visual_scene>
  </library_visual_scenes>
  <scene>
    <instance_visual_scene url="#Scene"/>
  </scene>
</COLLADA>