<?xml version="1.0" encoding="utf-8"?>
<COLLADA xmlns="http://www.collada.org/2005/11/COLLADASchema" version="1.4.1" xmlns:xsi="http://www.w3.org/2001/XMLSchema-instance">
  <asset>
    <contributor>
      <author>Blender User</author>
      <authoring_tool>Blender 3.0.1</authoring_tool>
    </contributor>
    <created>2025-12-17T21:08:52</created>
    <modified>2025-12-17T21:08:52</modified>
    <unit name="meter" meter="1"/>
    <up_axis>Z_UP</up_axis>
  </asset>
  <library_images/>
  <library_geometries>
    <geometry id="PiCameraMount_v1-mesh" name="PiCameraMount_v1">
      <mesh>
        <source id="PiCameraMount_v1-mesh-positions">
          <float_array id="PiCameraMount_v1-mesh-positions-array" count="459">-40.5896 46.42088 18.56743 -43.48738 46.42088 19.34389 -41.62487 46.42088 14.70373 -44.52265 46.42088 15.48018 -41.62487 20.42088 14.70373 -44.52265 20.42088 15.48018 -40.5896 20.42088 18.56743 -43.48738 20.42088 19.34389 -45.60837 10.12171 0.003665149 -47.29493 10.45578 0.8905826 -47.86888 10.59954 2.397892 -46.69183 10.32189 0.372793 -46.15291 10.21612 0.1238513 -47.86839 56.25058 2.395705 -47.73325 56.2859 1.655011 -47.73843 10.56546 1.672635 -47.27102 56.39978 0.860741 -46.56792 56.55428 0.2940652 -45.818 56.69472 0.03319406 -42.44135 57.06524 1.47774e-6 -46.23722 56.62964 2.998069 -43.22518 56.99293 2.981719 -40.98654 57.01367 3.001441 -38.79103 56.81734 3.020754 -36.97597 56.57077 1.54037e-6 -35.126 56.10116 3 -31.49587 54.68633 -4.47191e-7 -29.80455 53.77418 3 -26.63321 51.5215 -4.8116e-7 -25.21031 50.22073 3 -22.68712 47.26845 -5.08885e-7 -21.62032 45.65506 3 -19.89478 42.18284 -4.4362e-7 -19.25088 40.3523 3 -18.42416 36.57055 -3.29134e-7 -18.36108 35.71036 3 -18.30616 31.60918 3 -18.29776 31.97484 -1.47778e-7 -18.70781 28.84126 0 -19.25088 26.4977 3 -19.89478 24.66717 -4.44982e-7 -21.62033 21.19492 3 -22.68712 19.58154 -4.64358e-7 -25.21034 16.62924 3 -26.63323 15.32848 -5.36439e-7 -29.80453 13.07583 3 -31.4959 12.16365 -5.32396e-7 -35.12612 10.7488 3 -36.97597 10.27923 1.43445e-6 -38.7496 10.00968 3.007208 -42.44134 9.78476 1.13077e-6 -42.29309 9.829061 2.986828 -44.97047 10.02837 2.989981 -47.8222 10.57979 3.028869 -47.82039 56.25045 3.072847 -47.6361 10.83806 3.886014 -46.16287 10.89059 4.366713 -43.96662 10.99144 4.809079 -41.88589 10.90267 4.568549 -41.0934 10.54933 3.876564 -39.95638 10.16501 3.286914 -46.33449 10.51598 3.460434 -43.65904 10.53306 3.853975 -42.53704 11.1775 5.413147 -47.30643 11.0571 5.083365 -47.00783 56.25877 3.402358 -45.30804 56.41542 3.511785 -42.84216 56.32541 3.869615 -40.57902 56.49104 3.565027 -44.08879 56.04003 4.360172 -47.47012 55.87491 4.477916 -42.0339 55.88871 4.725337 -41.40812 56.15945 4.123019 -42.75643 55.60277 5.794097 -46.27796 55.99752 4.249779 -45.88044 55.74359 5.283568 -39.67899 56.73263 3.206312 -43.22872 55.46755 7.398343 -43.19622 55.33765 8.760236 -31.5777 50.925 52.20029 -34.47548 50.925 52.97674 -34.47548 15.925 52.97674 -31.5777 15.925 52.20029 -43.2554 11.47836 8.417495 -43.07989 11.31736 6.652697 -36.78688 21.9945 32.75933 -36.88743 22.48331 32.38413 -36.91112 23.10861 32.29567 -36.81003 23.78856 32.67295 -36.90749 43.71048 32.30923 -36.89261 44.33535 32.36478 -36.77634 44.88167 32.79868 -36.59825 45.0339 33.46327 -36.42982 44.75681 34.09191 -33.61662 44.61029 44.59095 -36.33204 43.98055 34.45686 -33.67974 43.94921 44.35539 -36.3975 43.23964 34.21253 -33.63324 43.34329 44.52891 -33.51573 42.91478 44.96745 -36.54889 42.84198 33.64754 -36.41675 23.69622 34.14067 -33.62001 23.62342 44.57827 -36.34185 23.1395 34.42023 -33.67728 22.86821 44.36456 -36.36321 22.43702 34.34052 -33.60117 22.14257 44.64859 -33.09344 43.899 46.54347 -33.19459 44.75683 46.16596 -33.4249 45.06069 45.30644 -33.44495 24.01774 45.23162 -33.35377 42.82649 45.57191 -33.26314 23.93521 45.91017 -33.20406 43.06145 46.1306 -33.13371 23.43866 46.39318 -33.10298 22.74139 46.50786 -33.18982 22.1217 46.18375 -33.37505 21.79435 45.49249 -36.59725 24.05205 33.46704 -36.79035 42.97697 32.74639 -36.54773 21.82037 33.65187 -39.47365 21.79671 34.32327 -39.74594 23.64123 33.30708 -39.74961 43.23962 33.29341 -36.48971 22.10689 45.45951 -39.28825 22.27593 35.01523 -39.23461 22.86818 35.21543 -36.57984 22.98058 45.12313 -39.29187 23.62341 35.00173 -36.49512 23.69623 45.43933 -39.52918 24.06863 34.11609 -36.3542 24.0081 45.96527 -39.41625 42.88977 34.53754 -36.36298 42.84198 45.93247 -39.25041 43.47354 35.15645 -36.51438 43.23963 45.36747 -36.57751 43.9008 45.13184 -39.26849 44.48953 35.08897 -36.49896 44.70741 45.42502 -36.31362 45.0339 46.11671 -36.03712 23.47848 47.14864 -39.48698 45.06069 34.27356 -39.59823 42.84198 33.8584 -39.81275 43.90078 33.05777 -39.73419 44.70742 33.35096 -39.72495 22.10689 33.38544 -39.81275 22.90079 33.05777 -36.00132 22.62774 47.28225 -36.2168 21.79985 46.47802 -36.17231 23.95533 46.64407 -36.1022 43.01452 46.90574 -35.99551 44.03088 47.30392 -36.1169 44.84612 46.85087</float_array>
          <technique_common>
            <accessor source="#PiCameraMount_v1-mesh-positions-array" count="153" stride="3">
              <param name="X" type="float"/>
              <param name="Y" type="float"/>
              <param name="Z" type="float"/>
            </accessor>
          </technique_common>
        </source>
        <source id="PiCameraMount_v1-mesh-normals">
          <float_array id="PiCameraMount_v1-mesh-normals-array" count="957">0 -1 0 0.2588174 0 0.9659264 0.2588167 0 0.9659266 0 1 0 0 1 3.17891e-7 -0.2588195 0 -0.9659258 -0.258821 0 -0.9659253 -0.4194186 -4.21747e-4 -0.9077929 -0.6514275 -1.54018e-4 -0.7587109 -0.2155807 -3.51195e-4 -0.976486 -0.8698669 -9.16969e-5 -0.4932867 -0.3286431 5.25935e-4 -0.9444541 -0.6275703 3.56334e-4 -0.7785599 -0.8643059 1.23221e-4 -0.5029666 -0.9842048 2.33705e-6 -0.1770333 -0.9837607 4.23461e-5 -0.1794849 -0.1090098 0.9940201 0.006406486 -0.1856479 0.9826053 -0.004680871 -0.2152979 0.9765481 -8.84667e-4 -0.2291989 0.9733601 0.006173908 -0.2324626 0.9725538 0.01002478 -0.1842519 0.9827898 0.0132482 -0.1197822 0.9927725 -0.007412731 -0.009453833 0.9997187 0.02175611 0.08926421 0.9956645 -0.0261591 0.09007167 0.9955653 -0.02714508 0.1918559 0.9807909 0.0352227 0.3247332 0.9443518 -0.05242246 0.4000973 0.9149603 0.05262875 0.5447289 0.8369596 -0.0526247 0.6109582 0.7899053 0.05272191 0.7320472 0.679212 -0.05270892 0.7849975 0.6172445 0.05280435 0.8753387 0.4806191 -0.05279666 0.9117235 0.407385 0.05289411 0.9659875 0.2531243 -0.05288159 0.9815743 0.1881554 0.03331178 0.9997627 0.01338773 -0.01718229 0.9996032 0.02749264 0.006150424 0.9914625 -0.1297393 -0.01303684 0.9827078 -0.1816279 0.03600937 0.9611145 -0.2733078 -0.03951954 0.9117231 -0.407386 0.05289214 0.8753389 -0.480619 -0.05279654 0.7849959 -0.6172463 0.0528059 0.7320473 -0.6792117 -0.05270892 0.610958 -0.7899059 0.05271822 0.544728 -0.8369601 -0.05262464 0.4000955 -0.9149608 0.05263519 0.3247326 -0.9443521 -0.05242168 0.1998317 -0.9793687 0.03007459 0.0900461 -0.9952831 -0.03610217 0.05083179 -0.9986317 0.0122888 -0.07420116 -0.9970723 0.01847177 -0.1058014 -0.9943512 -0.008480191 -0.1696548 -0.9854887 0.005435287 -0.1896467 -0.9817537 0.01392889 -0.185181 -0.9825642 0.01660126 -0.213425 -0.9769512 0.00402981 -0.248575 -0.9685991 -0.005119442 -0.29469 -0.9555586 -0.008105278 -0.9972736 1.43959e-5 0.07379209 -0.997497 -2.87304e-5 0.07070922 -0.9772237 -1.65934e-4 0.2122122 0.001625955 -0.8898534 0.456244 0.0371558 -0.7969672 0.6028789 -0.1649237 -0.8837923 0.4378485 -0.08205437 -0.8012952 0.5926154 -0.05146759 -0.9194584 0.3898046 -0.04317784 -0.9060602 0.4209403 -0.06031936 -0.8193204 0.5701543 0.03858566 -0.8014717 0.5967868 -0.005276262 -0.9520985 0.3057463 0.01680761 -0.992708 0.1193665 -0.1308601 -0.9410406 0.3119587 -0.09657704 -0.9132525 0.3957813 -0.02593362 -0.9820569 0.1867934 -6.4655e-4 -0.9742806 0.2253376 0.004524946 -0.9586461 0.284565 -6.17963e-4 -0.7768351 0.6297038 0.01197993 -0.8999724 0.4357824 -0.06079512 0.7850583 0.6164314 0.0212599 0.8035086 0.5949134 -0.03138428 0.8965595 0.4418102 -0.04009777 0.8911526 0.4519286 -0.1090443 0.919598 0.3774244 -0.125395 0.9502202 0.2852328 -0.03560513 0.9459701 0.3222931 -0.01810044 0.8835446 0.4679972 0.02762711 0.9007053 0.4335514 -0.001913845 0.9709626 0.2392241 0.001178622 0.9658239 0.2591968 0.007258236 0.8548603 0.5188077 0.06236314 0.7609373 0.6458215 0.05913305 0.7529187 0.6554517 -0.01278388 0.7285648 0.6848576 -0.09872269 0.842347 0.5298164 -0.1116744 0.8291569 0.5477479 -0.1888752 0.8760784 0.4436359 -0.05020171 0.9652642 0.2564079 -0.04539412 0.8063933 0.5896348 0.02972495 0.9952563 0.0926367 0.02842956 0.9951421 0.09425574 0.02994626 0.9952077 0.09308528 0.02531945 0.9952034 0.09449404 0.03556078 0.9951205 0.09203684 0.005606949 -2.84419e-4 0.9999843 6.6158e-5 1.51189e-4 1 1.0996e-4 1.42219e-4 1 3.04929e-4 7.65943e-5 1 -1.31639e-7 0 1 0 0 1 2.91449e-7 0 1 -1.12385e-6 0 1 0.00372833 -0.008525848 0.9999568 0.001447021 -0.001870989 0.9999972 8.64861e-4 -6.79969e-4 0.9999994 5.94175e-4 -2.65566e-4 0.9999999 0.02528858 -0.9952151 0.09437906 0.02601397 -0.9952194 0.09413748 0.0265913 -0.9952696 0.09344226 0.8285347 -7.09776e-4 0.5599374 0.693526 -2.29139e-4 0.7204317 0.5585116 -6.28273e-4 0.8294965 0.4605987 8.61917e-4 0.8876082 0.2045103 4.76079e-4 0.9788643 0.9997122 -0.001161456 -0.02396583 0.9593254 -0.001533687 0.2822984 0.9160531 0.001084685 0.4010555 0.225783 -8.2075e-5 0.9741776 0.995105 0.001685798 0.09881013 0.792038 4.783e-4 0.6104717 0.6578487 4.69616e-4 0.7531501 0.3703729 -5.98403e-4 0.928883 0.9679685 0 -0.2510722 0.9659098 0.005814135 -0.2588136 0.9657196 0.006656169 -0.2595022 0.9659256 4.6992e-5 -0.2588199 0.9659268 -2.67311e-5 -0.2588156 0.9659254 1.4171e-5 -0.2588209 0.9659258 0 -0.2588193 0.9659258 0 -0.2588192 0.9659248 -1.3256e-5 -0.2588229 0.9659266 1.3495e-5 -0.2588165 0.9659258 0 -0.2588194 0.965852 -0.002606868 -0.2590813 0.9659951 -0.0013116 -0.2585572 0.9660142 -0.001132547 -0.2584864 0.9659257 0 -0.2588196 0.965926 -4.62972e-7 -0.2588185 0.9659262 -1.44841e-5 -0.2588179 0.9659262 0 -0.2588176 0.9659259 -1.15303e-5 -0.258819 0.9659261 8.03036e-6 -0.2588186 0.9659256 -1.91029e-6 -0.2588202 0.9659267 8.25039e-6 -0.2588161 0.9659239 1.32176e-5 -0.2588262 0.9659261 -2.71979e-7 -0.258818 0.965926 3.75088e-7 -0.2588188 0.9659264 -1.01815e-5 -0.2588173 0.9659257 -8.27697e-6 -0.2588196 0.9659261 8.41337e-6 -0.2588183 0.9659263 7.4727e-7 -0.2588176 0.9659255 0 -0.2588205 0.9659261 1.24895e-6 -0.2588184 0.9659265 7.03907e-6 -0.2588167 0.9659237 -0.002294778 -0.2588173 0.9670359 6.85271e-4 -0.2546391 0.965927 -3.1913e-6 -0.2588146 0.9659269 -1.47975e-7 -0.2588152 0.9659261 3.23243e-7 -0.258818 0.9659268 -1.44037e-7 -0.2588156 0.9659221 -6.93021e-7 -0.2588331 0.9659254 -5.91271e-7 -0.2588208 0.9659301 -4.42787e-7 -0.2588036 0.9659255 2.45762e-7 -0.2588202 0.9659314 0 -0.2587982 0.9659267 5.1384e-6 -0.2588161 0.9659239 -9.42815e-6 -0.2588264 0.9659257 0 -0.2588196 0.9659251 2.89642e-7 -0.2588221 0.9659247 2.17298e-7 -0.2588231 0.9659255 0 -0.2588203 0.9660866 0.003401637 -0.2581958 0.9661468 0.002833843 -0.2579775 -0.9659262 -2.02065e-4 0.2588176 -0.96592 -2.48245e-4 0.2588408 -0.9657839 0 0.2593482 -0.9659264 5.64898e-5 0.258817 -0.9659258 0 0.2588194 -0.9659258 0 0.2588192 -0.9717381 -0.03055 0.2340766 -0.9663101 6.87565e-4 0.2573798 -0.9635932 -0.01020318 0.2671782 -0.9659337 -9.76208e-5 0.2587899 -0.9659261 -8.28321e-7 0.2588185 -0.9659255 -3.45307e-5 0.2588204 -0.965926 -9.47911e-6 0.2588188 -0.9659259 3.39058e-6 0.2588191 -0.9659253 0 0.2588209 -0.965926 -9.89631e-7 0.2588185 -0.9659252 -1.25131e-5 0.2588216 -0.9659263 1.77947e-5 0.2588174 -0.9659258 0 0.2588194 -0.9659258 0 0.2588195 -0.9659263 8.8235e-6 0.2588174 -0.9659261 -1.78222e-5 0.2588183 -0.9659258 -2.2011e-6 0.2588196 -0.9659257 0 0.2588196 -0.9659253 -2.22688e-6 0.2588208 -0.9659265 0 0.258817 -0.9659259 8.1879e-7 0.2588191 -0.9659235 -2.40956e-5 0.2588279 -0.9659258 0 0.2588194 -0.9659256 0 0.2588198 -0.965928 2.78364e-5 0.2588108 -0.9659243 0 0.258825 -0.9659275 -4.8173e-7 0.2588129 -0.9659287 3.32933e-7 0.2588085 -0.9659262 -3.04404e-6 0.2588178 -0.9659258 -1.7173e-6 0.2588196 -0.9659255 -1.35445e-5 0.2588205 -0.9659242 7.02052e-5 0.2588256 -0.9659257 -1.9862e-5 0.2588197 -0.9659258 0 0.2588194 -0.9659258 2.51159e-6 0.2588195 -0.9659268 -2.91717e-6 0.2588155 -0.9659258 -7.39115e-6 0.2588195 -0.9659257 5.76514e-7 0.2588198 -0.9659276 1.99122e-7 0.2588126 -0.9659257 3.78258e-7 0.2588199 -0.9659245 0 0.2588243 -0.9659273 9.75901e-6 0.2588138 -0.9659258 -6.56438e-7 0.2588193 -0.9659258 2.8534e-6 0.2588196 -0.2212883 -0.06855213 -0.9727961 -0.2610614 -0.4374549 -0.8605116 -0.1149115 -0.8278358 -0.549075 -0.1137332 -0.9200062 -0.375038 0.04992663 -0.9763717 0.2102518 0.1164379 -0.9375447 0.3277992 0.1777854 -0.6349498 0.7518187 0.2654011 -0.3520867 0.8975507 0.2428157 -0.09162622 0.9657357 0.2552785 0.3461279 0.9027892 0.1995381 0.5249735 0.827398 0.1723827 0.8266785 0.5356182 0.01006066 0.9893077 0.1454966 -0.00476551 0.9976112 -0.06891489 -0.1540648 0.8269531 -0.5407519 -0.1562067 0.7390726 -0.6552641 -0.2733085 0.3229491 -0.906094 -0.2734076 0.1166633 -0.9547973 -0.2297759 -0.2810803 -0.9317709 -0.2438201 -0.4612153 -0.8531309 -0.1095604 -0.8907229 -0.4411454 -0.09929519 -0.8994639 -0.4255646 0.060943 -0.9521154 0.2996037 0.1383015 -0.8905204 0.4334123 0.2068861 -0.4980223 0.8421235 0.2618574 -0.3291036 0.9072604 0.2416337 0.1448903 0.9594894 0.2592412 0.3928288 0.8823149 0.1858798 0.6220597 0.7605856 0.09796202 0.9523834 0.2887374 0.03395402 0.9826019 0.1825948 -0.1307582 0.8310959 -0.5405385 -0.1863277 0.7562225 -0.6272237 -0.2293831 0.330276 -0.915588 -0.2483198 -0.1678512 -0.9540249 -0.2506101 -0.1604818 -0.9546938 -0.1865293 -0.7095822 -0.6794852 -0.1697154 -0.7385428 -0.6524961 -0.03497606 -0.9931576 -0.1114215 -0.01521515 -0.9971839 -0.0734359 0.1258449 -0.8639057 0.4876782 0.1223087 -0.8677265 0.4817588 0.2512231 -0.4159022 0.8740208 0.232455 -0.2811069 0.9310982 0.2479241 0.375545 0.8930283 0.2468368 0.3702484 0.8955377 0.0894069 0.9289132 0.359342 0.09352195 0.9598929 0.2643091 -0.1349852 0.9090148 -0.3942982 -0.1425253 0.7085039 -0.6911649 -0.2443748 0.476081 -0.844765 -0.2482526 -0.4145637 -0.8755043 -0.2122107 -0.4986461 -0.8404277 -0.1009689 -0.9461923 -0.3074498 -0.05640941 -0.9707936 -0.2331907 0.1198838 -0.9098131 0.3973261 0.1177105 -0.8543179 0.5062463 0.2500095 -0.3460932 0.9042758 0.2477188 -0.3521721 0.9025577 0.2437076 0.2842494 0.9272589 0.2506795 0.3461239 0.9040786 0.167574 0.7272003 0.6656566 0.1614409 0.8268825 0.5387043 0.02172553 0.9900846 0.1387825 -0.01536291 0.9852309 -0.1705408 -0.1112284 0.9263837 -0.35978 -0.2370055 0.4545465 -0.8586128 -0.2188875 0.3757624 -0.9004948 0.2588169 0 0.9659264 -0.009894192 5.89469e-4 -0.999951 -7.0067e-6 -7.75724e-5 -1 -2.58343e-5 -7.40731e-5 -1 -4.4392e-5 -6.81965e-5 -1 -1.09589e-4 -3.83143e-5 -1 -1.69949e-4 4.84261e-5 -1 0 0 -1 0 0 -1 0 0 -1 0 0 -1 -2.06784e-4 1.13542e-4 -1 -2.59174e-4 2.40486e-4 -1 -3.34003e-4 5.13185e-4 -0.9999999 -4.48182e-4 0.001302301 -0.9999991 -5.31648e-4 0.005876898 -0.9999827</float_array>
          <technique_common>
            <accessor source="#PiCameraMount_v1-mesh-normals-array" count="319" stride="3">
              <param name="X" type="float"/>
              <param name="Y" type="float"/>
              <param name="Z" type="float"/>
            </accessor>
          </technique_common>
        </source>
        <vertices id="PiCameraMount_v1-mesh-vertices">
          <input semantic="POSITION" source="#PiCameraMount_v1-mesh-positions"/>
        </vertices>
        <triangles count="322">
          <input semantic="VERTEX" source="#PiCameraMount_v1-mesh-vertices" offset="0"/>
          <input semantic="NORMAL" source="#PiCameraMount_v1-mesh-normals" offset="1"/>
          <p>0 0 1 0 2 0 2 0 1 0 3 0 2 1 3 1 4 1 4 2 3 2 5 2 4 3 5 3 6 3 6 4 5 4 7 4 6 5 7 5 0 5 0 6 7 6 1 6 12 7 11 7 17 7 11 8 9 8 16 8 12 9 18 9 8 9 9 10 15 10 14 10 17 11 18 11 12 11 16 12 17 12 11 12 14 13 16 13 9 13 15 14 10 14 13 14 13 15 14 15 15 15 19 16 18 16 20 16 20 17 18 17 17 17 20 18 17 18 16 18 16 19 14 19 20 19 20 20 14 20 54 20 54 21 14 21 13 21 20 22 21 22 19 22 19 23 21 23 22 23 19 24 22 24 23 24 19 25 23 25 24 25 24 26 23 26 25 26 24 27 25 27 26 27 26 28 25 28 27 28 26 29 27 29 28 29 28 30 27 30 29 30 28 31 29 31 30 31 30 32 29 32 31 32 30 33 31 33 32 33 32 34 31 34 33 34 32 35 33 35 34 35 34 36 33 36 35 36 34 37 35 37 36 37 34 38 36 38 37 38 37 39 36 39 38 39 38 40 36 40 39 40 38 41 39 41 40 41 40 42 39 42 41 42 40 43 41 43 42 43 42 44 41 44 43 44 42 45 43 45 44 45 44 46 43 46 45 46 44 47 45 47 46 47 46 48 45 48 47 48 46 49 47 49 48 49 48 50 47 50 49 50 48 51 49 51 50 51 50 52 49 52 51 52 50 53 51 53 52 53 50 54 52 54 8 54 8 55 52 55 12 55 12 56 52 56 53 56 12 57 53 57 11 57 11 58 53 58 9 58 9 59 53 59 15 59 15 60 53 60 10 60 10 61 53 61 13 61 13 62 53 62 54 62 54 63 53 63 55 63 58 64 62 64 59 64 60 65 51 65 49 65 61 66 53 66 52 66 52 67 62 67 61 67 56 68 61 68 62 68 62 69 57 69 56 69 52 70 51 70 62 70 51 71 60 71 59 71 58 72 63 72 57 72 63 73 84 73 64 73 55 74 53 74 61 74 56 75 55 75 61 75 55 76 56 76 64 76 57 77 64 77 56 77 64 78 57 78 63 78 62 79 51 79 59 79 57 80 62 80 58 80 66 81 67 81 21 81 68 82 21 82 67 82 67 83 66 83 69 83 74 84 69 84 66 84 65 85 74 85 66 85 65 86 54 86 70 86 65 87 70 87 74 87 67 88 69 88 71 88 67 89 71 89 72 89 71 90 74 90 75 90 73 91 71 91 75 91 67 92 72 92 68 92 23 93 22 93 76 93 76 94 22 94 68 94 68 95 22 95 21 95 66 96 21 96 20 96 66 97 20 97 65 97 65 98 20 98 54 98 74 99 70 99 75 99 74 100 71 100 69 100 73 101 75 101 77 101 77 102 75 102 78 102 78 103 75 103 79 103 79 104 75 104 80 104 80 105 75 105 70 105 23 106 49 106 25 106 25 107 49 107 27 107 27 108 49 108 29 108 29 109 49 109 39 109 29 110 39 110 31 110 31 111 39 111 33 111 33 112 39 112 36 112 33 113 36 113 35 113 49 114 47 114 45 114 45 115 43 115 49 115 49 116 43 116 41 116 49 117 41 117 39 117 81 118 64 118 82 118 82 119 64 119 83 119 83 120 64 120 84 120 71 121 73 121 63 121 72 122 71 122 58 122 72 123 59 123 68 123 59 124 60 124 68 124 23 125 76 125 60 125 78 126 83 126 77 126 73 127 77 127 84 127 84 128 63 128 73 128 60 129 49 129 23 129 84 130 77 130 83 130 71 131 63 131 58 131 72 132 58 132 59 132 68 133 60 133 76 133 2 134 4 134 83 134 83 135 4 135 6 135 83 136 6 136 85 136 85 137 6 137 86 137 86 138 6 138 87 138 87 139 6 139 88 139 88 140 6 140 0 140 88 141 0 141 119 141 119 142 0 142 89 142 89 143 0 143 90 143 90 144 0 144 91 144 91 145 0 145 78 145 91 146 78 146 92 146 92 147 78 147 79 147 92 148 79 148 93 148 93 149 79 149 109 149 93 150 109 150 94 150 93 151 94 151 95 151 95 152 94 152 96 152 95 153 96 153 97 153 97 154 96 154 98 154 97 155 98 155 99 155 97 156 99 156 100 156 100 157 99 157 101 157 101 158 99 158 102 158 101 159 102 159 103 159 103 160 102 160 104 160 103 161 104 161 105 161 105 162 104 162 106 162 105 163 106 163 120 163 120 164 106 164 82 164 82 165 106 165 117 165 0 166 2 166 78 166 78 167 2 167 83 167 79 168 107 168 108 168 108 163 109 163 79 163 102 169 99 169 110 169 110 170 99 170 111 170 110 171 111 171 112 171 112 172 111 172 113 172 112 173 113 173 114 173 114 174 113 174 107 174 114 175 107 175 82 175 114 176 82 176 115 176 115 177 82 177 116 177 116 178 82 178 117 178 82 179 107 179 79 179 100 180 101 180 118 180 100 181 118 181 119 181 119 182 118 182 88 182 85 183 120 183 83 183 83 184 120 184 82 184 5 185 64 185 7 185 7 186 64 186 121 186 3 187 55 187 5 187 1 188 70 188 3 188 7 189 122 189 1 189 1 190 122 190 123 190 70 191 54 191 3 191 3 192 54 192 55 192 55 193 64 193 5 193 121 194 64 194 81 194 121 195 81 195 124 195 121 196 124 196 125 196 125 197 124 197 126 197 126 198 124 198 127 198 126 199 127 199 128 199 128 200 127 200 129 200 128 201 129 201 130 201 130 202 129 202 131 202 130 203 131 203 132 203 132 204 131 204 133 204 132 205 133 205 134 205 134 206 133 206 135 206 134 207 135 207 136 207 134 208 136 208 137 208 137 209 136 209 138 209 137 210 138 210 141 210 141 211 138 211 80 211 80 212 138 212 139 212 80 213 150 213 81 213 81 214 150 214 140 214 70 215 141 215 80 215 130 216 132 216 142 216 130 217 142 217 122 217 122 218 142 218 123 218 1 219 123 219 143 219 1 220 143 220 144 220 1 221 144 221 141 221 1 222 141 222 70 222 121 223 145 223 7 223 145 224 146 224 7 224 7 225 146 225 122 225 147 226 148 226 81 226 81 227 148 227 124 227 133 228 131 228 149 228 133 229 149 229 150 229 150 230 149 230 140 230 140 231 147 231 81 231 151 232 150 232 80 232 80 233 139 233 152 233 80 234 152 234 151 234 95 235 134 235 137 235 95 236 137 236 93 236 93 237 137 237 141 237 93 238 141 238 92 238 92 239 141 239 91 239 91 240 141 240 144 240 91 241 144 241 90 241 90 242 144 242 143 242 90 243 143 243 89 243 89 244 143 244 123 244 89 245 123 245 119 245 119 246 123 246 142 246 119 247 142 247 100 247 100 248 142 248 132 248 100 249 132 249 97 249 97 250 132 250 134 250 97 251 134 251 95 251 105 252 126 252 103 252 103 253 126 253 128 253 103 254 128 254 101 254 101 255 128 255 118 255 118 256 128 256 130 256 118 257 130 257 88 257 88 258 130 258 122 258 88 259 122 259 87 259 87 260 122 260 146 260 87 261 146 261 86 261 86 262 146 262 145 262 86 263 145 263 85 263 85 264 145 264 121 264 85 265 121 265 120 265 120 266 121 266 125 266 120 267 125 267 105 267 105 268 125 268 126 268 115 269 147 269 114 269 114 270 147 270 140 270 114 271 140 271 112 271 112 272 140 272 149 272 112 273 149 273 110 273 110 274 149 274 131 274 110 275 131 275 102 275 102 276 131 276 129 276 102 277 129 277 127 277 102 278 127 278 104 278 104 279 127 279 106 279 106 280 127 280 124 280 106 281 124 281 117 281 117 282 124 282 148 282 117 283 148 283 116 283 116 284 148 284 147 284 116 285 147 285 115 285 107 286 151 286 108 286 108 287 151 287 152 287 108 288 152 288 109 288 109 289 152 289 139 289 109 290 139 290 138 290 109 291 138 291 94 291 94 292 138 292 96 292 96 293 138 293 136 293 96 294 136 294 98 294 98 295 136 295 135 295 98 296 135 296 99 296 99 297 135 297 133 297 99 298 133 298 111 298 111 299 133 299 150 299 111 300 150 300 113 300 113 301 150 301 107 301 107 302 150 302 151 302 79 303 80 303 82 303 82 303 80 303 81 303 18 304 19 304 8 304 8 305 19 305 24 305 24 306 26 306 8 306 8 307 26 307 28 307 8 308 28 308 38 308 8 309 38 309 40 309 38 310 28 310 30 310 30 311 32 311 38 311 38 312 32 312 34 312 38 313 34 313 37 313 8 314 40 314 42 314 42 315 44 315 8 315 8 316 44 316 46 316 8 317 46 317 48 317 8 318 48 318 50 318</p>
        </triangles>
      </mesh>
    </geometry>
  </library_geometries>
  <library_visual_scenes>
    <visual_scene id="Scene" name="Scene">
      <node id="PiCameraMount_v1" name="PiCameraMount_v1" type="NODE">
        <matrix sid="transform">0.001 0 0 0 0 0.001 0 0 0 0 0.001 0 0 0 0 1</matrix>
        <instance_geometry url="#PiCameraMount_v1-mesh" name="PiCameraMount_v1"/>
      </node>
    </visual_scene>
  </library_visual_scenes>
  <scene>
    <instance_visual_scene url="#Scene"/>
  </scene>
</COLLADA>