<?xml version="1.0" encoding="utf-8"?>
<COLLADA xmlns="http://www.collada.org/2005/11/COLLADASchema" version="1.4.1" xmlns:xsi="http://www.w3.org/2001/XMLSchema-instance">
  <asset>
    <contributor>
      <author>Blender User</author>
      <authoring_tool>Blender 3.0.1</authoring_tool>
    </contributor>
    <created>2025-12-17T21:08:51</created>
    <modified>2025-12-17T21:08:51</modified>
    <unit name="meter" meter="1"/>
    <up_axis>Z_UP</up_axis>
  </asset>
  <library_effects>
    <effect id="slam_head_rpi3_simple_Simple_Chassis_001-effect">
      <profile_COMMON>
        <technique sid="common">
          <lambert>
            <emission>
              <color sid="emission">0 0 0 1</color>
            </emission>
            <diffuse>
              <color sid="diffuse">0.8 0.8 0.8 1</color>
            </diffuse>
            <index_of_refraction>
              <float sid="ior">1.45</float>
            </index_of_refraction>
          </lambert>
        </technique>
      </profile_COMMON>
    </effect>
  </library_effects>
  <library_images/>
  <library_materials>
    <material id="slam_head_rpi3_simple_Simple_Chassis_001-material" name="slam_head_rpi3_simple_Simple_Chassis_001">
      <instance_effect url="#slam_head_rpi3_simple_Simple_Chassis_001-effect"/>
    </material>
  </library_materials>
  <library_geometries>
    <geometry id="slam_head_rpi3_simple_Simple_Chassis_001-mesh" name="slam_head_rpi3_simple_Simple_Chassis_001">
      <mesh>
        <source id="slam_head_rpi3_simple_Simple_Chassis_001-mesh-positions">
          <float_array id="slam_head_rpi3_simple_Simple_Chassis_001-mesh-positions-array" count="438">-0.03192365 -0.0623762 0.01586866 -0.03185206 -0.06234854 0.01723802 -0.03233075 -0.01891386 0.01655334 -0.03233075 0.00397551 0.01674008 -0.03192555 0.03288221 0.01609688 -0.03246891 0.01998531 0.01723802 -0.03205102 0.02257525 0.03000795 -0.03111898 0.03331929 0.01723802 -0.02817356 0.02673584 0.01723802 -0.02885448 0.01846116 0.01723802 -0.02719157 0.02559006 0.01723802 -0.02710407 0.01805156 0.03000795 -0.02495986 0.02509766 0.03000795 -0.02623564 0.01805609 0.01723802 -0.02624374 -0.03891539 0.01586866 -0.02615594 -0.03900319 0.01723802 -0.02624374 -0.02496904 0.01723802 -0.02615594 -0.02488124 0.01586866 -0.02354466 0.02215808 0.01723802 -0.02299046 -0.04377794 0.01723802 -0.02335554 -0.05023437 0.03000789 -0.02165591 -0.05236524 0.01723802 -0.02200794 -0.04470992 0.03000795 -0.02348041 -0.04818826 0.01723802 -0.0186246 -0.05149459 0.03000789 -0.0183264 -0.04506719 0.01723802 -0.01796102 -0.0506072 0.01723802 -0.01915347 -0.01865994 0.01586866 -0.01921164 -0.01871639 0.01723802 -0.01922643 0.003763258 0.01586866 -0.01921164 0.00377804 0.01723802 -0.01875615 -0.03895217 0.01655334 -0.01878124 -0.0249232 0.01650065 -0.01628375 -0.04618847 0.03000795 -0.01868462 0.02456212 0.01662939 -0.01868462 0.02987444 0.01655334 -0.01523494 -0.04829448 0.01723802 -0.01536917 0.00617671 0.01629 -0.01536917 0.01148909 0.01624208 -0.01132667 0.02997159 0.01645553 -0.01218467 -0.05701309 0.01665866 -0.01135677 -0.04655349 0.01586866 -0.01137423 -0.04648548 0.01723802 -0.01129418 -0.03311032 0.01586866 -0.01074016 -0.03578311 0.01723802 -0.01122736 -0.01684474 0.01586866 -0.01123684 -0.01682186 0.01723802 -0.01035755 -0.01149117 0.01658445 -0.01011651 -0.03822994 0.01586866 -0.009106218 -0.002644062 0.01723802 -0.008519887 -0.002340137 0.01984095 -0.007106721 0.02088654 0.01723802 -0.0090788 0.01794964 0.01984095 -0.009122252 0.01630222 0.01723802 -0.008455753 0.001433908 0.01723802 -0.007718086 8.71326e-4 0.01984095 -0.007083952 -9.44294e-4 0.01723802 -0.007083952 0.01785141 0.01723802 -0.005355894 0.01574575 0.01723802 -0.006056368 0.01633566 0.01984095 -0.00423789 -0.001721918 0.01723802 -0.00488317 -0.001370549 0.01984095 -0.005837321 0.01926445 0.01984095 -0.007055699 0.0299257 0.01586866 -0.007032811 0.02991622 0.01723802 -0.005942106 0.0245155 0.01657539 -0.005734741 -0.04722189 0.01654088 -0.004358649 -0.05701631 0.01723802 -0.001766085 -0.05703288 0.0158686 -0.00316745 -0.02496367 0.01652795 8.93688e-5 0.02381479 0.01586866 -1.13908e-4 0.02382475 0.01723802 0.00251615 -0.02728724 0.01586866 6.07737e-5 -0.02814024 0.01723802 6.0773e-5 -0.02178716 0.01586866 0.00251615 -0.02264016 0.01723802 9.1914e-4 -0.0567556 0.01723802 0.004322886 -0.0569635 0.01618462 0.004728376 5.31252e-4 0.01723802 0.005319774 -0.001790046 0.01984095 0.004858076 0.01654028 0.01723802 0.005307972 0.01846534 0.01984095 0.00649321 0.0205878 0.01723802 0.005676805 -0.04721742 0.01653993 0.007505059 -0.003792405 0.01723802 0.007584512 0.01586389 0.01984095 0.007658243 8.38582e-4 0.01984095 0.005955457 0.0245155 0.01674896 0.007130503 -9.44292e-4 0.01723802 0.007130503 0.01785141 0.01723802 0.008968949 -0.002091288 0.01984095 0.009624421 0.0163052 0.01723802 0.007057845 0.02992105 0.01660221 0.00862956 0.01899755 0.01984095 0.009320437 6.12982e-4 0.01723802 0.01137733 -0.04652053 0.01586866 0.01138079 -0.04651749 0.01723802 0.01037091 -0.01149117 0.01694458 0.01014107 -0.03820639 0.01657694 0.01134628 0.02997821 0.01586866 0.01722598 0.03141856 0.01680386 0.01124072 -0.03308266 0.01586866 0.01130795 -0.0168299 0.01653122 0.01125019 -0.03310549 0.01723802 0.01219797 -0.05701309 0.01665866 0.01543653 0.006191432 0.01675873 0.01538252 0.01148903 0.01673591 0.01761496 -0.04333305 0.01723802 0.01676917 -0.05013322 0.03000795 0.01692742 -0.05124825 0.01723802 0.01856219 -0.04376506 0.03000795 0.01841312 -0.0447095 0.01723802 0.01842248 -0.05072444 0.01723802 0.01869797 0.02456212 0.01664465 0.02132374 -0.05159682 0.03000795 0.01990115 -0.01146644 0.01586866 0.01925498 -0.01243627 0.01723802 0.01761251 -0.00260812 0.01681417 0.01915109 -0.03804963 0.01586866 0.01756519 -0.03626763 0.01723802 0.01927787 -0.02654218 0.01723802 0.02019315 -0.02721315 0.01586866 0.02348238 -0.04599535 0.03000795 0.02452778 -0.05019366 0.01723802 0.02317768 -0.04903119 0.01723802 0.0246604 -8.10839e-4 0.01660221 0.0246604 -0.03819352 0.01646405 0.02357518 0.02279275 0.01723802 0.02412813 0.02029943 0.03000795 0.02615839 -0.01945692 0.01586866 0.02539408 -0.01961475 0.01723802 0.02470695 -0.01355338 0.01655334 0.02476936 -0.02544772 0.01662939 0.0272352 0.01738399 0.01723802 0.02537292 0.02471756 0.03000795 0.02717435 0.01846885 0.01723802 0.02883726 0.02559775 0.01723802 0.02925401 0.02668315 0.01723802 0.02909737 0.01821494 0.03000795 0.03155618 0.02419251 0.03000795 0.03178185 -0.06239628 0.01586866 0.03113228 -0.0627346 0.01723802 0.03161412 0.03309655 0.01616632 0.03228658 0.02088493 0.01723802 0.03230088 -0.06089752 0.01723802 0.03229683 0.03153383 0.01723802</float_array>
          <technique_common>
            <accessor source="#slam_head_rpi3_simple_Simple_Chassis_001-mesh-positions-array" count="146" stride="3">
              <param name="X" type="float"/>
              <param name="Y" type="float"/>
              <param name="Z" type="float"/>
            </accessor>
          </technique_common>
        </source>
        <source id="slam_head_rpi3_simple_Simple_Chassis_001-mesh-normals">
          <float_array id="slam_head_rpi3_simple_Simple_Chassis_001-mesh-normals-array" count="1005">2.35842e-4 0 1 2.06312e-7 0 1 -6.45142e-7 0 1 -0.2095091 -0.004518866 0.9777963 -0.5690908 0.02831935 0.821787 0.1493008 0.1276844 0.9805132 0.137564 0.06561243 0.9883174 -0.02892321 0.0382443 0.9988498 -0.02808153 0.04606479 0.9985437 0.4571036 -0.749848 -0.4783141 -0.06270593 -0.148222 0.9869642 0.04811531 0.1137331 0.9923456 -0.03005808 0.1265247 0.991508 -0.09463602 -0.002478957 0.9955089 -0.1124718 -7.03694e-4 0.9936547 0.02756613 -0.1160404 0.9928619 -0.05292129 0.05951875 0.9968235 0.09840053 -0.1106665 0.9889744 0.8150799 -0.5184842 0.2584937 0.9426741 -0.2868682 0.1705065 -0.2498348 -0.9672438 -0.04496705 0.3999837 0.9126462 0.08420151 0.9159234 -0.3529785 0.1910253 -0.4117888 -0.9084313 0.07199084 0.2497578 0.9669457 0.05135405 -0.2956038 -0.9550918 -0.02044528 -0.9826442 -0.152715 -0.1053025 -0.8259665 -0.5589252 -0.07336288 2.88497e-7 0 1 2.71605e-7 0 1 0 0 1 -6.4401e-7 0 1 0.02669799 -0.05697864 0.9980184 0.0432716 -0.05116277 0.9977525 0 -2.19094e-7 1 -0.05027788 -0.05894905 0.9969941 -0.04870909 -0.06023675 0.996995 6.47219e-4 0.1055944 0.9944091 -0.06725877 -0.4174469 0.9062089 0.05563038 0.2811126 0.958061 -3.69032e-7 0 1 0.1428407 0.1709803 0.9748653 -0.1372193 0.1402155 0.9805665 0.2689086 -0.2747802 0.9231382 -5.08483e-7 0 1 -0.8286056 0.08388644 0.5535123 0.01605576 0.5702626 0.8213056 6.04297e-7 0 1 -0.01764786 -0.6268095 0.7789727 0.002877175 -0.1525776 0.9882874 0.04284888 0.303269 0.9519412 0.07124698 0.03187555 0.9969493 0.0589239 0.01429462 0.9981602 -0.1288533 -0.1463583 0.9808038 -0.1790503 -0.1553541 0.9714968 0.01503735 -0.1424324 0.9896903 -0.114741 -0.8120972 0.57213 -0.6650932 -0.7273221 0.1692742 -0.3049792 -0.9490694 0.07908958 0.9917306 0.001541018 0.128328 -0.5645987 0.8241521 -0.04473918 -0.3283003 0.9229362 0.2010172 0.4128598 0.9107946 1.88163e-4 0.5693794 -0.8215429 -0.02957224 0.3059344 0.9520421 -0.00447005 0.7005961 0.7084251 -0.08543509 -0.6597799 -0.7273896 0.1886662 0.2544605 0.9552884 0.1505788 -0.08426016 -0.9922569 -0.09124934 0.08328807 0.9808099 0.1762816 -0.9582462 0.2699792 0.09420996 0.9143921 -0.376125 0.1497233 -0.2553448 -0.9586082 0.1259748 -0.9485883 0.2212699 0.2263178 -0.9147506 0.4035485 -0.01949143 0.9451038 -0.2204566 0.2412006 0.1370578 -0.9877841 -0.07414716 -0.3842332 -0.9159666 0.1156299 -0.9960513 0.08652138 -0.01989966 -0.8409134 0.5350731 -0.08100438 0.8839964 0.4623451 -0.06919115 0.9704219 -0.2367125 -0.04742121 -0.9312471 0.3588839 -0.06309735 0.5103811 -0.8428314 0.1707235 0.9058738 -0.3996325 0.1403085 -0.9473813 0.2883006 0.1391094 0.3865194 0.9214185 -0.03988373 0.5341551 -0.8425372 -0.06935054 0.6732392 0.7362295 -0.06866657 0.929606 -0.26191 0.2592989 -0.3321898 0.9328847 0.1391984 -0.986232 -0.06503736 0.1520421 -0.9594641 0.2701472 0.08030754 0.834796 -0.5476448 0.05657619 -0.9150057 0.3763781 0.145273 0.50069 0.859753 -0.1006698 0.6937973 0.6990737 -0.1730353 -0.9674253 0.2359814 0.09165757 0.3336422 -0.9379537 -0.09447675 -0.9586273 0.2236117 0.176158 0.9625355 -0.2710127 0.008808553 0.9283403 -0.2165468 0.3021454 -0.01715165 0.999034 0.04045933 0.7727834 0.5650167 -0.2890711 -0.1437199 -0.9727807 0.1817759 -0.4099125 -0.7676146 0.492686 3.20615e-7 -4.4141e-7 1 -0.9205041 0.004209935 -0.3907103 -0.03838318 -0.03139668 0.9987698 -2.89309e-7 0 1 -1.92484e-7 0 1 -0.001553535 0.08729332 0.9961815 -0.01517146 0.112829 0.9934986 0.04184633 0.308553 0.9502862 -6.23617e-7 0 1 0.1847168 0.0908699 0.9785819 0.09664124 0.008970618 0.995279 -0.02019256 -0.1824904 0.9830003 -0.01575595 -0.1924991 0.9811707 0.003708243 -0.09930694 0.99505 -0.04423791 0.003852844 0.9990136 0.005922973 -0.09668505 0.9952974 -2.05392e-7 0 1 0 0 1 0 0 1 2.69985e-7 0 1 -0.01771026 0.9950727 -0.0975542 0.5990871 0.8006771 0.003282189 0.6195899 0.7834663 0.04784029 0.7054076 0.6173133 0.3483166 0.8991588 -0.2244959 0.3756527 0.714883 -0.6359714 0.2906591 0.3576745 -0.8818014 0.307401 0.252879 -0.9485108 0.1907341 -0.2991425 0.7374981 0.6054837 0.9589606 -0.07171875 0.2743193 0.07687479 0.9312832 0.3560928 -0.1275925 0.7963316 0.5912498 0.7808749 -0.2604166 0.5678185 -0.06747174 -0.8173762 0.5721396 0.1496175 -0.9338024 0.3250044 -0.8079758 -0.5188801 -0.2791751 -0.8902633 0.3914117 -0.2328695 -0.9209404 0.3720486 -0.1159684 0.9159793 0.3119654 -0.2523083 -0.8277862 -0.3703023 0.421481 0.1856105 -0.9799372 0.07260775 -0.6404036 -0.5604269 0.5251715 -0.04823702 -0.9778684 -0.2035846 -0.2411228 0.9044138 0.3519878 -0.5941237 0.5285406 0.6063513 0.8006706 0.3581717 0.4802498 -0.9220798 0.2302185 0.3110762 -0.9675757 0.1543436 0.1999383 0.8923891 -0.3677406 -0.2615503 0.4476266 0.8382391 0.3114253 -0.9137338 0.06833612 0.4005258 -0.5767255 -0.7292652 0.3681848 -0.878638 0.29302 0.3770076 0.6472949 0.7568411 0.09056013 0.6607847 0.7505527 -0.005843162 0.3395461 -0.3919879 0.855017 0.5109544 -0.7220788 0.4663987 0.6136147 -0.05900663 0.7873978 -0.6495212 0.7534821 -0.1019175 0.8286359 -0.5597872 -8.57242e-4 0.2054813 0.1562116 -0.9661136 0.2395725 -0.2127974 -0.9472711 0.5400387 0.5883022 -0.6018794 0.2346976 -0.3760628 -0.8963783 0.5532848 0.8329313 0.01007932 0.3207924 0.2677212 -0.9085249 -0.3749887 -0.3183367 -0.8706579 -0.4145693 0.3454169 0.8419142 -0.6123461 -0.4795146 -0.6285683 -0.6800054 -0.5815504 -0.4465333 0.02980971 0.493941 -0.8689844 -0.3547931 -0.05935883 0.9330587 0.1323814 -0.1168791 0.9842838 0.1140876 -0.02009087 0.9932675 -0.08850938 -1.43841e-4 0.9960753 -0.03555172 0.04348385 0.9984214 -0.05803072 -0.1158924 0.9915651 -0.05201703 -0.117223 0.9917425 1.97355e-7 5.65322e-7 1 -0.1507242 0.06728845 0.9862832 -0.0908637 0.1284077 0.9875502 -0.08651316 0.003585517 0.9962443 -0.1351343 -0.01170027 0.9907583 0.1287653 0.0770384 0.9886783 3.00038e-7 2.67396e-7 1 -0.08853322 -6.23427e-4 0.996073 0.05482947 0.205923 0.977031 -0.03407353 -0.1279692 0.9911927 0.06497704 0.6568625 0.7512055 0 -4.20232e-7 1 -0.07077592 -0.3535529 0.9327331 1.18374e-4 -0.08422893 0.9964464 0.1563056 0.3087915 0.9381985 -3.10314e-7 0 1 -0.06169104 0.01505219 0.9979819 0.07361674 0 0.9972866 -0.04293787 -0.06756466 0.9967905 -0.01732778 -0.07122522 0.9973098 0.004431843 -0.0234006 0.9997164 0.04037386 -0.04059982 0.9983596 0.1065781 -0.07232218 0.9916706 -0.06927418 0.03032565 0.9971366 3.23202e-7 -3.70936e-7 1 0.09269529 -0.01609069 0.9955646 0.04852777 -0.01999771 0.9986217 -0.007185816 -0.0407567 0.9991433 -0.3853902 0.2945343 0.874485 -0.7099456 -0.7042233 0.006847739 0.2551788 -0.2733017 0.9274643 -0.7428978 0.5713559 -0.3487912 -0.5781554 0.510451 -0.6365345 -0.737479 -0.6749385 0.02414149 -0.4473246 -0.298005 -0.8432638 -0.02856189 -0.02933233 0.9991617 -0.06413805 0.04023295 0.9971298 -0.07877016 0.1149816 0.9902396 0.006496191 0.3340224 0.9425429 -0.00326085 0.2420957 0.9702469 -0.0245409 0.03212529 0.9991826 0.07907921 0.01092863 0.9968085 0.08289515 0.08382147 0.9930269 0.06273818 -0.8819977 -0.4670591 0.004980087 0.2359501 0.9717524 -0.0365501 0.5138304 0.8571128 0.03120273 -0.01431244 -0.9994106 -0.0104646 -0.1949101 -0.9807654 0.002269864 -0.3720999 -0.9281899 0.02659207 0.4657574 -0.8845128 -0.1324593 -0.1522476 -0.979426 -0.1360772 -0.1591063 -0.9778386 -0.09634876 -0.7609313 -0.6416389 -0.06255787 -0.8979184 -0.4356939 0.04629564 0.4579612 -0.8877659 -0.04581516 0.01335722 -0.9988607 -0.03891247 0.002890706 -0.9992385 0.01605528 -0.0110538 -0.99981 -0.008368432 0.05255424 -0.998583 0.2687633 -0.405986 -0.8734653 -0.1647033 0.3008152 -0.9393525 0.05263155 -0.09612667 -0.9939767 -0.1042401 0.1007543 -0.9894355 -0.004130482 0.02856653 -0.9995834 -0.02535659 -0.009009897 -0.999638 -0.01961529 -0.02196633 -0.9995663 0.06974136 0.0472086 -0.9964475 -0.02895063 -0.004601418 -0.9995703 -0.1798505 0.02424156 -0.9833952 -0.02311962 -0.008110761 -0.9996999 -0.02676385 -0.01291447 -0.9995584 0.01521611 -0.002535521 -0.9998811 0.04721325 0.1180718 -0.9918821 -0.1095166 -0.1956601 -0.9745374 0.01737087 -0.01173573 -0.9997802 0.08089917 2.63259e-4 -0.9967224 -0.05975461 0.2635865 -0.9627833 0.101097 0.01209688 -0.9948031 -0.4201749 0.001946568 -0.907441 0.2082018 0.1630377 -0.9644018 -0.1101847 0.2118168 -0.9710782 0.2960069 -0.5690392 -0.7671861 0.04915577 0.02194458 -0.9985501 -0.1402214 -0.06259918 -0.9881394 -0.06213527 -0.141913 -0.9879271 0.05415517 0.1236861 -0.9908426 -0.08374339 3.43972e-4 -0.9964873 -0.03148615 0.1374882 -0.9900029 0.02268177 -0.0990405 -0.994825 0.08446574 -0.09507143 -0.9918805 -0.06251764 0.01513564 -0.9979291 -0.1095566 6.8537e-4 -0.9939804 -0.05294394 0.05959182 -0.9968179 0.2265214 -0.1742156 -0.9582991 -0.07600551 -0.001409173 -0.9971064 -0.02677029 0.04083126 -0.9988074 1.60093e-7 0 -1 -0.07571572 -0.1205832 -0.9898115 -0.07953631 -0.1197361 -0.9896147 -0.05823385 0.1381115 -0.9887032 0 0 -1 -0.08834773 -0.003897666 -0.9960821 -0.07750976 -0.01782894 -0.9968323 -0.5310338 0.01553416 -0.8472083 -0.1489542 -0.01950752 -0.9886517 0.02480274 0.03187805 -0.999184 0.1044746 -0.09587693 -0.9898953 -0.07942348 0.07288724 -0.9941728 0.03469747 0.08995568 -0.9953413 -0.08677911 -0.2249808 -0.9704911 -0.06245541 -0.1830309 -0.9811213 -8.59889e-5 0.001369893 -0.9999991 0.09081304 0.1444754 -0.9853324 0.1320081 0.1208142 -0.9838587 0.1473129 0.2871195 -0.9464995 0 0 -1 -0.06205999 -0.07976371 -0.9948801 0.06156063 -0.08001875 -0.9948907 4.58134e-5 0.1453689 -0.9893776 0.05508601 -0.3135439 -0.9479746 -0.068924 0.3890057 -0.9186535 0.05285918 -0.298337 -0.9529958 -0.1231995 0.05323636 -0.990953 0.05147677 0.02923631 -0.9982461 -0.9999361 -0.003253936 0.01083433 -0.9990988 0 -0.04244589 -0.9969674 -0.07777374 0.002713561 0.4229611 0.2311297 -0.8761753 0.09775429 0.6596409 -0.7451967 -0.9999682 0.003852486 0.006981313 -0.002763092 0.934489 -0.3559814 -1.96285e-4 -0.99795 -0.06399804 0.01505118 0.9890906 -0.1465376 -3.06093e-4 -0.9707753 -0.23999 -0.006128072 -0.9997713 0.02048957 0.001145482 0.9999502 -0.009922206 0.8804327 0.1153039 -0.4599385 0.785369 -0.07805347 -0.6140874 0.2176572 9.68399e-6 -0.9760254 0.8347819 0.01547741 0.5503633 0.9039582 0.001467764 0.4276183 3.09931e-5 -0.9999762 -0.006914675 -0.01546823 -0.9998202 0.01096504 -0.4583702 0.2901238 0.8400744 0.9968435 -0.07764756 0.01654893 0.9979569 -0.00624305 0.06358528 0.9979571 0.006243407 -0.06358391 -0.9985739 -0.01017951 0.05240827 -9.58155e-4 0.9979466 0.06404656 0.9999672 -0.004107177 0.006986916 0.9425526 0.02469033 -0.3331441</float_array>
          <technique_common>
            <accessor source="#slam_head_rpi3_simple_Simple_Chassis_001-mesh-normals-array" count="335" stride="3">
              <param name="X" type="float"/>
              <param name="Y" type="float"/>
              <param name="Z" type="float"/>
            </accessor>
          </technique_common>
        </source>
        <vertices id="slam_head_rpi3_simple_Simple_Chassis_001-mesh-vertices">
          <input semantic="POSITION" source="#slam_head_rpi3_simple_Simple_Chassis_001-mesh-positions"/>
        </vertices>
        <triangles material="slam_head_rpi3_simple_Simple_Chassis_001-material" count="348">
          <input semantic="VERTEX" source="#slam_head_rpi3_simple_Simple_Chassis_001-mesh-vertices" offset="0"/>
          <input semantic="NORMAL" source="#slam_head_rpi3_simple_Simple_Chassis_001-mesh-normals" offset="1"/>
          <p>143 0 144 0 145 0 143 1 130 1 144 1 133 2 130 2 143 2 131 3 133 3 125 3 131 4 130 4 133 4 131 5 116 5 130 5 117 6 116 6 131 6 97 7 116 7 117 7 75 8 116 8 97 8 75 9 102 9 116 9 75 10 46 10 69 10 47 11 46 11 75 11 28 12 46 12 47 12 46 13 32 13 44 13 16 14 2 14 15 14 28 15 32 15 46 15 16 16 28 16 2 16 28 17 16 17 32 17 141 18 140 18 144 18 18 19 12 19 11 19 25 20 33 20 22 20 24 21 26 21 23 21 123 22 122 22 114 22 111 23 122 23 110 23 19 24 22 24 33 24 11 25 5 25 13 25 20 26 19 26 21 26 128 27 127 27 133 27 1 28 21 28 19 28 123 29 141 29 144 29 109 30 141 30 123 30 1 31 36 31 21 31 36 32 40 32 42 32 1 33 40 33 36 33 96 34 109 34 107 34 104 35 109 35 96 35 104 36 141 36 109 36 141 37 40 37 1 37 141 38 67 38 40 38 76 39 141 39 104 39 76 40 67 40 141 40 42 41 76 41 66 41 67 30 76 30 42 30 76 42 96 42 83 42 76 43 77 43 96 43 23 30 26 30 25 30 124 44 111 44 112 44 5 45 7 45 4 45 7 46 145 46 142 46 8 47 7 47 5 47 7 48 100 48 145 48 7 49 92 49 100 49 7 50 64 50 92 50 34 51 7 51 8 51 35 52 7 52 34 52 64 53 65 53 71 53 64 54 39 54 65 54 39 55 7 55 35 55 39 56 64 56 7 56 5 57 11 57 6 57 109 58 114 58 108 58 108 59 112 59 111 59 134 60 137 60 127 60 8 61 6 61 12 61 107 62 110 62 122 62 138 63 133 63 143 63 112 64 108 64 114 64 12 65 18 65 8 65 122 66 111 66 124 66 23 67 20 67 24 67 136 68 139 68 134 68 137 69 134 69 139 69 127 70 128 70 134 70 143 71 139 71 138 71 21 72 24 72 20 72 139 73 136 73 135 73 26 74 24 74 33 74 134 75 135 75 136 75 114 76 109 76 123 76 133 77 138 77 128 77 108 78 107 78 109 78 6 79 8 79 5 79 139 80 143 80 137 80 23 81 22 81 20 81 124 82 114 82 122 82 22 83 23 83 25 83 36 84 33 84 24 84 9 85 11 85 12 85 135 86 128 86 138 86 24 87 21 87 36 87 9 88 6 88 11 88 135 89 134 89 128 89 114 90 124 90 112 90 33 91 25 91 26 91 107 92 108 92 110 92 11 93 13 93 18 93 135 94 138 94 139 94 33 95 36 95 19 95 122 96 123 96 107 96 19 97 20 97 22 97 10 98 12 98 6 98 12 99 10 99 9 99 111 100 110 100 108 100 6 101 9 101 10 101 2 102 28 102 27 102 93 103 91 103 82 103 59 104 53 104 58 104 53 105 59 105 52 105 54 106 30 106 49 106 3 107 5 107 4 107 30 108 5 108 3 108 30 109 13 109 5 109 13 30 53 30 51 30 78 110 54 110 60 110 78 30 30 30 54 30 105 111 78 111 94 111 37 112 78 112 105 112 37 113 30 113 78 113 13 114 58 114 53 114 58 30 91 30 80 30 37 115 13 115 30 115 38 116 13 116 37 116 38 117 58 117 13 117 106 118 58 118 38 118 106 119 91 119 58 119 133 120 106 120 105 120 106 121 133 121 91 121 51 122 18 122 13 122 127 123 91 123 133 123 51 124 127 124 18 124 80 125 51 125 58 125 82 30 51 30 80 30 127 30 82 30 91 30 82 30 127 30 51 30 86 126 94 126 78 126 55 127 60 127 54 127 60 128 55 128 61 128 89 129 81 129 85 129 56 130 55 130 50 130 88 131 86 131 79 131 57 132 62 132 52 132 60 133 61 133 50 133 51 134 52 134 62 134 58 135 62 135 59 135 88 136 79 136 90 136 82 137 81 137 93 137 91 138 93 138 85 138 84 139 90 139 79 139 89 140 93 140 81 140 79 141 78 141 84 141 53 142 52 142 51 142 81 143 82 143 80 143 51 144 62 144 58 144 88 145 90 145 86 145 50 146 49 146 60 146 80 147 85 147 81 147 85 148 80 148 91 148 56 149 50 149 61 149 78 150 79 150 86 150 94 151 86 151 90 151 54 152 50 152 55 152 50 153 54 153 49 153 90 154 84 154 94 154 57 155 52 155 59 155 57 156 59 156 62 156 56 157 61 157 55 157 89 158 85 158 93 158 63 159 71 159 70 159 71 160 63 160 64 160 72 161 44 161 48 161 44 162 72 162 73 162 121 163 119 163 118 163 92 164 70 164 71 164 77 165 95 165 96 165 117 166 131 166 115 166 132 167 119 167 121 167 47 168 75 168 74 168 87 169 99 169 100 169 72 170 103 170 101 170 103 171 72 171 75 171 98 172 73 172 72 172 69 173 43 173 44 173 129 174 116 174 115 174 116 175 129 175 130 175 98 176 48 176 44 176 130 177 132 177 144 177 120 178 132 178 130 178 120 179 119 179 132 179 102 180 120 180 116 180 103 181 120 181 102 181 103 30 119 30 120 30 103 182 98 182 119 182 103 183 73 183 98 183 75 184 73 184 103 184 69 185 73 185 75 185 44 186 73 186 69 186 31 187 44 187 32 187 126 188 144 188 132 188 119 189 144 189 126 189 119 30 123 30 144 30 119 190 107 190 123 190 98 191 107 191 119 191 44 192 107 192 98 192 31 193 107 193 44 193 15 194 107 194 31 194 15 195 96 195 107 195 15 196 83 196 96 196 15 197 66 197 83 197 15 198 42 198 66 198 42 30 19 30 36 30 15 199 19 199 42 199 1 200 15 200 2 200 19 30 15 30 1 30 47 201 30 201 28 201 47 202 49 202 30 202 97 203 49 203 47 203 97 204 60 204 49 204 133 205 117 205 125 205 133 206 97 206 117 206 105 207 97 207 133 207 60 208 84 208 78 208 94 209 97 209 105 209 84 210 97 210 94 210 97 211 84 211 60 211 97 212 74 212 75 212 69 213 46 213 45 213 102 214 75 214 72 214 121 215 130 215 129 215 130 216 121 216 120 216 68 217 42 217 41 217 42 218 68 218 67 218 113 219 145 219 100 219 145 30 137 30 143 30 113 220 137 220 145 220 113 221 127 221 137 221 87 222 127 222 113 222 87 223 18 223 127 223 92 224 87 224 100 224 71 225 87 225 92 225 18 226 34 226 8 226 71 227 18 227 87 227 18 228 65 228 34 228 71 229 65 229 18 229 4 230 35 230 34 230 4 231 39 231 35 231 100 232 4 232 142 232 99 233 4 233 100 233 39 234 70 234 65 234 39 235 63 235 70 235 4 236 63 236 39 236 92 237 4 237 99 237 4 238 92 238 63 238 142 239 113 239 100 239 106 240 113 240 142 240 38 241 113 241 106 241 38 242 87 242 113 242 38 243 99 243 87 243 99 244 70 244 92 244 38 245 70 245 99 245 38 246 65 246 70 246 38 247 34 247 65 247 3 248 38 248 37 248 4 249 38 249 3 249 34 250 38 250 4 250 142 251 105 251 106 251 125 252 142 252 129 252 125 253 105 253 142 253 117 254 105 254 125 254 117 255 37 255 105 255 115 256 37 256 117 256 97 257 37 257 115 257 47 258 37 258 97 258 29 259 47 259 27 259 37 260 29 260 3 260 29 261 37 261 47 261 129 262 131 262 125 262 115 263 131 263 129 263 115 264 74 264 97 264 102 265 74 265 115 265 72 266 74 266 102 266 69 267 74 267 72 267 45 268 74 268 69 268 45 269 47 269 74 269 32 270 45 270 43 270 45 271 27 271 47 271 32 272 27 272 45 272 17 273 27 273 32 273 2 274 14 274 0 274 2 275 17 275 14 275 17 276 2 276 27 276 121 277 129 277 132 277 121 278 102 278 115 278 121 279 101 279 102 279 118 280 101 280 121 280 98 281 101 281 118 281 72 282 101 282 98 282 72 283 43 283 69 283 48 284 43 284 72 284 43 285 31 285 32 285 31 286 43 286 48 286 129 287 126 287 132 287 140 288 126 288 129 288 95 289 126 289 140 289 95 290 118 290 126 290 95 291 98 291 118 291 95 292 48 292 98 292 83 293 48 293 95 293 83 294 31 294 48 294 66 295 31 295 83 295 66 296 14 296 31 296 41 297 66 297 68 297 41 298 14 298 66 298 0 299 14 299 41 299 140 300 104 300 95 300 40 301 0 301 41 301 0 302 104 302 140 302 0 303 77 303 104 303 68 304 0 304 40 304 68 305 77 305 0 305 77 306 83 306 95 306 77 307 68 307 83 307 27 308 30 308 29 308 30 309 27 309 28 309 95 310 104 310 96 310 66 311 76 311 68 311 119 312 126 312 118 312 103 313 102 313 101 313 7 314 142 314 4 314 17 315 32 315 16 315 76 316 104 316 77 316 141 317 0 317 140 317 0 318 141 318 1 318 68 319 40 319 67 319 129 320 144 320 140 320 145 321 129 321 142 321 144 322 129 322 145 322 115 323 120 323 121 323 115 324 116 324 120 324 63 325 92 325 64 325 30 326 3 326 29 326 83 327 68 327 76 327 42 328 40 328 41 328 16 329 14 329 17 329 14 330 16 330 15 330 2 331 0 331 1 331 15 332 31 332 14 332 46 333 43 333 45 333 44 334 43 334 46 334</p>
        </triangles>
      </mesh>
    </geometry>
  </library_geometries>
  <library_visual_scenes>
    <visual_scene id="Scene" name="Scene">
      <node id="node0" name="node0" type="NODE">
        <matrix sid="transform">1 0 0 0 0 1 0 0 0 0 1 0 0 0 0 1</matrix>
        <instance_geometry url="#slam_head_rpi3_simple_Simple_Chassis_001-mesh" name="node0">
          <bind_material>
            <technique_common>
              <instance_material symbol="slam_head_rpi3_simple_Simple_Chassis_001-material" target="#slam_head_rpi3_simple_Simple_Chassis_001-material"/>
            </technique_common>
          </bind_material>
        </instance_geometry>
      </node>
    </visual_scene>
  </library_visual_scenes>
  <scene>
    <instance_visual_scene url="#Scene"/>
  </scene>
</COLLADA>